<svg xmlns="http://www.w3.org/2000/svg" xml:space="preserve" viewBox="0 0 200 50"><g fill="#fff"><path d="M58.78 25.72a20.034 20.034 0 0 0-6.79-6.57c-2.54-1.49-5.4-2.39-8.34-2.63l1.06-1.98c2.94.36 5.78 1.32 8.33 2.82.67.4 1.32.83 1.95 1.29L47.36 4.41 35.95 25.73h-2.36l4.78-8.93c-2.2.42-4.32 1.21-6.26 2.35a19.678 19.678 0 0 0-6.75 6.58h-2.41c.1-.18.2-.37.31-.55a21.92 21.92 0 0 1 7.8-7.83c2.62-1.54 5.53-2.5 8.54-2.84L47.37 0l13.78 25.72zM7.02 33.77H4.93L0 44.67h2.12l1.35-3.09h5.01l1.35 3.09h2.11zm-2.83 6.15 1.78-4.19 1.82 4.19zm17.31 3.85-3.91-7.29v8.19h-1.87v-10.9h2.45l4.12 7.77 4.12-7.77h2.45v10.9H27v-8.19l-3.91 7.29zm18.48-10h-5.61v10.9h1.86v-4.25h3.85c2.22 0 3.59-1.32 3.59-3.46.01-2.06-1.3-3.19-3.69-3.19zm-.1 5h-3.65v-3.34h3.93c1.05 0 1.65.57 1.65 1.57.01 1.17-.65 1.77-1.93 1.77zm16.36 5.9h-8.97v-10.9h8.97v1.65h-7.1v2.79h6.75v1.65h-6.75v3.15h7.1zm27.68 0h-8.96v-10.9h8.96v1.65h-7.1v2.79h6.75v1.65h-6.75v3.15h7.1zm-15.2-4.58c1.19-.52 1.87-1.62 1.87-3.13 0-2.06-1.31-3.19-3.7-3.19H60.9v10.9h1.86v-4.25h4.02l2.25 4.25h2.11zm-1.92-1.32h-4.02v-3.34h4.31c1.05 0 1.65.57 1.65 1.57 0 1.17-.66 1.77-1.94 1.77zM89.55 42.95c0 .94-.74 1.68-1.7 1.68-.95 0-1.71-.74-1.71-1.68 0-.92.76-1.66 1.71-1.66.96 0 1.7.74 1.7 1.66zm-2.99 0c0 .74.55 1.33 1.3 1.33.73 0 1.27-.59 1.27-1.32 0-.74-.54-1.34-1.28-1.34-.74.01-1.29.6-1.29 1.33zm1.02.88h-.38v-1.66c.15-.03.36-.05.64-.05.31 0 .46.05.58.12.09.07.16.2.16.36 0 .18-.14.32-.34.38V43c.16.06.25.18.3.41.05.25.08.35.12.42h-.42c-.05-.06-.08-.21-.13-.41-.03-.18-.13-.26-.34-.26h-.18v.67zm.01-.95h.18c.21 0 .38-.07.38-.24 0-.15-.11-.25-.35-.25-.1 0-.17.01-.21.02z"/></g><path fill="#fff" d="M111.891 43.515c-.887-.542-1.099-1.155-1.101-3.196-.004-3.29.327-3.569 4.338-3.65 3.898-.08 4.435.13 4.667 1.821l.105.766h-1.067c-.957 0-1.093-.042-1.334-.408-.259-.395-.328-.41-2.063-.41-2.28 0-2.449.121-2.449 1.763 0 1.473.22 1.778 1.392 1.924.495.062 1.386.06 1.981-.003 1-.107 1.096-.152 1.262-.591.172-.456.223-.476 1.206-.476h1.027l-.002.695c-.003.925-.29 1.452-.98 1.799-.48.24-1.038.285-3.514.285-2.631 0-3-.034-3.467-.32zm10.076-.053c-.89-.6-.98-.927-.93-3.336.07-3.322.257-3.463 4.623-3.476 3.14-.01 3.808.116 4.405.825.405.48.42.575.42 2.701 0 3.584-.1 3.659-4.784 3.659-3.04 0-3.205-.017-3.734-.373zm6.079-1.684c.254-.23.312-.51.312-1.484 0-1.743-.147-1.856-2.412-1.853-2.156.003-2.415.068-2.663.667-.228.55-.142 2.354.124 2.621.54.54 4.056.576 4.639.049zm3.91-1.54V36.64l1.43.002c.788.002 1.514.057 1.614.123.101.066.717 1.058 1.37 2.205.652 1.147 1.21 2.085 1.242 2.085.031 0 .473-.717.981-1.594a87.372 87.372 0 0 1 1.32-2.214l.395-.62 1.507.048 1.506.047.044 3.556.044 3.557h-2.124l-.045-2.494-.045-2.493-1.446 2.493-1.446 2.494h-1.387l-1.36-2.377c-.748-1.307-1.423-2.415-1.499-2.462-.076-.047-.139 1.022-.139 2.376v2.463h-1.962zm12.956.04.044-3.556 3.27.002c3.56.001 4.093.103 4.607.873.376.564.415 2.864.06 3.529-.42.785-.904.91-3.514.91H147v1.799h-2.132zm6.037-.608c.09-.338.056-.598-.115-.858-.23-.351-.35-.373-2.039-.373H147V40.248l1.91-.046 1.91-.046zm4.46 3.855c-.98-.445-1.066-.789-1.014-4.026l.045-2.777h1.963l.045 2.39c.057 3.045.026 3.006 2.357 3.006 2.26 0 2.258.002 2.258-3.125V36.64h.804c1.387 0 1.322-.142 1.322 2.884 0 4.248-.066 4.313-4.358 4.307-2.327-.003-2.859-.05-3.422-.306zm11.704-2.388v-2.698h-2.943V36.64h8.013v1.799h-2.944v5.396h-2.126zm6.214-.907v-3.606l1.022.049 1.022.049.044 3.556.044 3.557h-2.132zm3.758 3.531c-.002-.05-.005-1.653-.007-3.564l-.004-3.475 1.53-.047 1.528-.046 2.117 2.608 2.116 2.608.045-2.519c.044-2.48.05-2.52.424-2.614.21-.052.667-.071 1.018-.043l.639.053.044 3.556.044 3.557-1.598-.01-1.597-.01-2.044-2.517-2.044-2.516-.082 2.486-.082 2.485-1.022.049c-.562.027-1.023.008-1.025-.041zm11.967-.196c-.935-.472-1.084-.874-1.139-3.075-.055-2.189.118-2.782 1.002-3.43.41-.3.744-.345 2.99-.397 4.092-.094 4.776.148 4.93 1.744l.081.85h-1.084c-.842 0-1.083-.054-1.083-.24 0-.43-.604-.578-2.35-.578-1.296 0-1.774.059-1.957.242-.519.519-.527 2.587-.012 3.101.478.478 3.547.527 4.103.066.52-.432.23-.615-1.052-.663l-1.267-.048-.05-.695-.05-.695h4.924v1.202c0 1.452-.208 2.113-.79 2.507-.377.257-.857.303-3.544.341-2.646.037-3.187.003-3.652-.232zM111.906 32.72c-.447-.181-1.044-.943-1.044-1.334 0-.296.588-.305 19.903-.305h19.903l-.888.9-.888.899-18.32-.01c-10.076-.006-18.476-.074-18.666-.15zm40.676-.944c4.36-4.47 10.29-10.9 10.22-11.083-.047-.12-2.407-2.794-5.245-5.943-2.838-3.15-5.16-5.767-5.16-5.817 0-.05 1.278-.09 2.84-.09h2.842l4.231 4.727c2.327 2.6 4.314 4.734 4.415 4.742.102.008 1.266-1.197 2.587-2.677l2.402-2.69 2.933-.049c1.613-.026 2.932-.027 2.932-.002s-1.588 1.81-3.529 3.968l-3.529 3.922 3.833 4.045 3.833 4.045-2.88.046c-1.583.026-3.026.003-3.206-.05-.18-.053-1.431-1.304-2.78-2.78-1.35-1.476-2.49-2.685-2.535-2.688-.045-.003-2.09 2.129-4.544 4.737l-4.463 4.741h-6.273zm8.685.245.738-.858 17.435-.042 17.434-.041v.338c0 .515-.285.942-.814 1.215-.417.216-2.691.247-18.004.247H160.53zm-50.53-11.12.043-8.053h7.356l4.743 5.85 4.744 5.848.081-5.849.082-5.849 2.412-.045 2.412-.045V28.954l-3.638-.008-3.639-.008-.49-.621c-.27-.342-2.404-2.946-4.743-5.788l-4.251-5.167-.043 5.796-.043 5.796h-5.068zm25.143-.04v-8.094h17.66v3.924H140.787v2.449l5.977.043 5.978.043.032 1.676.032 1.676h-12.019V25.03h12.918v3.924H135.88zm49.384 2.044v-6.05h-6.704V12.763l9.198.042 9.198.042v3.925l-3.393.044-3.393.044v12.094h-4.906zm-74.34-12.621c.139-.69.512-1.077 1.23-1.277.376-.104 7.226-.163 18.991-.164h18.403l.657.694c.36.382.753.824.871.981.205.272-.775.286-20.02.286h-20.235zm50.752-.371c-.427-.48-.777-.918-.777-.972 0-.18 34.049-.11 34.7.071.691.192 1.275.836 1.275 1.406v.386l-17.21-.009-17.211-.009z"/><path fill="none" stroke="#fff" d="M100.216 4.778v39.114Z"/></svg>