<?xml version="1.0" encoding="utf-8"?>
<!-- Generator: Adobe Illustrator 24.3.0, SVG Export Plug-In . SVG Version: 6.00 Build 0)  -->
<svg version="1.1" id="Layer_1" xmlns="http://www.w3.org/2000/svg" xmlns:xlink="http://www.w3.org/1999/xlink" x="0px" y="0px"
	 viewBox="0 0 129.17 103.34" style="enable-background:new 0 0 129.17 103.34;" xml:space="preserve">
<style type="text/css">
	.st0{fill:#FFFFFF;}
</style>
<g>
	<g>
		<path class="st0" d="M78.46,54.99c-1.69-2.69-4.06-4.97-6.79-6.57c-2.54-1.49-5.4-2.39-8.34-2.63l1.06-1.98
			c2.94,0.36,5.78,1.32,8.33,2.82c0.67,0.4,1.32,0.83,1.95,1.29l-7.63-14.24L55.63,55h-2.36l4.78-8.93
			c-2.2,0.42-4.32,1.21-6.26,2.35c-2.75,1.61-5.07,3.88-6.75,6.58h-2.41c0.1-0.18,0.2-0.37,0.31-0.55c1.88-3.23,4.58-5.93,7.8-7.83
			c2.62-1.54,5.53-2.5,8.54-2.84l7.77-14.51l13.78,25.72H78.46z"/>
	</g>
</g>
<g>
	<path d="M26.7,63.04h-2.09l-4.93,10.9h2.12l1.35-3.09h5.01l1.35,3.09h2.11L26.7,63.04z M23.87,69.19l1.78-4.19l1.82,4.19H23.87z
		 M41.18,73.04l-3.91-7.29v8.19H35.4v-10.9h2.45l4.12,7.77l4.12-7.77h2.45v10.9h-1.86v-8.19l-3.91,7.29H41.18z M59.66,63.04h-5.61
		v10.9h1.86v-4.25h3.85c2.22,0,3.59-1.32,3.59-3.46C63.36,64.17,62.05,63.04,59.66,63.04z M59.56,68.04h-3.65V64.7h3.93
		c1.05,0,1.65,0.57,1.65,1.57C61.5,67.44,60.84,68.04,59.56,68.04z M75.92,73.94h-8.97v-10.9h8.97v1.65h-7.1v2.79h6.75v1.65h-6.75
		v3.15h7.1V73.94z M103.6,73.94h-8.96v-10.9h8.96v1.65h-7.1v2.79h6.75v1.65H96.5v3.15h7.1V73.94z M88.4,69.36
		c1.19-0.52,1.87-1.62,1.87-3.13c0-2.06-1.31-3.19-3.7-3.19h-5.99v10.9h1.86v-4.25h4.02l2.25,4.25h2.11L88.4,69.36z M86.48,68.04
		h-4.02V64.7h4.31c1.05,0,1.65,0.57,1.65,1.57C88.42,67.44,87.76,68.04,86.48,68.04z" fill="#FFFFFF"/>
</g>
<path d="M109.23,72.22c0,0.94-0.74,1.68-1.7,1.68c-0.95,0-1.71-0.74-1.71-1.68c0-0.92,0.76-1.66,1.71-1.66
	C108.49,70.56,109.23,71.3,109.23,72.22z M106.24,72.22c0,0.74,0.55,1.33,1.3,1.33c0.73,0,1.27-0.59,1.27-1.32
	c0-0.74-0.54-1.34-1.28-1.34C106.79,70.9,106.24,71.49,106.24,72.22z M107.26,73.1h-0.38v-1.66c0.15-0.03,0.36-0.05,0.64-0.05
	c0.31,0,0.46,0.05,0.58,0.12c0.09,0.07,0.16,0.2,0.16,0.36c0,0.18-0.14,0.32-0.34,0.38v0.02c0.16,0.06,0.25,0.18,0.3,0.41
	c0.05,0.25,0.08,0.35,0.12,0.42h-0.42c-0.05-0.06-0.08-0.21-0.13-0.41c-0.03-0.18-0.13-0.26-0.34-0.26h-0.18V73.1z M107.27,72.15
	h0.18c0.21,0,0.38-0.07,0.38-0.24c0-0.15-0.11-0.25-0.35-0.25c-0.1,0-0.17,0.01-0.21,0.02V72.15z" fill="#FFFFFF"/>
</svg>

