<svg width="690" height="230" fill="none" xmlns="http://www.w3.org/2000/svg"><path d="M308.155 166.055c17.989 0 33.729-8.853 42.161-22.766l-19.394-11.243c-4.216 7.589-12.789 12.086-22.767 12.086-17.426 0-28.669-11.665-28.669-29.232s11.243-29.231 28.669-29.231c9.978 0 18.41 4.497 22.767 12.086l19.394-11.243c-8.573-13.913-24.313-22.767-42.161-22.767C278.502 63.745 257 85.95 257 114.9c0 28.951 21.502 51.155 51.155 51.155ZM408.339 93.82v6.605c-4.638-5.34-11.524-8.573-20.94-8.573-18.41 0-33.588 16.162-33.588 37.102 0 20.94 15.178 37.101 33.588 37.101 9.416 0 16.302-3.232 20.94-8.572v6.605h21.08V93.82h-21.08Zm-16.724 52.279c-9.697 0-16.724-6.605-16.724-17.145s7.027-17.145 16.724-17.145 16.724 6.605 16.724 17.145-7.027 17.145-16.724 17.145ZM475.1 166.055c13.772 0 25.718-7.167 31.761-18.129l-18.41-10.54c-2.249 4.919-7.449 7.87-13.632 7.87-9.135 0-15.881-6.605-15.881-16.302s6.746-16.302 15.881-16.302c6.183 0 11.243 2.951 13.632 7.87l18.41-10.681c-6.043-10.821-18.129-17.989-31.761-17.989-21.362 0-37.242 16.162-37.242 37.102 0 20.94 15.88 37.101 37.242 37.101ZM553.009 91.852c-9.276 0-16.303 3.373-20.097 8.573V65.713h-21.081v98.375h21.081v-38.366c0-9.978 5.34-14.476 13.07-14.476 6.745 0 12.226 4.076 12.226 12.789v40.053h21.081v-43.145c0-18.972-12.086-29.09-26.28-29.09ZM600.792 87.636c6.886 0 12.648-5.762 12.648-12.648s-5.762-12.648-12.648-12.648-12.648 5.762-12.648 12.648 5.762 12.648 12.648 12.648Zm-10.54 76.452h21.08V93.82h-21.08v70.268ZM689.999 164.088l-25.156-35.696 24.313-34.572h-24.172l-12.227 17.426-12.226-17.426h-24.173l24.313 34.572-25.156 35.696h24.172l13.07-18.551 13.07 18.551h24.172Z" fill="white"/><path fill-rule="evenodd" clip-rule="evenodd" d="M161.031 71.179 91.34 22.194 20.495 71.268v6.749l70.846 47.976 69.69-47.887v-6.927ZM6.303 56.167A14.64 14.64 0 0 0 0 68.2v12.922c0 4.857 2.409 9.398 6.43 12.121l76.727 51.958a14.637 14.637 0 0 0 16.499-.056l75.521-51.894a14.64 14.64 0 0 0 6.349-12.065v-13.05a14.64 14.64 0 0 0-6.221-11.977L99.782 3.077a14.64 14.64 0 0 0-16.754-.057L6.303 56.167Z" fill="white"/><path fill-rule="evenodd" clip-rule="evenodd" d="M.262 123.897a14.64 14.64 0 0 0 6.188 9.468l76.726 51.957a14.637 14.637 0 0 0 16.5-.056l75.52-51.894a14.635 14.635 0 0 0 6.118-9.475h-28.518L91.36 166.113l-62.339-42.216H.261Z" fill="white"/><path fill-rule="evenodd" clip-rule="evenodd" d="M.262 165.112a14.641 14.641 0 0 0 6.188 9.467l76.726 51.958a14.64 14.64 0 0 0 16.5-.056l75.52-51.895a14.635 14.635 0 0 0 6.118-9.474h-28.518L91.36 207.327l-62.339-42.215H.261Z" fill="white"/></svg>
