<?xml version="1.0" encoding="UTF-8"?>
<svg xmlns="http://www.w3.org/2000/svg" xmlns:xlink="http://www.w3.org/1999/xlink" version="1.1" width="1292.964" height="448" viewBox="0 0 1292.964 448">
  <g fill="none" fill-rule="none" stroke="none" stroke-width="1" stroke-linecap="butt" stroke-linejoin="miter" stroke-miterlimit="10" stroke-dasharray="" stroke-dashoffset="0" font-family="none" font-weight="none" font-size="none" text-anchor="none" style="mix-blend-mode: normal">
    <rect x="0" y="0" width="1292.964" height="448" fill="none" fill-rule="nonzero"></rect>
    <g fill="#ffffff" fill-rule="nonzero">
      <path d="M229.4,199.6h-0.1c0,0 -0.2,0 -0.2,-0.1h-0.1c-4.9,-2.2 -10.3,-2.5 -16.3,-1.8c3.1,-4.1 6,-8.9 8.1,-14.4c0.7,-1.7 1.2,-3.4 1.2,-3.4c2.3,-7.6 2.7,-15.5 1.4,-23.6v-0.3c-0.5,-1.8 -1,-3.6 -1.6,-5.4c-0.9,-2.6 -3.4,-9.4 -9.6,-15.5c-1.4,-1.4 -2.9,-2.6 -4.5,-3.8l-3.9,-2.8l-3.1,3.7c-4.8,5.8 -10,11.3 -15.4,16.2c-4.8,4.3 -10.7,9.2 -16.5,13.9c-11.5,9.4 -22.5,18.3 -27.3,25.4c-5.8,7.7 -9.3,16.6 -10.2,25.8c-0.2,2.3 -0.6,6.2 0.2,11.2c2.8,16.3 15.3,25.1 19,27.5c1.9,1.2 7.8,4.8 16.3,5.9c0.6,0 1.2,0.1 1.8,0.2c-1,1.6 -2,3.4 -2.9,5.4c-4.7,10.7 -3.9,20.7 -2.9,25.7c2.8,15.3 13.1,24.4 17.4,27.6l4.4,3.3l3,-4.6c6.7,-10 16.9,-17.9 27.7,-26.3c12.8,-9.9 26,-20.3 33.7,-34.8c11.9,-24.8 -1.1,-45.3 -19.4,-54.8zM175.5,170c5.9,-4.8 11.6,-9.6 16.6,-14.1c4.5,-4.1 8.9,-8.6 13,-13.3c4.2,4.4 6,9.1 6.7,11.2c0.5,1.3 0.9,2.7 1.2,4c1.1,6.4 0.7,12.7 -1.1,18.7c0,0 -0.4,1.4 -0.9,2.7c-4.1,10.7 -11.6,18 -17.4,22.4c-3.2,1.3 -11,4.3 -16.8,5.1c-9.7,1.4 -16,-1.1 -19.6,-3.4c-2.7,-1.8 -4.7,-4 -5.7,-6.7c-0.2,-0.4 -0.3,-0.8 -0.4,-1.2v-0.4c0,-0.3 -0.1,-0.6 -0.2,-0.9v-1.9c4.4,-5.8 14.7,-14.1 24.6,-22.2zM155.6,242.6c-2,-1.2 -11.9,-7.6 -14.1,-19.9c-0.6,-3.6 -0.3,-6.4 -0.1,-8.4c0.3,-3.3 1.1,-6.6 2.3,-9.8c0.2,0.3 0.4,0.7 0.7,1v0.1c0.3,0.5 0.7,0.9 1,1.3c0.1,0.1 0.2,0.2 0.3,0.4c0.3,0.3 0.6,0.7 0.9,1l0.3,0.3c0.4,0.4 0.8,0.8 1.3,1.2l0.3,0.3c0.4,0.3 0.7,0.6 1.1,0.9c0.1,0.1 0.3,0.2 0.4,0.3c0.5,0.3 1,0.7 1.5,1l0.9,0.6c0,0 0.2,0 0.3,0.1c0.2,0.1 0.5,0.3 0.7,0.4c0.1,0 0.2,0.1 0.3,0.2c0.3,0.1 0.5,0.3 0.8,0.4c0.1,0 0.2,0.1 0.3,0.2c0.4,0.2 0.7,0.4 1.1,0.5c0.4,0.2 0.8,0.4 1.3,0.5h0.3c0.3,0.1 0.7,0.3 1.1,0.4c0.1,0 0.3,0 0.4,0.1c0.3,0.1 0.7,0.2 1.1,0.3c0.1,0 0.2,0 0.4,0.1c0.4,0.1 0.9,0.2 1.4,0.4h0.1c0.5,0.1 1.1,0.2 1.6,0.3h0.2c0.5,0 0.9,0.2 1.4,0.2h0.5c0.4,0 0.9,0.1 1.3,0.2h0.5c0.5,0 1,0 1.5,0.1h4.9c0.5,0 1,0 1.5,-0.1h0.6c0.7,0 1.4,-0.2 2.1,-0.3h0.1c8,-1.2 17.3,-5 19.3,-5.8h0.6c0,-0.1 0.3,-0.3 0.3,-0.3c10.1,-2.7 19.6,-4.8 25.6,-2.5c0.2,0.2 0.4,0.4 0.6,0.5l0.2,0.2v0.1c0,0.2 -0.2,1.5 -3.5,4.4c-1,0.9 -2.2,1.8 -3.5,2.8c-3,2.2 -6.6,4.7 -10.7,7.4c-1.1,0.7 -2.1,1.4 -3.2,2.2c0,0 -0.1,0 -0.2,0.1c-1.1,0.7 -2.1,1.5 -3.2,2.2c-0.1,0 -0.3,0.2 -0.4,0.3c-1.1,0.7 -2.2,1.5 -3.3,2.3c-0.1,0 -0.3,0.2 -0.4,0.3c-1.1,0.8 -2.3,1.6 -3.4,2.4c-0.1,0 -0.3,0.2 -0.4,0.3c-1.2,0.9 -2.3,1.7 -3.5,2.6c0,0 -0.2,0.1 -0.3,0.2c-2.4,1.8 -4.8,3.8 -7.2,5.8c-0.1,0.1 -0.3,0.2 -0.4,0.4c-1.1,1 -2.2,1.9 -3.3,2.9c-0.1,0.1 -0.2,0.2 -0.4,0.3c-2.1,0.5 -4.3,0.7 -6.4,0.7c-1.3,0 -2.5,0 -3.7,-0.2c-6.2,-0.7 -10.4,-3 -11.8,-3.9zM239.3,249.6c-6.6,12.5 -18.1,21.7 -30.6,31.3c-9.4,7.3 -19.1,14.8 -26.5,24c-3.6,-3.6 -8,-9.5 -9.5,-17.7c-0.6,-3.1 -1.5,-11.2 2.2,-19.6c2.5,-5.6 6.1,-9.2 7.6,-10.7c0.9,-0.9 1.9,-1.8 2.8,-2.7c0.5,-0.5 1.1,-1 1.6,-1.5c0.7,-0.6 1.5,-1.3 2.2,-1.9c0.5,-0.5 1.1,-0.9 1.6,-1.4c0.7,-0.6 1.5,-1.2 2.2,-1.8c0.6,-0.5 1.1,-0.9 1.7,-1.3c0.7,-0.6 1.4,-1.1 2.2,-1.6c0.6,-0.4 1.2,-0.9 1.7,-1.3c0.7,-0.5 1.4,-1 2.1,-1.6c0.6,-0.4 1.1,-0.8 1.7,-1.2c0.7,-0.5 1.5,-1 2.2,-1.5c0.5,-0.4 1.1,-0.7 1.6,-1.1c0.8,-0.6 1.7,-1.1 2.5,-1.7c0.4,-0.3 0.8,-0.5 1.1,-0.8c1.2,-0.8 2.3,-1.6 3.4,-2.3c0.4,-0.3 0.8,-0.5 1.2,-0.8h0.1l0.9,-0.6c0.3,-0.2 0.7,-0.4 1,-0.7c0.2,-0.1 0.4,-0.2 0.5,-0.4c0.5,-0.3 1,-0.6 1.4,-1c0.2,-0.1 0.3,-0.2 0.5,-0.3c0.4,-0.3 0.7,-0.5 1.1,-0.8c0.1,0 0.3,-0.2 0.4,-0.3c0.5,-0.3 0.9,-0.6 1.4,-1c0.1,0 0.2,-0.2 0.4,-0.3c0.4,-0.3 0.7,-0.5 1.1,-0.8c0.1,0 0.2,-0.2 0.4,-0.3c0.4,-0.3 0.9,-0.6 1.3,-1c0,0 0.2,-0.1 0.2,-0.2c0.3,-0.3 0.7,-0.5 1,-0.8c0.1,0 0.2,-0.2 0.3,-0.3l1.2,-0.9h0.1c0.3,-0.3 0.7,-0.6 1,-0.9l0.3,-0.3c0.3,-0.3 0.6,-0.6 0.9,-0.8l0.1,-0.1l0.9,-0.9c0,0 0.2,-0.2 0.2,-0.3c0.2,-0.3 0.5,-0.5 0.7,-0.8l0.2,-0.2c0.3,-0.3 0.5,-0.6 0.7,-0.9c0,0 0.1,-0.2 0.2,-0.3c0.2,-0.2 0.4,-0.5 0.5,-0.7c0,0 0.1,-0.2 0.2,-0.3c0.2,-0.3 0.4,-0.6 0.5,-0.9c10.7,10.3 10.2,23.8 5.3,34.3z"></path>
    </g>
    <g fill="#ffffff">
      <g fill-rule="evenodd">
        <path d="M407.459,198.144c-2.73,0 -5.035,-0.939 -6.912,-2.816c-1.792,-1.877 -2.688,-4.139 -2.688,-6.784c0,-2.645 0.896,-4.907 2.688,-6.784c1.877,-1.877 4.181,-2.816 6.912,-2.816c2.645,0 4.864,0.939 6.656,2.816c1.877,1.877 2.816,4.139 2.816,6.784c0,2.645 -0.939,4.907 -2.816,6.784c-1.792,1.877 -4.01,2.816 -6.656,2.816zM400.291,272v-62.72h14.208v62.72zM551.67,180.352h-14.208v91.648h13.44v-8.064h0.768c1.707,2.731 4.309,5.12 7.808,7.168c3.499,1.963 7.68,2.944 12.544,2.944c4.011,0 7.808,-0.811 11.392,-2.432c3.63723,-1.68338 6.90119,-4.07695 9.6,-7.04c2.731,-2.987 4.907,-6.485 6.528,-10.496c1.621,-4.096 2.432,-8.576 2.432,-13.44c0,-4.864 -0.811,-9.301 -2.432,-13.312c-1.621,-4.096 -3.797,-7.637 -6.528,-10.624c-2.68086,-2.95062 -5.95143,-5.30542 -9.6,-6.912c-3.584,-1.707 -7.381,-2.56 -11.392,-2.56c-4.864,0 -9.045,1.024 -12.544,3.072c-3.499,1.963 -6.101,4.31 -7.808,7.04h-0.768l0.768,-8.704zM576.246,259.456c-2.18508,0.93192 -4.53649,1.41092 -6.912,1.408c-2.475,0 -4.821,-0.469 -7.04,-1.408c-2.20191,-0.9274 -4.20189,-2.27521 -5.888,-3.968c-1.621,-1.707 -2.944,-3.797 -3.968,-6.272c-1.024,-2.56 -1.536,-5.419 -1.536,-8.576c0,-3.157 0.512,-5.973 1.536,-8.448c1.024,-2.56 2.347,-4.693 3.968,-6.4c1.68611,-1.69279 3.68609,-3.0406 5.888,-3.968c2.219,-0.939 4.565,-1.408 7.04,-1.408c2.389,0 4.693,0.47 6.912,1.408c2.304,0.939 4.267,2.304 5.888,4.096c1.707,1.707 3.072,3.797 4.096,6.272c1.024,2.475 1.536,5.29 1.536,8.448c0,3.157 -0.512,5.973 -1.536,8.448c-1.024,2.475 -2.389,4.608 -4.096,6.4c-1.621,1.707 -3.584,3.029 -5.888,3.968zM649.832,264.32h-0.768c-1.877,2.475 -4.309,4.736 -7.296,6.784c-2.987,1.963 -6.784,2.944 -11.392,2.944c-3.328,0 -6.443,-0.555 -9.344,-1.664c-2.901,-1.024 -5.419,-2.475 -7.552,-4.352c-2.10753,-1.92887 -3.84298,-4.22833 -5.12,-6.784c-1.195,-2.645 -1.792,-5.547 -1.792,-8.704c0,-3.328 0.64,-6.315 1.92,-8.96c1.365,-2.645 3.2,-4.864 5.504,-6.656c2.389,-1.792 5.205,-3.157 8.448,-4.096c3.243,-1.024 6.741,-1.536 10.496,-1.536c4.181,0 7.68,0.427 10.496,1.28c2.816,0.768 4.949,1.493 6.4,2.176v-2.432c0,-1.877 -0.427,-3.627 -1.28,-5.248c-0.76205,-1.6142 -1.90398,-3.01965 -3.328,-4.096c-1.365,-1.195 -2.944,-2.09 -4.736,-2.688c-1.79862,-0.68394 -3.70775,-1.03105 -5.632,-1.024c-3.157,0 -6.016,0.64 -8.576,1.92c-2.475,1.195 -4.693,3.157 -6.656,5.888l-11.264,-7.424c2.987,-4.096 6.699,-7.168 11.136,-9.216c4.437,-2.133 9.472,-3.2 15.104,-3.2c9.301,0 16.469,2.304 21.504,6.912c5.12,4.608 7.68,11.179 7.68,19.712v38.144h-13.952zM649.832,245.888c-1.877,-1.11 -3.968,-2.005 -6.272,-2.688c-2.304,-0.683 -4.949,-1.024 -7.936,-1.024c-4.437,0 -7.979,1.024 -10.624,3.072c-2.645,2.048 -3.968,4.523 -3.968,7.424c0,1.536 0.341,2.901 1.024,4.096c0.68716,1.11431 1.5519,2.10876 2.56,2.944c1.11359,0.85522 2.37053,1.50536 3.712,1.92c1.451,0.427 2.901,0.64 4.352,0.64c2.304,0 4.48,-0.427 6.528,-1.28c2.133,-0.939 3.968,-2.133 5.504,-3.584c1.52788,-1.52458 2.78336,-3.29957 3.712,-5.248c0.93758,-1.9573 1.41899,-4.10176 1.408,-6.272zM687.407,272.512c3.072,1.024 6.528,1.536 10.368,1.536c3.84,0 7.339,-0.555 10.496,-1.664c3.243,-1.024 6.016,-2.475 8.32,-4.352c2.304,-1.877 4.053,-4.011 5.248,-6.4c1.27252,-2.35902 1.93268,-4.99968 1.92,-7.68c0,-4.437 -1.536,-8.277 -4.608,-11.52c-2.987,-3.328 -7.723,-5.803 -14.208,-7.424l-9.6,-2.432c-3.072,-0.768 -5.376,-1.621 -6.912,-2.56c-1.451,-1.024 -2.176,-2.39 -2.176,-4.096c0,-1.024 0.299,-1.963 0.896,-2.816c0.66528,-0.8387 1.49232,-1.53515 2.432,-2.048c1.03405,-0.60126 2.15755,-1.03338 3.328,-1.28c1.28,-0.341 2.517,-0.512 3.712,-0.512c2.645,0 5.248,0.64 7.808,1.92c2.56,1.195 4.437,3.157 5.632,5.888l12.544,-5.248c-1.024,-2.475 -2.432,-4.608 -4.224,-6.4c-1.68541,-1.86066 -3.67682,-3.41915 -5.888,-4.608c-2.219,-1.195 -4.651,-2.09 -7.296,-2.688c-2.56,-0.597 -5.248,-0.896 -8.064,-0.896c-3.413,0 -6.656,0.427 -9.728,1.28c-2.987,0.853 -5.632,2.09 -7.936,3.712c-2.304,1.621 -4.139,3.627 -5.504,6.016c-1.28,2.39 -1.92,5.12 -1.92,8.192c0,2.73 0.512,5.12 1.536,7.168c1.09328,1.94362 2.52356,3.67729 4.224,5.12c1.69637,1.35883 3.54312,2.51843 5.504,3.456c2.048,0.853 4.053,1.493 6.016,1.92l8.96,2.176c4.267,1.024 7.168,2.219 8.704,3.584c1.536,1.28 2.304,2.816 2.304,4.608c0,1.792 -1.024,3.413 -3.072,4.864c-2.048,1.451 -4.864,2.176 -8.448,2.176c-3.157,0 -6.101,-0.853 -8.832,-2.56c-2.731,-1.792 -4.821,-4.523 -6.272,-8.192l-12.8,5.376c0.853,2.304 2.048,4.523 3.584,6.656c1.621,2.133 3.584,4.053 5.888,5.76c2.304,1.621 4.992,2.944 8.064,3.968zM778.88,269.184c4.864,-3.243 8.619,-7.296 11.264,-12.16l-12.16,-6.016c-1.707,2.901 -3.883,5.333 -6.528,7.296c-2.645,1.963 -6.016,2.944 -10.112,2.944c-2.048,0 -4.139,-0.341 -6.272,-1.024c-2.14541,-0.6893 -4.14258,-1.77472 -5.888,-3.2c-1.707,-1.451 -3.157,-3.285 -4.352,-5.504c-1.195,-2.219 -1.92,-4.821 -2.176,-7.808h48.256c0,-0.341 0.043,-0.683 0.128,-1.024c0,-0.341 0.043,-0.725 0.128,-1.152v-1.152c0,-4.864 -0.725,-9.344 -2.176,-13.44c-1.365,-4.096 -3.371,-7.595 -6.016,-10.496c-2.645,-2.901 -5.888,-5.163 -9.728,-6.784c-3.755,-1.621 -8.064,-2.432 -12.928,-2.432c-4.779,0 -9.131,0.896 -13.056,2.688c-3.925,1.792 -7.296,4.224 -10.112,7.296c-2.731,2.987 -4.864,6.528 -6.4,10.624c-1.536,4.01 -2.304,8.277 -2.304,12.8c0,4.864 0.811,9.344 2.432,13.44c1.621,4.011 3.883,7.509 6.784,10.496c2.901,2.987 6.315,5.333 10.24,7.04c4.011,1.621 8.363,2.432 13.056,2.432c7.083,0 13.056,-1.621 17.92,-4.864zM775.68,228.608c0.683,1.536 1.109,2.944 1.28,4.224h-33.408c1.024,-4.096 2.987,-7.339 5.888,-9.728c2.987,-2.475 6.528,-3.712 10.624,-3.712c2.987,0 5.504,0.47 7.552,1.408c2.133,0.939 3.84,2.09 5.12,3.456c1.365,1.28 2.347,2.73 2.944,4.352zM528.259,257.024c-2.645,4.864 -6.4,8.917 -11.264,12.16c-4.864,3.243 -10.837,4.864 -17.92,4.864c-4.693,0 -9.045,-0.811 -13.056,-2.432c-3.925,-1.707 -7.339,-4.053 -10.24,-7.04c-2.901,-2.987 -5.163,-6.485 -6.784,-10.496c-1.621,-4.096 -2.432,-8.576 -2.432,-13.44c0,-4.523 0.768,-8.79 2.304,-12.8c1.536,-4.096 3.669,-7.637 6.4,-10.624c2.816,-3.072 6.187,-5.504 10.112,-7.296c3.925,-1.792 8.277,-2.688 13.056,-2.688c4.864,0 9.173,0.81 12.928,2.432c3.84,1.621 7.083,3.883 9.728,6.784c2.645,2.901 4.651,6.4 6.016,10.496c1.451,4.096 2.176,8.576 2.176,13.44v1.152c-0.07999,0.37893 -0.12286,0.76475 -0.128,1.152c-0.08436,0.33482 -0.12735,0.67872 -0.128,1.024h-48.256c0.256,2.987 0.981,5.589 2.176,7.808c1.195,2.219 2.645,4.053 4.352,5.504c1.74542,1.42528 3.74259,2.5107 5.888,3.2c2.133,0.683 4.224,1.024 6.272,1.024c4.096,0 7.467,-0.981 10.112,-2.944c2.645,-1.963 4.821,-4.395 6.528,-7.296zM515.075,232.832c-0.171,-1.28 -0.597,-2.688 -1.28,-4.224c-0.597,-1.621 -1.579,-3.072 -2.944,-4.352c-1.28,-1.365 -2.987,-2.517 -5.12,-3.456c-2.048,-0.939 -4.565,-1.408 -7.552,-1.408c-4.096,0 -7.637,1.237 -10.624,3.712c-2.901,2.39 -4.864,5.632 -5.888,9.728zM440.772,209.28h-13.44v62.72h14.208v-32.64c0,-2.475 0.384,-4.821 1.152,-7.04c0.853,-2.219 2.005,-4.139 3.456,-5.76c1.451,-1.621 3.115,-2.901 4.992,-3.84c1.963,-0.939 4.096,-1.408 6.4,-1.408c1.621,0 2.987,0.128 4.096,0.384c1.195,0.17 2.261,0.47 3.2,0.896l4.096,-13.184c-1.195,-0.597 -2.517,-1.067 -3.968,-1.408c-1.451,-0.341 -3.2,-0.512 -5.248,-0.512c-1.707,0 -3.499,0.299 -5.376,0.896c-1.792,0.512 -3.541,1.28 -5.248,2.304c-1.621,0.939 -3.115,2.133 -4.48,3.584c-1.25158,1.32382 -2.28814,2.83546 -3.072,4.48h-0.768zM391.808,180.352h-55.808v91.648h14.464v-38.016h37.248v-13.568h-37.248v-26.24h41.344z"></path>
      </g>
      <path d="" fill-rule="nonzero"></path>
      <path d="M854.174,274.05v0c-6.65333,0 -13.16,-2.17667 -19.52,-6.53c-6.35333,-4.35333 -10.51333,-10.45333 -12.48,-18.3v0l10.75,-4.36c1.28,5.04 3.90667,9.28667 7.88,12.74c3.96667,3.45333 8.42333,5.18 13.37,5.18v0c5.12,0 9.49333,-1.34333 13.12,-4.03c3.62667,-2.68667 5.44,-6.33333 5.44,-10.94v0c0,-5.12 -1.81333,-9.06667 -5.44,-11.84c-3.62667,-2.77333 -9.36333,-5.35667 -17.21,-7.75v0c-8.10667,-2.56 -14.25333,-5.86667 -18.44,-9.92c-4.18,-4.05333 -6.27,-9.23667 -6.27,-15.55v0c0,-6.56667 2.60333,-12.28333 7.81,-17.15c5.20667,-4.86667 11.99,-7.3 20.35,-7.3v0c7.76667,0 14.08333,1.94333 18.95,5.83c4.86,3.88 8.01667,8.12333 9.47,12.73v0l-10.75,4.48c-0.77333,-2.9 -2.67333,-5.58667 -5.7,-8.06c-3.02667,-2.47333 -6.93,-3.71 -11.71,-3.71v0c-4.52667,0 -8.39,1.25667 -11.59,3.77c-3.2,2.52 -4.8,5.65667 -4.8,9.41v0c0,3.41333 1.47333,6.29333 4.42,8.64c2.94667,2.34667 7.27667,4.46 12.99,6.34v0c4.52667,1.44667 8.30333,2.85333 11.33,4.22c3.02667,1.36667 6.1,3.18 9.22,5.44c3.11333,2.26 5.46,5.07667 7.04,8.45c1.57333,3.37333 2.36,7.27667 2.36,11.71c0,4.44 -0.91667,8.41 -2.75,11.91c-1.83333,3.49333 -4.26333,6.26667 -7.29,8.32c-3.03333,2.04667 -6.3,3.60333 -9.8,4.67c-3.49333,1.06667 -7.07667,1.6 -10.75,1.6z" fill-rule="nonzero"></path>
      <path d="M920.354,273.02v0c-6.57333,0 -11.58667,-1.74667 -15.04,-5.24c-3.46,-3.5 -5.19,-8.45 -5.19,-14.85v0v-32.9h-11v-10.75h11v-19.2h11.78v19.2h15.36v10.75h-15.36v32c0,6.82667 2.81667,10.24 8.45,10.24v0c2.13333,0 3.92333,-0.34 5.37,-1.02v0l4.1,10.11c-2.56,1.10667 -5.71667,1.66 -9.47,1.66z" fill-rule="nonzero"></path>
      <path d="M992.284,209.28v62.72h-11.26v-8.7h-0.51c-1.79333,2.98667 -4.52333,5.52333 -8.19,7.61c-3.67333,2.09333 -7.55667,3.14 -11.65,3.14v0c-7.85333,0 -13.80667,-2.39 -17.86,-7.17c-4.05333,-4.78 -6.08,-11.18 -6.08,-19.2v0v-38.4h11.78v36.48c0,11.69333 5.16333,17.54 15.49,17.54v0c4.86,0 8.82667,-1.96333 11.9,-5.89c3.07333,-3.92667 4.61,-8.45 4.61,-13.57v0v-34.56z" fill-rule="nonzero"></path>
      <path d="M1031.584,274.05v0c-8.10667,0 -15.10333,-3.2 -20.99,-9.6c-5.88667,-6.4 -8.83,-14.33667 -8.83,-23.81c0,-9.47333 2.94333,-17.41 8.83,-23.81c5.88667,-6.4 12.88333,-9.6 20.99,-9.6v0c4.78,0 9.06667,1.02333 12.86,3.07c3.8,2.05333 6.64,4.61333 8.52,7.68v0h0.51l-0.51,-8.7v-28.93h11.77v91.65h-11.26v-8.7h-0.51c-1.88,3.06667 -4.72,5.62667 -8.52,7.68c-3.79333,2.04667 -8.08,3.07 -12.86,3.07zM1033.504,263.3v0c5.54667,0 10.26,-2.05 14.14,-6.15c3.88667,-4.09333 5.83,-9.59667 5.83,-16.51c0,-6.91333 -1.94333,-12.41667 -5.83,-16.51c-3.88,-4.1 -8.59333,-6.15 -14.14,-6.15v0c-5.46,0 -10.15333,2.07 -14.08,6.21c-3.92667,4.14 -5.89,9.62333 -5.89,16.45c0,6.82667 1.96333,12.31 5.89,16.45c3.92667,4.14 8.62,6.21 14.08,6.21z" fill-rule="nonzero"></path>
      <path d="M1090.594,193.54c-1.62,1.62 -3.58333,2.43 -5.89,2.43c-2.30667,0 -4.27,-0.81 -5.89,-2.43c-1.62,-1.62667 -2.43,-3.59 -2.43,-5.89c0,-2.30667 0.81,-4.27 2.43,-5.89c1.62,-1.62 3.58333,-2.43 5.89,-2.43c2.30667,0 4.27,0.81 5.89,2.43c1.62,1.62 2.43,3.58333 2.43,5.89c0,2.3 -0.81,4.26333 -2.43,5.89zM1090.594,209.28v62.72h-11.78v-62.72z" fill-rule="nonzero"></path>
      <path d="M1109.534,216.77c6.06,-6.36 13.78333,-9.54 23.17,-9.54c9.38667,0 17.11,3.18 23.17,9.54c6.06,6.35333 9.09,14.31 9.09,23.87c0,9.56 -3.03,17.51667 -9.09,23.87c-6.06,6.36 -13.78333,9.54 -23.17,9.54c-9.38667,0 -17.11,-3.18 -23.17,-9.54c-6.06,-6.35333 -9.09,-14.31 -9.09,-23.87c0,-9.56 3.03,-17.51667 9.09,-23.87zM1118.304,257.09c4.05333,4.14 8.85333,6.21 14.4,6.21c5.54667,0 10.34667,-2.07 14.4,-6.21c4.05333,-4.14 6.08,-9.62333 6.08,-16.45c0,-6.82667 -2.02667,-12.31 -6.08,-16.45c-4.05333,-4.14 -8.85333,-6.21 -14.4,-6.21c-5.54667,0 -10.34667,2.07 -14.4,6.21c-4.05333,4.14 -6.08,9.62333 -6.08,16.45c0,6.82667 2.02667,12.31 6.08,16.45z" fill-rule="nonzero"></path>
    </g>
  </g>
</svg>

