<?xml version="1.0" encoding="UTF-8"?>
<svg xmlns="http://www.w3.org/2000/svg" id="Layer_2" data-name="Layer 2" viewBox="0 0 311.84 53">
  <defs>
    <style>
      .cls-1, .cls-2, .cls-3 {
        stroke-width: 0px;
      }

      .cls-1 {
        fill: white;
      }

      .cls-2 {
        fill: transparent;
      }

      .cls-3 {
        fill: white;
      }
    </style>
  </defs>
  <g id="Layer_1-2" data-name="Layer 1">
    <g>
      <path class="cls-1" d="m143.3,11.28c-2.1-.98-4.47-1.47-7.12-1.47-3.67,0-6.78,1-9.34,3-2.56,2-4.09,4.59-4.57,7.77l4.11.78c.31-2.39,1.34-4.29,3.08-5.68,1.74-1.39,3.99-2.09,6.73-2.09s5.12.73,6.89,2.19c1.77,1.46,2.65,3.43,2.65,5.91v.97l-9.54,1.06c-4.95.52-8.64,1.61-11.07,3.26-2.43,1.65-3.64,4.05-3.64,7.18,0,1.92.5,3.59,1.49,5.03.99,1.44,2.39,2.56,4.17,3.36,1.79.8,3.83,1.21,6.13,1.21,2.96,0,5.62-.66,7.98-1.99,2.08-1.17,3.57-2.69,4.47-4.55v6.02h4.17v-21.67c0-2.31-.57-4.35-1.72-6.14-1.15-1.78-2.77-3.17-4.87-4.15Zm.96,23.21c-.97,1.79-2.38,3.14-4.21,4.08-1.83.94-4.01,1.4-6.53,1.4-2.25,0-4.1-.53-5.53-1.6-1.44-1.07-2.15-2.47-2.15-4.21,0-2.09.89-3.66,2.68-4.7,1.79-1.04,4.36-1.76,7.72-2.15l9.48-1.12v1.83c0,2.52-.49,4.68-1.46,6.46Z"></path>
      <path class="cls-1" d="m187.23,12.85c-2.28-2.02-5.27-3.04-8.98-3.04-2.56,0-4.86.64-6.89,1.93-2.03,1.28-3.69,3.21-4.97,5.78v-7.18h-4.17v32.9h4.17v-14.04c0-3.13.46-5.88,1.39-8.23.93-2.35,2.24-4.17,3.94-5.45,1.7-1.28,3.68-1.93,5.93-1.93,2.74,0,4.89.71,6.46,2.12,1.57,1.41,2.4,3.41,2.48,5.97l4.17-.72c-.09-3.39-1.27-6.1-3.54-8.13Z"></path>
      <path class="cls-1" d="m224.34,11.25c-1.79-.96-3.81-1.44-6.06-1.44-2.56,0-4.87.66-6.92,1.99-2.05,1.33-3.72,3.12-5,5.39v-6.85h-4.17v32.9h4.17v-14.43c0-3.09.47-5.78,1.42-8.06.95-2.28,2.27-4.05,3.98-5.29,1.7-1.24,3.68-1.86,5.93-1.86,2.52,0,4.52.76,6,2.29,1.48,1.52,2.22,3.5,2.22,5.94v21.41h4.17v-21.94c0-2.26-.51-4.26-1.52-6.01-1.02-1.74-2.42-3.09-4.21-4.05Z"></path>
      <polygon class="cls-1" points="258.03 10.33 257.17 10.33 253.86 10.33 241.27 10.33 241.27 14.12 253.86 14.12 253.86 39.45 240.21 39.45 240.21 43.24 253.86 43.24 258.03 43.24 271.62 43.24 271.62 39.45 258.03 39.45 258.03 10.33"></polygon>
      <polygon class="cls-1" points="311.84 43.24 298.12 26.12 310.71 10.33 305.61 10.33 295.54 22.9 285.46 10.33 280.3 10.33 292.95 26.12 279.24 43.24 284.47 43.24 295.54 29.36 306.67 43.24 311.84 43.24"></polygon>
      <path class="cls-1" d="m110.59,25.2h-.12s0-.37,0-.37h-17.3v3.66h13.64c-.77,7.07-5.66,11.85-12.43,11.85-8.66,0-12.54-6.95-12.54-13.84,0-9.56,6.3-13.84,12.54-13.84,5.55,0,9.63,2.76,11.5,7.77l3.49-1.26c-2.41-6.46-7.88-10.16-14.99-10.16-9.57,0-16.25,7.2-16.25,17.5s6.68,17.5,16.25,17.5,16.25-7.36,16.25-17.5c0-.26-.01-.52-.02-.77,0-.18-.01-.35-.02-.53Z"></path>
    </g>
    <rect class="cls-2" x="1.5" y="1.5" width="50.75" height="50"></rect>
    <path class="cls-3" d="m0,0v53h53.75V0H0Zm3,50V3h47.75v22h-25.37v13.66h3v-10.66h22.37v22H3Z"></path>
  </g>
</svg>
