<?xml version="1.0" encoding="UTF-8" standalone="no"?>
<svg xmlns:inkscape="http://www.inkscape.org/namespaces/inkscape" xmlns:sodipodi="http://sodipodi.sourceforge.net/DTD/sodipodi-0.dtd" xmlns="http://www.w3.org/2000/svg" xmlns:svg="http://www.w3.org/2000/svg" xmlns:rdf="http://www.w3.org/1999/02/22-rdf-syntax-ns#" xmlns:cc="http://creativecommons.org/ns#" xmlns:dc="http://purl.org/dc/elements/1.1/" id="svg93" version="1.1" viewBox="0 0 677.97258 215.72946" height="215.72946mm" width="677.9726mm" sodipodi:docname="Logo_Text_White.svg" inkscape:version="1.2.2 (b0a8486541, 2022-12-01)">
  <defs id="defs87"></defs>
  <metadata id="metadata90"></metadata>
  <g id="g342" transform="matrix(0.37439992,0,0,0.37440066,-0.4853307,-0.77676762)" inkscape:label="Logo">
    <path style="fill:none;fill-opacity:1;fill-rule:evenodd;stroke:#ffffff;stroke-width:9.91659;stroke-linecap:butt;stroke-linejoin:round;stroke-miterlimit:4;stroke-dasharray:none;stroke-opacity:1" d="M 6.254588,7.0329875 H 494.70372 V 469.90972 c 0,0 0.33653,26.83195 -21.81167,52.90019 -22.47262,26.4501 -63.45212,29.75637 -63.45212,29.75637 H 279.2309 c 0.0981,0 -15.20207,0 -28.42127,20.49882 -13.21919,-20.49882 -31.72606,-20.49882 -31.54505,-20.49882 H 90.196455 c 0,0 -38.335656,-4.62877 -60.147322,-27.11136 C 8.2374668,502.97234 6.254588,469.90972 6.254588,469.90972 Z" id="path1350" sodipodi:nodetypes="ccczccccczcc"></path>
    <path style="fill:#ffffff;fill-opacity:1;fill-rule:evenodd;stroke:#ffffff;stroke-width:9.91659;stroke-linecap:butt;stroke-linejoin:round;stroke-miterlimit:4;stroke-dasharray:none;stroke-opacity:1" d="M 49.216961,212.68251 72.350546,225.2463 C 75.655344,329.06294 151.6657,373.36686 151.6657,373.36686 l -34.3699,5.95127 c 0,0 -75.304923,-64.72601 -68.078839,-166.63562 z" id="path2234" sodipodi:nodetypes="ccccc"></path>
    <path style="fill:#ffffff;fill-opacity:1;fill-rule:evenodd;stroke:#ffffff;stroke-width:9.91659;stroke-linecap:butt;stroke-linejoin:round;stroke-miterlimit:4;stroke-dasharray:none;stroke-opacity:1" d="m 451.74135,213.01313 -23.13359,12.5638 c -3.3048,103.81664 -79.31515,148.12055 -79.31515,148.12055 l 34.3699,5.95128 c 0,0 75.30492,-64.72601 68.07884,-166.63563 z" id="path3984" sodipodi:nodetypes="ccccc"></path>
    <path style="fill:#ffffff;fill-opacity:1;fill-rule:evenodd;stroke:#ffffff;stroke-width:9.91659;stroke-linecap:butt;stroke-linejoin:round;stroke-miterlimit:4;stroke-dasharray:none;stroke-opacity:1" d="m 74.333425,243.76137 c 19.167828,11.90255 74.027475,29.75636 74.027475,29.75636 v 25.78885 c 0,0 52.21146,15.20881 102.44873,15.20881 50.89389,0 102.44874,-15.20881 102.44874,-15.20881 v -25.78885 c 0,0 56.18156,-19.17632 73.36651,-30.41761 -0.66096,63.48024 -70.06171,130.92799 -70.06171,130.92799 L 248.82675,424.2833 149.68282,374.68936 c 0,0 -68.739799,-48.93268 -75.349395,-130.92799 z" id="path5746" sodipodi:nodetypes="ccczccccccc"></path>
    <path sodipodi:nodetypes="czzzzzzzzzcczccccczcc" id="path2229" d="m 6.254588,382.62439 c 0,0 5.276664,-10.58004 25.116464,-10.58004 19.828788,0 28.916982,17.02725 56.181565,17.19257 27.264583,0.16531 25.942663,-16.366 52.876763,-16.53132 26.93411,-0.16531 29.24746,16.53132 56.18157,16.53132 26.9341,0 26.60362,-16.69663 54.19868,-16.53132 27.59507,0.16532 27.42983,16.53132 54.85965,16.53132 27.42982,0 25.2817,-16.366 52.21581,-16.53132 26.9341,-0.16531 27.09934,16.69663 54.19868,16.53132 27.09934,-0.16532 33.69829,-17.19257 54.19869,-17.19257 20.48974,0 28.42126,10.58004 28.42126,10.58004 v 87.28533 c 0,0 0.33653,26.83195 -21.81167,52.90019 -22.47262,26.4501 -63.45212,29.75637 -63.45212,29.75637 H 279.2309 c 0.0981,0 -15.20207,0 -28.42127,20.49882 -13.21919,-20.49882 -31.72606,-20.49882 -31.54505,-20.49882 H 90.196455 c 0,0 -38.335656,-4.62877 -60.147322,-27.11136 C 8.2374668,502.97234 6.254588,469.90972 6.254588,469.90972 Z" style="fill:#ffffff;fill-opacity:1;fill-rule:evenodd;stroke:#ffffff;stroke-width:9.91659;stroke-linecap:butt;stroke-linejoin:round;stroke-miterlimit:4;stroke-dasharray:none;stroke-opacity:1"></path>
    <path style="display:inline;fill:none;fill-opacity:0.75;fill-rule:evenodd;stroke:#ffffff;stroke-width:9.91659;stroke-linecap:butt;stroke-linejoin:miter;stroke-miterlimit:4;stroke-dasharray:none;stroke-opacity:1" d="m 79.621102,272.19523 c 22.472628,12.5638 68.739798,27.11135 68.739798,27.11135" id="path7494" sodipodi:nodetypes="cc"></path>
    <path sodipodi:nodetypes="cc" id="path8369" d="m 421.99817,272.19523 c -22.47263,12.5638 -68.7398,27.11135 -68.7398,27.11135" style="display:inline;fill:none;fill-opacity:0.75;fill-rule:evenodd;stroke:#ffffff;stroke-width:9.91659;stroke-linecap:butt;stroke-linejoin:miter;stroke-miterlimit:4;stroke-dasharray:none;stroke-opacity:1"></path>
    <path style="display:inline;fill:none;fill-opacity:0.75;fill-rule:evenodd;stroke:#ffffff;stroke-width:9.91659;stroke-linecap:butt;stroke-linejoin:miter;stroke-miterlimit:4;stroke-dasharray:none;stroke-opacity:1" d="m 92.179334,304.5966 c 0,0 74.688436,36.36889 158.630296,36.36889 83.94187,0 159.29126,-36.36889 159.29126,-36.36889" id="path8371" sodipodi:nodetypes="czc"></path>
    <path sodipodi:nodetypes="czc" id="path9246" d="m 113.33004,338.98173 c 0,0 51.55485,27.7726 135.49671,27.7726 83.94187,0 139.46248,-28.43385 139.46248,-28.43385" style="display:inline;fill:none;fill-opacity:0.75;fill-rule:evenodd;stroke:#ffffff;stroke-width:9.91659;stroke-linecap:butt;stroke-linejoin:miter;stroke-miterlimit:4;stroke-dasharray:none;stroke-opacity:1"></path>
    <g aria-label="λ" transform="scale(1.0440448,0.95781331)" style="font-style:normal;font-variant:normal;font-weight:normal;font-stretch:normal;font-size:252.467px;line-height:125%;font-family:'Anonymous Pro';-inkscape-font-specification:'Anonymous Pro, Normal';font-variant-ligatures:normal;font-variant-caps:normal;font-variant-numeric:normal;font-feature-settings:normal;text-align:center;letter-spacing:0px;word-spacing:0px;writing-mode:lr-tb;text-anchor:middle;fill:#ffffff;fill-opacity:1;stroke:#ffffff;stroke-width:5.95;stroke-linecap:butt;stroke-linejoin:miter;stroke-miterlimit:4;stroke-dasharray:none;stroke-opacity:1" id="text4539" inkscape:label="lambda">
      <path d="m 201.9979,257.87518 40.14232,-103.76411 h 1.00987 l 33.83063,101.74437 h 21.96467 L 252.49138,126.08719 c -10.85609,-35.092969 -23.227,-53.018155 -47.46387,-53.018155 -11.10856,0 -17.42025,2.01974 -23.227,4.544414 l 5.04935,17.167783 c 4.54441,-2.019739 9.08883,-4.039478 15.90545,-4.039478 13.8857,0 22.21713,11.865966 29.03375,34.335566 l 1.5148,5.30182 -53.27062,125.4763 z" style="font-style:normal;font-variant:normal;font-weight:normal;font-stretch:normal;font-size:252.467px;font-family:'Source Sans Pro';-inkscape-font-specification:'Source Sans Pro, Normal';font-variant-ligatures:normal;font-variant-caps:normal;font-variant-numeric:normal;font-feature-settings:normal;text-align:center;writing-mode:lr-tb;text-anchor:middle;fill:#ffffff;fill-opacity:1;stroke:#ffffff;stroke-width:5.95;stroke-miterlimit:4;stroke-dasharray:none;stroke-opacity:1" id="path824"></path>
    </g>
  </g>
  <g inkscape:groupmode="layer" id="layer1" inkscape:label="text" style="display:inline">
    <g aria-label="Network &amp; IT-Solutions" id="text246" style="font-size:53.7297px;line-height:125%;font-family:Arial;-inkscape-font-specification:Arial;letter-spacing:0px;word-spacing:0px;stroke-width:6.71619px;fill:#ffffff" inkscape:label="network it solutions">
      <path d="m 251.21989,211.52618 -16.31957,-25.97279 0.10822,2.09947 0.10822,3.61455 v 20.25877 h -3.67948 V 181.0298 h 4.80496 l 16.49273,26.14594 q -0.25973,-4.24222 -0.25973,-6.14689 V 181.0298 h 3.72277 v 30.49638 z" style="font-size:44.3269px" id="path223"></path>
      <path d="m 265.7863,200.63925 q 0,4.02579 1.66658,6.21183 1.66659,2.18604 4.8699,2.18604 2.53235,0 4.04743,-1.01726 1.53672,-1.01727 2.07782,-2.57564 l 3.41975,0.97398 q -2.09946,5.54086 -9.545,5.54086 -5.19456,0 -7.9217,-3.09509 -2.7055,-3.09509 -2.7055,-9.19869 0,-5.8006 2.7055,-8.89569 2.72714,-3.09509 7.77019,-3.09509 10.32419,0 10.32419,12.4453 v 0.51945 z m 12.68338,-2.98687 q -0.32466,-3.70112 -1.88303,-5.38935 -1.55837,-1.70988 -4.48031,-1.70988 -2.83536,0 -4.50195,1.90468 -1.64494,1.88302 -1.77481,5.19455 z" style="font-size:44.3269px" id="path225"></path>
      <path d="m 296.45584,211.35303 q -1.92632,0.51946 -3.93921,0.51946 -4.6751,0 -4.6751,-5.30278 v -15.62696 h -2.7055 v -2.83537 h 2.85701 l 1.14713,-5.23784 h 2.59728 v 5.23784 h 4.3288 v 2.83537 h -4.3288 v 14.78284 q 0,1.68824 0.5411,2.38084 0.56274,0.67097 1.92631,0.67097 0.77919,0 2.25098,-0.30302 z" style="font-size:44.3269px" id="path227"></path>
      <path d="m 322.19054,211.52618 h -4.52359 l -4.09072,-16.55765 -0.77918,-3.65784 q -0.1948,0.97398 -0.60603,2.81372 -0.41124,1.8181 -4.41538,17.40177 h -4.50195 l -6.55813,-23.4188 h 3.85263 l 3.96085,15.90834 q 0.15151,0.51945 0.9307,4.28551 l 0.36794,-1.60166 4.89155,-18.59219 h 4.17729 l 4.09071,16.08149 0.99563,4.11236 0.67096,-3.00852 4.43702,-17.18533 h 3.80934 z" style="font-size:44.3269px" id="path229"></path>
      <path d="m 351.58309,199.79514 q 0,6.14689 -2.7055,9.15541 -2.7055,3.00851 -7.85677,3.00851 -5.12963,0 -7.74855,-3.11673 -2.61892,-3.13838 -2.61892,-9.04719 0,-12.12064 10.49733,-12.12064 5.36771,0 7.90006,2.96523 2.53235,2.94358 2.53235,9.15541 z m -4.09072,0 q 0,-4.84826 -1.45014,-7.0343 -1.42851,-2.20769 -4.82662,-2.20769 -3.41975,0 -4.95647,2.25098 -1.51508,2.22933 -1.51508,6.99101 0,4.63181 1.49344,6.96937 1.51508,2.3159 4.74003,2.3159 3.50633,0 4.99976,-2.25097 1.51508,-2.25098 1.51508,-7.0343 z" style="font-size:44.3269px" id="path231"></path>
      <path d="m 356.51792,211.52618 v -17.96451 q 0,-2.46742 -0.12986,-5.45429 h 3.67948 q 0.17315,3.9825 0.17315,4.78332 h 0.0866 q 0.9307,-3.00851 2.14276,-4.11235 1.21206,-1.10385 3.41975,-1.10385 0.77918,0 1.58001,0.21644 v 3.57126 q -0.77918,-0.21644 -2.07782,-0.21644 -2.42413,0 -3.70112,2.09947 -1.277,2.07782 -1.277,5.97374 v 12.20721 z" style="font-size:44.3269px" id="path233"></path>
      <path d="m 385.86717,211.52618 -7.9217,-10.69213 -2.85701,2.3592 v 8.33293 h -3.89592 V 179.4065 h 3.89592 v 20.06398 l 10.2809,-11.3631 h 4.56688 l -9.50171,10.06446 9.99953,13.35434 z" style="font-size:44.3269px" id="path235"></path>
      <path d="m 428.50584,211.78591 q -3.83099,0 -6.44991,-2.74879 -1.6233,1.40686 -3.70112,2.1644 -2.07783,0.75754 -4.35045,0.75754 -4.65345,0 -7.20745,-2.22933 -2.55399,-2.25097 -2.55399,-6.23347 0,-6.01703 7.42389,-9.28527 -0.71425,-1.34193 -1.2337,-3.18167 -0.51946,-1.83974 -0.51946,-3.35482 0,-3.2466 1.9696,-5.0214 1.99125,-1.79646 5.62744,-1.79646 3.26824,0 5.25949,1.64495 2.01289,1.64494 2.01289,4.50195 0,2.55399 -1.99124,4.54524 -1.96961,1.99124 -6.86115,3.9392 2.40248,4.43702 6.34169,8.91733 2.44577,-3.5929 3.70112,-8.87404 l 3.13838,0.93069 q -1.36357,5.38936 -4.58852,10.15104 2.07782,2.12111 4.50195,2.12111 1.53672,0 2.53234,-0.34631 v 2.92194 q -1.21206,0.47617 -3.0518,0.47617 z m -7.01265,-24.78237 q 0,-1.55837 -1.0822,-2.53235 -1.0822,-0.99562 -2.94359,-0.99562 -2.07782,0 -3.16002,1.12549 -1.0822,1.10384 -1.0822,3.07344 0,2.46742 1.40686,5.28114 2.83536,-1.14713 4.15565,-1.99125 1.34192,-0.84412 2.01289,-1.8181 0.69261,-0.97398 0.69261,-2.14275 z m -1.60166,19.8259 q -4.28551,-5.0647 -6.90443,-9.89131 -5.10799,2.1644 -5.10799,6.51484 0,2.61893 1.66659,4.15565 1.68823,1.51508 4.58853,1.51508 1.53672,0 3.07345,-0.58439 1.53672,-0.60603 2.68385,-1.70987 z" style="font-size:44.3269px" id="path237"></path>
      <path d="M 448.6564,211.52618 V 181.0298 h 4.13401 v 30.49638 z" style="font-size:44.3269px" id="path239"></path>
      <path d="m 472.46479,184.40626 v 27.11992 h -4.11235 v -27.11992 h -10.4757 v -3.37646 h 25.06375 v 3.37646 z" style="font-size:44.3269px" id="path241"></path>
      <path d="m 483.4816,201.48337 v -3.46304 h 10.82199 v 3.46304 z" style="font-size:44.3269px" id="path243"></path>
      <path d="m 523.80435,203.10667 q 0,4.22058 -3.31153,6.53649 -3.28988,2.3159 -9.28527,2.3159 -11.14666,0 -12.92147,-7.74855 l 4.00414,-0.80082 q 0.69261,2.74878 2.94359,4.04742 2.25097,1.277 6.12525,1.277 4.00414,0 6.16854,-1.36357 2.18604,-1.38522 2.18604,-4.04743 0,-1.49344 -0.69261,-2.42413 -0.67096,-0.93069 -1.90467,-1.53672 -1.23371,-0.60603 -2.94358,-1.01727 -1.70988,-0.41123 -3.7877,-0.8874 -3.61455,-0.80083 -5.49758,-1.60166 -1.86138,-0.80083 -2.94358,-1.77481 -1.0822,-0.99562 -1.66659,-2.3159 -0.56274,-1.32029 -0.56274,-3.03016 0,-3.91756 2.98687,-6.03868 3.00851,-2.12111 8.59267,-2.12111 5.19455,0 7.94334,1.60166 2.74879,1.58001 3.85263,5.411 l -4.06907,0.71425 q -0.67096,-2.42413 -2.55399,-3.50633 -1.88303,-1.10384 -5.2162,-1.10384 -3.65784,0 -5.58415,1.21206 -1.92632,1.21206 -1.92632,3.61455 0,1.40686 0.7359,2.33755 0.75754,0.90905 2.1644,1.55837 1.40686,0.62767 5.60579,1.55836 1.40686,0.32466 2.79208,0.67097 1.40686,0.32466 2.68385,0.80083 1.277,0.45452 2.38084,1.0822 1.12549,0.62767 1.94796,1.53672 0.82247,0.90905 1.277,2.14276 0.47616,1.2337 0.47616,2.90029 z" style="font-size:44.3269px" id="path245"></path>
      <path d="m 548.63002,199.79514 q 0,6.14689 -2.7055,9.15541 -2.70549,3.00851 -7.85677,3.00851 -5.12962,0 -7.74855,-3.11673 -2.61892,-3.13838 -2.61892,-9.04719 0,-12.12064 10.49734,-12.12064 5.36771,0 7.90006,2.96523 2.53234,2.94358 2.53234,9.15541 z m -4.09071,0 q 0,-4.84826 -1.45015,-7.0343 -1.4285,-2.20769 -4.82661,-2.20769 -3.41975,0 -4.95647,2.25098 -1.51508,2.22933 -1.51508,6.99101 0,4.63181 1.49343,6.96937 1.51508,2.3159 4.74004,2.3159 3.50632,0 4.99976,-2.25097 1.51508,-2.25098 1.51508,-7.0343 z" style="font-size:44.3269px" id="path247"></path>
      <path d="M 553.47827,211.52618 V 179.4065 h 3.89591 v 32.11968 z" style="font-size:44.3269px" id="path249"></path>
      <path d="m 567.13563,188.10738 v 14.84778 q 0,2.31591 0.45452,3.59291 0.45453,1.27699 1.45015,1.83973 0.99563,0.56275 2.92194,0.56275 2.81372,0 4.43702,-1.92632 1.6233,-1.92631 1.6233,-5.34606 v -13.57079 h 3.89592 v 18.41904 q 0,4.09072 0.12986,4.99976 h -3.67948 q -0.0216,-0.10822 -0.0433,-0.58438 -0.0216,-0.47617 -0.0649,-1.0822 -0.0216,-0.62768 -0.0649,-2.33755 h -0.0649 q -1.34193,2.42412 -3.11674,3.44139 -1.75316,0.99562 -4.37208,0.99562 -3.85263,0 -5.64908,-1.90467 -1.77481,-1.92631 -1.77481,-6.34169 v -15.60532 z" style="font-size:44.3269px" id="path251"></path>
      <path d="m 596.98269,211.35303 q -1.92632,0.51946 -3.93921,0.51946 -4.6751,0 -4.6751,-5.30278 v -15.62696 h -2.7055 v -2.83537 h 2.857 l 1.14714,-5.23784 h 2.59727 v 5.23784 h 4.3288 v 2.83537 h -4.3288 v 14.78284 q 0,1.68824 0.5411,2.38084 0.56275,0.67097 1.92632,0.67097 0.77918,0 2.25098,-0.30302 z" style="font-size:44.3269px" id="path253"></path>
      <path d="m 600.27257,183.12926 v -3.72276 h 3.89592 v 3.72276 z m 0,28.39692 v -23.4188 h 3.89592 v 23.4188 z" style="font-size:44.3269px" id="path255"></path>
      <path d="m 629.94649,199.79514 q 0,6.14689 -2.7055,9.15541 -2.7055,3.00851 -7.85677,3.00851 -5.12962,0 -7.74855,-3.11673 -2.61892,-3.13838 -2.61892,-9.04719 0,-12.12064 10.49734,-12.12064 5.36771,0 7.90005,2.96523 2.53235,2.94358 2.53235,9.15541 z m -4.09071,0 q 0,-4.84826 -1.45015,-7.0343 -1.42851,-2.20769 -4.82661,-2.20769 -3.41975,0 -4.95648,2.25098 -1.51508,2.22933 -1.51508,6.99101 0,4.63181 1.49344,6.96937 1.51508,2.3159 4.74003,2.3159 3.50633,0 4.99977,-2.25097 1.51508,-2.25098 1.51508,-7.0343 z" style="font-size:44.3269px" id="path257"></path>
      <path d="M 649.66419,211.52618 V 196.6784 q 0,-2.3159 -0.45453,-3.5929 -0.45452,-1.27699 -1.45014,-1.83974 -0.99563,-0.56274 -2.92194,-0.56274 -2.81372,0 -4.43702,1.92631 -1.6233,1.92632 -1.6233,5.34607 v 13.57078 h -3.89592 v -18.41904 q 0,-4.09071 -0.12986,-4.99976 h 3.67947 q 0.0216,0.10822 0.0433,0.58439 0.0217,0.47617 0.0433,1.10384 0.0433,0.60604 0.0866,2.31591 h 0.0649 q 1.34193,-2.42413 3.09509,-3.41975 1.77481,-1.01727 4.39373,-1.01727 3.85263,0 5.62744,1.92632 1.79645,1.90467 1.79645,6.32004 v 15.60532 z" style="font-size:44.3269px" id="path259"></path>
      <path d="m 677.02218,205.05463 q 0,3.31153 -2.5107,5.10798 -2.48906,1.79645 -6.99101,1.79645 -4.37209,0 -6.75293,-1.4285 -2.35919,-1.45015 -3.07344,-4.50195 l 3.44139,-0.67096 q 0.49781,1.88302 2.05618,2.77043 1.55837,0.86576 4.3288,0.86576 2.96523,0 4.3288,-0.90905 1.38521,-0.90905 1.38521,-2.72714 0,-1.38522 -0.95233,-2.25098 -0.95234,-0.86576 -3.07345,-1.4285 l -2.79207,-0.7359 q -3.35482,-0.86576 -4.78333,-1.68823 -1.40686,-0.84412 -2.20768,-2.03454 -0.80083,-1.19042 -0.80083,-2.92194 0,-3.20331 2.27262,-4.86989 2.29426,-1.68824 6.66635,-1.68824 3.87427,0 6.14689,1.36358 2.29427,1.36357 2.9003,4.37208 l -3.50633,0.43288 q -0.32466,-1.55836 -1.75316,-2.38084 -1.40686,-0.84411 -3.7877,-0.84411 -2.64057,0 -3.89592,0.80083 -1.25535,0.80082 -1.25535,2.42412 0,0.99563 0.51945,1.64495 0.51946,0.64932 1.53673,1.10384 1.01726,0.45452 4.28551,1.25535 3.09509,0.77919 4.45866,1.45015 1.36357,0.64932 2.14276,1.45015 0.80082,0.80082 1.2337,1.86138 0.43288,1.03891 0.43288,2.38084 z" style="font-size:44.3269px" id="path261"></path>
    </g>
    <g aria-label="SYSTEMS" id="text90" style="font-size:90.6356px;line-height:125%;font-family:Arial;-inkscape-font-specification:Arial;letter-spacing:0px;word-spacing:0px;fill:#ffffff;stroke-width:4.85546px" inkscape:label="systems">
      <path d="m 285.55131,141.00952 q 0,9.08922 -7.13154,14.07663 -7.08493,4.98742 -19.99628,4.98742 -24.00486,0 -27.82699,-16.68687 l 8.62311,-1.72462 q 1.49156,5.91964 6.33914,8.71632 4.84759,2.75007 13.19102,2.75007 8.62311,0 13.28424,-2.93651 4.70775,-2.98313 4.70775,-8.71633 0,-3.21618 -1.49156,-5.22047 -1.44495,-2.00429 -4.1018,-3.30941 -2.65685,-1.30512 -6.33915,-2.19074 -3.6823,-0.88561 -8.15699,-1.91106 -7.7841,-1.72462 -11.83929,-3.44924 -4.00858,-1.72463 -6.33915,-3.82214 -2.33057,-2.14412 -3.58907,-4.98741 -1.2119,-2.8433 -1.2119,-6.5256 0,-8.43666 6.43237,-13.004571 6.47898,-4.567915 18.50472,-4.567915 11.18673,0 17.10637,3.449242 5.91965,3.402631 8.29683,11.652844 l -8.76294,1.53818 q -1.44495,-5.22048 -5.50014,-7.55105 -4.05519,-2.377178 -11.23335,-2.377178 -7.87732,0 -12.02573,2.610238 -4.14841,2.61024 -4.14841,7.7841 0,3.02974 1.58478,5.03403 1.6314,1.95768 4.66114,3.35602 3.02974,1.35173 12.07235,3.35602 3.02974,0.69917 6.01287,1.44495 3.02973,0.69917 5.77981,1.72462 2.75007,0.97884 5.12725,2.33057 2.42379,1.35173 4.19502,3.30941 1.77123,1.95767 2.75007,4.61452 1.02545,2.65685 1.02545,6.24593 z" style="font-size:95.4601px" id="path264"></path>
      <path d="m 326.14982,131.9203 v 27.22104 h -8.85616 V 131.9203 L 292.03029,93.465913 h 9.78839 l 19.99628,31.276237 19.90306,-31.276237 h 9.78839 z" style="font-size:95.4601px" id="path266"></path>
      <path d="m 412.89359,141.00952 q 0,9.08922 -7.13154,14.07663 -7.08493,4.98742 -19.99628,4.98742 -24.00486,0 -27.82699,-16.68687 l 8.6231,-1.72462 q 1.49157,5.91964 6.33915,8.71632 4.84758,2.75007 13.19102,2.75007 8.6231,0 13.28424,-2.93651 4.70775,-2.98313 4.70775,-8.71633 0,-3.21618 -1.49156,-5.22047 -1.44496,-2.00429 -4.1018,-3.30941 -2.65685,-1.30512 -6.33915,-2.19074 -3.6823,-0.88561 -8.15699,-1.91106 -7.7841,-1.72462 -11.83929,-3.44924 -4.00858,-1.72463 -6.33915,-3.82214 -2.33057,-2.14412 -3.58908,-4.98741 -1.21189,-2.8433 -1.21189,-6.5256 0,-8.43666 6.43237,-13.004571 6.47898,-4.567915 18.50472,-4.567915 11.18673,0 17.10637,3.449242 5.91964,3.402631 8.29682,11.652844 l -8.76293,1.53818 q -1.44496,-5.22048 -5.50015,-7.55105 -4.05519,-2.377178 -11.23334,-2.377178 -7.87732,0 -12.02573,2.610238 -4.14842,2.61024 -4.14842,7.7841 0,3.02974 1.58479,5.03403 1.6314,1.95768 4.66114,3.35602 3.02974,1.35173 12.07235,3.35602 3.02973,0.69917 6.01286,1.44495 3.02974,0.69917 5.77981,1.72462 2.75007,0.97884 5.12726,2.33057 2.42379,1.35173 4.19502,3.30941 1.77123,1.95767 2.75007,4.61452 1.02545,2.65685 1.02545,6.24593 z" style="font-size:95.4601px" id="path268"></path>
      <path d="m 450.83525,100.73729 v 58.40405 h -8.85617 v -58.40405 h -22.5599 v -7.271377 h 53.97597 v 7.271377 z" style="font-size:95.4601px" id="path270"></path>
      <path d="M 483.4166,159.14134 V 93.465913 h 49.82756 v 7.271377 h -40.92478 v 21.06834 h 38.1281 v 7.17815 h -38.1281 v 22.88619 h 42.83585 v 7.27137 z" style="font-size:95.4601px" id="path272"></path>
      <path d="m 602.92817,159.14134 v -43.81469 q 0,-7.27138 0.41951,-13.98341 -2.28396,8.34343 -4.1018,13.05118 l -16.96655,44.74692 h -6.24592 l -17.1996,-44.74692 -2.61023,-7.92393 -1.53818,-5.12725 0.13983,5.17386 0.18645,8.80955 v 43.81469 h -7.92393 V 93.465913 h 11.69945 l 17.47927,45.539317 q 0.93222,2.75007 1.77123,5.91964 0.88562,3.12296 1.16528,4.52131 q 0.37289,-1.86446 1.53818,-5.63998 1.21189,-3.82213 1.6314,-4.80097 l 17.15298,-45.539317 h 11.41979 v 65.675427 z" style="font-size:95.4601px" id="path274"></path>
      <path d="m 678.06572,141.00952 q 0,9.08922 -7.13154,14.07663 -7.08493,4.98742 -19.99628,4.98742 -24.00486,0 -27.827,-16.68687 l 8.62311,-1.72462 q 1.49156,5.91964 6.33915,8.71632 4.84758,2.75007 13.19102,2.75007 8.6231,0 13.28424,-2.93651 4.70775,-2.98313 4.70775,-8.71633 0,-3.21618 -1.49157,-5.22047 -1.44495,-2.00429 -4.1018,-3.30941 -2.65685,-1.30512 -6.33915,-2.19074 -3.68229,-0.88561 -8.15699,-1.91106 -7.7841,-1.72462 -11.83929,-3.44924 -4.00857,-1.72463 -6.33914,-3.82214 -2.33057,-2.14412 -3.58908,-4.98741 -1.21189,-2.8433 -1.21189,-6.5256 0,-8.43666 6.43237,-13.004571 6.47898,-4.567915 18.50471,-4.567915 11.18673,0 17.10638,3.449242 5.91964,3.402631 8.29682,11.652844 l -8.76294,1.53818 q -1.44495,-5.22048 -5.50014,-7.55105 -4.05519,-2.377178 -11.23334,-2.377178 -7.87732,0 -12.02574,2.610238 -4.14841,2.61024 -4.14841,7.7841 0,3.02974 1.58479,5.03403 1.6314,1.95768 4.66114,3.35602 3.02974,1.35173 12.07234,3.35602 3.02974,0.69917 6.01287,1.44495 3.02974,0.69917 5.77981,1.72462 2.75007,0.97884 5.12725,2.33057 2.42379,1.35173 4.19503,3.30941 1.77123,1.95767 2.75007,4.61452 1.02545,2.65685 1.02545,6.24593 z" style="font-size:95.4601px" id="path276"></path>
    </g>
    <g aria-label="HELSINKI" id="text80" style="font-size:103.583px;line-height:125%;font-family:Arial;-inkscape-font-specification:Arial;letter-spacing:0px;word-spacing:0px;fill:#ffffff;stroke-width:4.85546px" inkscape:label="helsinki">
      <path d="M 274.26864,75.181343 V 46.13024 H 244.73655 V 75.181343 H 230.54769 V 7.4114687 h 14.18886 V 34.394364 h 29.53209 V 7.4114687 H 288.4575 V 75.181343 Z" style="font-weight:bold;font-size:98.5044px;-inkscape-font-specification:'Arial Bold'" id="path279"></path>
      <path d="M 301.68441,75.181343 V 7.4114687 h 53.29243 V 18.377779 h -39.10356 v 17.02664 h 36.16959 v 10.96631 h -36.16959 v 17.844304 h 41.07557 v 10.96631 z" style="font-weight:bold;font-size:98.5044px;-inkscape-font-specification:'Arial Bold'" id="path281"></path>
      <path d="M 367.38608,75.181343 V 7.4114687 h 14.18887 V 64.215033 h 36.36198 v 10.96631 z" style="font-weight:bold;font-size:98.5044px;-inkscape-font-specification:'Arial Bold'" id="path283"></path>
      <path d="m 482.82093,55.653615 q 0,9.956255 -7.40707,15.247019 -7.35898,5.242666 -21.64404,5.242666 -13.03452,0 -20.44159,-4.617394 -7.40706,-4.617394 -9.52337,-13.996475 l 13.70789,-2.260599 q 1.39484,5.38696 5.43506,7.83995 4.04022,2.404893 11.2068,2.404893 14.86223,0 14.86223,-9.042397 0,-2.885871 -1.73152,-4.761687 -1.68343,-1.875816 -4.80979,-3.12636 -3.07826,-1.250545 -11.88017,-3.030165 -7.59946,-1.779621 -10.58152,-2.837773 -2.98207,-1.106251 -5.38696,-2.549187 -2.4049,-1.491033 -4.08832,-3.559241 -1.68343,-2.068207 -2.64538,-4.857883 -0.91386,-2.789675 -0.91386,-6.397014 0,-9.18669 6.87799,-14.044573 6.92609,-4.9059812 20.1049,-4.9059812 12.60164,0 18.90246,3.9440242 6.34892,3.944024 8.17663,13.034518 l -13.75598,1.875816 q -1.05815,-4.376905 -4.32881,-6.589406 -3.22255,-2.212501 -9.28288,-2.212501 -12.89023,0 -12.89023,8.080439 0,2.645382 1.34674,4.328807 1.39484,1.683425 4.08832,2.885871 2.69348,1.154349 10.91821,2.933969 9.76387,2.068208 13.94838,3.847828 4.23261,1.731523 6.6856,4.088318 2.45299,2.308697 3.75163,5.579351 1.29865,3.222556 1.29865,7.455167 z" style="font-weight:bold;font-size:98.5044px;-inkscape-font-specification:'Arial Bold'" id="path285"></path>
      <path d="M 493.25817,75.181343 V 7.4114687 h 14.18886 V 75.181343 Z" style="font-weight:bold;font-size:98.5044px;-inkscape-font-specification:'Arial Bold'" id="path287"></path>
      <path d="m 561.8938,75.181343 -29.53208,-52.18617 q 0.86576,7.599461 0.86576,12.216855 V 75.181343 H 520.62584 V 7.4114687 h 16.20898 L 566.79978,60.03052 q -0.86576,-7.262776 -0.86576,-13.22691 V 7.4114687 h 12.60164 V 75.181343 Z" style="font-weight:bold;font-size:98.5044px;-inkscape-font-specification:'Arial Bold'" id="path289"></path>
      <path d="m 638.65797,75.181343 -24.33751,-31.119311 -8.36903,6.397015 V 75.181343 H 591.76256 V 7.4114687 h 14.18887 V 38.145997 L 636.49357,7.4114687 h 16.54566 l -28.95491,28.6663203 31.3117,39.103554 z" style="font-weight:bold;font-size:98.5044px;-inkscape-font-specification:'Arial Bold'" id="path291"></path>
      <path d="M 662.89928,75.181343 V 7.4114687 h 14.18887 V 75.181343 Z" style="font-weight:bold;font-size:98.5044px;-inkscape-font-specification:'Arial Bold'" id="path293"></path>
    </g>
  </g>
</svg>