<?xml version="1.0" encoding="UTF-8" standalone="no"?>
<!-- Created with Inkscape (http://www.inkscape.org/) -->

<svg
   width="356.09842mm"
   height="105.18917mm"
   viewBox="0 0 356.09842 105.18917"
   version="1.1"
   id="svg1"
   xml:space="preserve"
   inkscape:version="1.4.1 (93de688d07, 2025-03-30)"
   sodipodi:docname="hercules-ci.svg"
   inkscape:export-filename="hercules-ci.svg"
   inkscape:export-xdpi="96"
   inkscape:export-ydpi="96"
   xmlns:inkscape="http://www.inkscape.org/namespaces/inkscape"
   xmlns:sodipodi="http://sodipodi.sourceforge.net/DTD/sodipodi-0.dtd"
   xmlns="http://www.w3.org/2000/svg"
   xmlns:svg="http://www.w3.org/2000/svg"><sodipodi:namedview
     id="namedview1"
     pagecolor="#ffffff"
     bordercolor="#000000"
     borderopacity="0.25"
     inkscape:showpageshadow="2"
     inkscape:pageopacity="0.0"
     inkscape:pagecheckerboard="true"
     inkscape:deskcolor="#d1d1d1"
     inkscape:document-units="mm"
     inkscape:zoom="0.45254834"
     inkscape:cx="35.355339"
     inkscape:cy="261.85048"
     inkscape:window-width="1404"
     inkscape:window-height="1124"
     inkscape:window-x="2880"
     inkscape:window-y="312"
     inkscape:window-maximized="1"
     inkscape:current-layer="layer1" /><defs
     id="defs1" /><g
     inkscape:label="Layer 1"
     inkscape:groupmode="layer"
     id="layer1"
     transform="translate(-55.73727,-53.993584)"><g
       id="Artboard"
       transform="matrix(0.21855426,0,0,0.21855426,-25.783469,-12.009803)"
       fill-rule="nonzero"
       style="fill:#ffffff;fill-opacity:1;stroke:none;stroke-width:1"><path
         d="m 459.98394,496.15318 63.22169,-24.16899 c 30.57913,-11.69008 67.24798,-7.8749 92.76399,9.65155 L 654.35221,508 459.98394,577.77955 v 166.77993 c 0,21.39329 -19.47202,38.73598 -43.49197,38.73598 C 392.47202,783.29546 373,765.95277 373,744.55948 V 403.73598 C 373,382.34269 392.47202,365 416.49197,365 c 24.01995,0 43.49197,17.34269 43.49197,38.73598 z"
         id="Combined-Shape-Copy"
         fill="#8de2bf"
         style="fill:#ffffff;fill-opacity:1" /><path
         d="m 654.36827,589.14228 -63.22169,24.169 c -30.57913,11.69007 -67.24798,7.8749 -92.76399,-9.65156 L 460,577.29546 654.36827,507.51592 V 340.73598 c 0,-21.39329 19.47202,-38.73598 43.49197,-38.73598 24.01995,0 43.49197,17.34269 43.49197,38.73598 v 340.8235 c 0,21.39329 -19.47202,38.73598 -43.49197,38.73598 -24.01995,0 -43.49197,-17.34269 -43.49197,-38.73598 z"
         id="Combined-Shape-Copy-2"
         fill="#4bb789"
         style="fill:#ffffff;fill-opacity:1" /></g><path
       style="font-weight:300;font-size:50.8px;font-family:'Fira Sans';-inkscape-font-specification:'Fira Sans, Light';fill:#ffffff;stroke-width:0.265"
       d="m 189.63643,125.18097 h 3.048 v -34.798 h -3.048 v 15.1892 h -16.6624 v -15.1892 h -3.048 v 34.798 h 3.048 v -17.018 h 16.6624 z m 32.9184,-14.2748 c 0,-7.8232 -3.4544,-12.8524 -10.3632,-12.8524 -6.5024,0 -10.6172,5.588 -10.6172,14.0716 0,8.5344 4.2672,13.6144 11.2776,13.6144 3.5052,0 6.1976,-1.2192 8.6868,-3.2512 l -1.3716,-1.8796 c -2.3368,1.7272 -4.2672,2.6416 -7.1628,2.6416 -4.572,0 -7.9248,-2.9972 -8.2804,-10.2108 h 17.7292 c 0.0508,-0.508 0.1016,-1.3208 0.1016,-2.1336 z m -2.8956,-0.1524 h -14.986 c 0.3556,-7.1628 3.5052,-10.2616 7.62,-10.2616 5.0292,0 7.366,3.7084 7.366,9.4996 z m 21.4376,-12.7 c -3.6576,0 -6.096,2.1336 -7.4676,6.5024 l -0.254,-5.9436 h -2.54 v 26.5684 h 2.9464 v -16.256 c 1.4224,-5.4356 3.4036,-8.0772 7.0612,-8.0772 0.9144,0 1.6256,0.1016 2.3368,0.3048 l 0.5588,-2.794 c -0.6604,-0.2032 -1.5748,-0.3048 -2.6416,-0.3048 z m 16.91637,0 c -6.8072,0 -11.2268,5.4864 -11.2268,14.0208 0,8.636 4.4704,13.6652 11.2776,13.6652 2.9972,0 5.5372,-1.0668 7.62,-2.8448 l -1.4224,-1.9812 c -1.8796,1.4224 -3.6576,2.2352 -6.1468,2.2352 -4.826,0 -8.1788,-3.5052 -8.1788,-11.1252 0,-7.6708 3.4036,-11.43 8.2296,-11.43 2.4384,0 4.1656,0.7112 5.8928,2.0828 l 1.4732,-1.9304 c -2.2352,-1.9304 -4.5212,-2.6924 -7.5184,-2.6924 z m 32.76599,0.5588 h -2.9464 v 19.2532 c -1.8288,3.1496 -4.2672,5.4356 -7.7216,5.4356 -3.5052,0 -5.2832,-1.778 -5.2832,-5.9944 v -18.6944 h -2.9464 v 18.9992 c 0,5.2324 2.794,8.128 7.5184,8.128 4.1148,0 6.858,-2.1336 8.6868,-5.2832 l 0.2032,4.7244 h 2.4892 z m 15.0876,27.1272 c 1.1176,0 2.1844,-0.3048 2.9972,-0.7112 l -0.762,-2.1844 c -0.5588,0.254 -1.2192,0.3556 -1.8796,0.3556 -1.4224,0 -2.1336,-0.8636 -2.1336,-2.5908 v -33.1724 l -2.9464,0.3556 v 32.9184 c 0,3.4036 1.9304,5.0292 4.7244,5.0292 z m 28.95609,-14.8336 c 0,-7.8232 -3.4544,-12.8524 -10.3632,-12.8524 -6.5024,0 -10.6172,5.588 -10.6172,14.0716 0,8.5344 4.2672,13.6144 11.2776,13.6144 3.5052,0 6.1976,-1.2192 8.6868,-3.2512 l -1.3716,-1.8796 c -2.3368,1.7272 -4.2672,2.6416 -7.1628,2.6416 -4.572,0 -7.9248,-2.9972 -8.2804,-10.2108 h 17.7292 c 0.0508,-0.508 0.1016,-1.3208 0.1016,-2.1336 z m -2.8956,-0.1524 h -14.986 c 0.3556,-7.1628 3.5052,-10.2616 7.62,-10.2616 5.0292,0 7.366,3.7084 7.366,9.4996 z m 17.57679,-12.7 c -5.0292,0 -8.8392,2.8956 -8.8392,6.9596 0,3.7084 2.286,5.7912 7.9756,7.2644 5.4864,1.524 6.9596,2.6924 6.9596,5.8928 0,3.2512 -2.6924,5.08 -6.5024,5.08 -3.302,0 -5.588,-1.016 -7.874,-2.794 l -1.6256,1.8796 c 2.286,1.9304 5.1816,3.4036 9.4996,3.4036 5.334,0 9.6012,-2.794 9.6012,-7.7216 0,-4.5212 -2.6924,-6.5024 -8.5344,-8.0264 -4.7244,-1.27 -6.4516,-2.3876 -6.4516,-5.0292 0,-2.7432 2.3876,-4.4704 5.8928,-4.4704 2.6924,0 4.6736,0.8128 7.0104,2.4384 l 1.3716,-1.9304 c -2.4892,-1.9304 -5.08,-2.9464 -8.4836,-2.9464 z m 43.12918,-8.2296 c -7.7216,0 -14.0716,6.0452 -14.0716,17.9324 0,11.7348 5.9944,17.9832 14.0208,17.9832 4.318,0 7.3152,-1.6256 9.398,-3.6068 l -1.5748,-1.9812 c -2.032,1.6256 -4.1148,2.8956 -7.7216,2.8956 -6.096,0 -10.922,-4.7244 -10.922,-15.2908 0,-11.0744 5.0292,-15.3416 11.0744,-15.3416 2.8448,0 4.7752,0.8128 7.112,2.6416 l 1.6256,-2.032 c -2.4892,-2.032 -4.826,-3.2004 -8.9408,-3.2004 z m 19.20235,0.5588 h -3.048 v 34.798 h 3.048 z"
       id="text1"
       aria-label="Hercules CI" /></g></svg>
