<svg
  id="a"
  xmlns="http://www.w3.org/2000/svg"
  width="100%"
  height="100%"
  viewBox="0 0 1626.9 266.27"
>
  <path
    d="m120.7,172.77c.27,15.2,4.07,31.72,5.54,48.53,2.73,31.04-13.22,39.82-35.69,42.72-9.49,1.23-19.27,1.17-28.74-2.12-18.48-6.4-27.38-19.3-26.71-38.79.48-13.96,4.24-27.12,9.86-39.67,17.25-38.55,27.04-79.14,34.03-120.57,2.13-12.63,2.91-25.55,9.48-37.23,8.87-15.8,26.37-24.06,48.02-21.73,15.14,1.64,27.22,12.45,31.51,29.6,5.01,20.04,9.14,40.31,13.78,60.45,1.34,5.79,3.31,11.41,6.59,16.44,1.64,2.53,3.72,4.53,7.09,3.96,3.05-.52,4.2-2.75,5.17-5.48.79-2.22.91-4.39.98-6.65.45-14.27-1.58-28.4-3-42.53-1.22-12.07-.4-23.91,2.01-35.59,2.47-12.01,14.13-20.74,26.94-21.44.41-.02.83,0,1.24-.01,22.13-.52,28.69,6.44,26.3,28.5-2.26,20.85-5.39,41.62-7.14,62.51-1.9,22.61-2.48,45.27.32,67.95,2.37,19.17,3.96,38.47,5.32,57.76,1.76,24.75-12.6,38.47-32.68,41.71-18.03,2.91-35.21,1.51-50.56-9.55-9.62-6.93-13.57-17.15-15.86-28.2-3.7-17.83-2.8-36.1-4.95-54.1-1.29-10.79-2.21-21.63-6.15-31.9-.29-.76-.5-1.55-.83-2.28-1.91-4.23-4.15-8.42-9.51-8.3-5.47.12-7.52,4.74-9.02,8.93-3.42,9.61-3.57,19.76-3.81,29.83-.05,1.85.22,3.71.47,7.27h0ZM980.76,21.73c-3.47,8.83-2.61,18.09-1.47,27.12,2.81,22.06,9.16,43.5,11.41,65.71,2.43,23.9,1.95,47.55-2.28,71.16-2.73,15.19-8.33,29.69-10.35,45.07-1.84,13.95,3.48,23.34,16.66,28.37,8.95,3.42,18.3,4.48,27.58,3.28,31.41-4.07,51.34-26.99,35.49-60.89-6.74-14.4-11.66-29.45-14.44-45.12-1.6-9.04-2.57-18.19-1.7-27.33.41-4.33,1.18-9.58,6.16-10.96,5.16-1.43,7.28,3.42,9.49,6.9,4.98,7.83,8.76,16.29,12.53,24.77,10.52,23.73,17.57,48.8,28.02,72.56,3.32,7.54,6.95,14.91,11.64,21.72,10.87,15.81,26.51,20.7,44.55,18.37,20.6-2.66,35.49-17.1,38.81-34.92,1.84-9.93,1-19.55-.78-29.11-4.48-24.12-9.9-48.07-14.22-72.21-3.39-18.94-3.55-38,.29-57.07,2.22-10.98,5.92-21.6,7.38-32.76,2.07-15.79-5.26-28.23-20.38-33.02-12-3.8-24.31-4.24-36.56-1.51-12.96,2.89-17.09,8.72-16.77,22.13.13,5.16,1.22,10.12,3.19,14.82,6.14,14.65,11,29.74,14.26,45.25,1.92,9.15,4.98,18.32.91,28.06-4.57,10.94-12.14,13.27-20.03,4.69-12.5-13.59-19.96-30.32-27.58-46.83-6.63-14.38-12.16-29.27-21.26-42.43-11.31-16.37-26.64-24.99-53.37-25.17-10.64-.15-22.04,6.21-27.22,19.37h.03Zm-208.6,142.31c1.08,6.22,1.69,12.55,2.88,18.8,8.15,42.54,37.73,77.56,84.27,82.65,22.25,2.43,43.38-.63,62.11-12.95,33.69-22.17,46.84-55.93,50.95-94.36,1.83-17.09.26-33.99-2.51-50.85-4.03-24.64-11.1-48.13-25.81-68.77-21.52-30.18-51.07-40.68-86.85-34.7-24.16,4.03-41.15,19.26-54.94,38.27-22.31,30.79-30.54,65.99-31.1,102.86.65,6.7-.06,12.82,1,19.02h0Zm78.22-97.62c10.35-19.3,33.83-15.59,44.36-2.42,8.27,10.35,11.65,22.78,12.74,35.6,1.42,16.56,1.98,33.16-4.39,49.18-8.75,22.05-31.53,24.22-44.57,15.95-10.4-6.61-14.11-17.43-16.24-28.76-1.47-7.87-1.93-15.91-1.42-23.15-.36-16.73,1.78-32.01,9.5-46.41h.01Zm-408.62,194.16c9.95-3.31,16.4-9.5,18.31-20.26,1.51-8.57-.27-16.85-1.15-25.2-1.09-10.39-3.17-20.69-4.24-31.08-.56-5.38-.06-11.6,6.78-12.69,6.99-1.12,7.66,5.35,9.26,10.02,4.06,11.87,5.43,24.38,8.71,36.44,3.58,13.21,8.4,26.03,19.43,34.8,18.21,14.46,38.59,13.44,58.82,5.38,35.98-14.35,36.44-58.65,8.99-77.5-11.63-8-24.16-13.79-37.06-19.02-10.14-4.12-19.88-9.04-28.04-16.26-10.79-9.54-18.23-22.62-9.92-39.44,3.09-6.25,6.54-12.23,10.78-17.75,11.12-14.49,22.39-28.87,27.2-47.02,3.52-13.29-.61-27.26-10.98-34.18-10.85-7.23-22.91-7.73-34.87-3.51-8.89,3.14-14.65,9.67-15.87,19.48-.72,5.7-1.48,11.4-2.16,17.11-.83,6.92-1.51,13.87-4.73,20.25-1.45,2.9-3.19,5.63-6.66,5.59-3.21-.04-4.03-3.19-4.94-5.59-2.96-7.8-5.75-15.68-8.58-23.53C432.07,12.22,416.78-1.18,391.04.08c-16.72.82-27.3,14.32-23.82,30.73,2.67,12.61,8.98,23.24,16.69,33.18,8.07,10.42,16.58,20.5,24.61,30.94,12.51,16.3,15.19,33.53,4.54,52-3.5,6.06-7.39,11.81-11.6,17.39-11.6,15.42-23.89,30.53-26.95,50.45-3.03,19.74,3.41,40.38,26.95,46.67,6.24,1.66,12.6,1.87,18.99,1.66,7.24.33,14.37-.21,21.32-2.53h0Zm134.92-91.13c4.64,26.69,14.04,50.88,35.13,69.33,33.66,29.43,87.83,33.56,124.86,8.54,22.89-15.47,35.3-39.89,23.2-67.64-12.19-27.95-34.74-33.9-57.87-14.87-19.46,16.01-44.64,4.57-49.58-14.74-7.56-29.55-1.68-56.82,17.39-80.72,5.41-6.78,12.94-11.36,22.26-10.09,9.25,1.26,14,10.52,12.03,22.41-1.99,11.99,3.95,21.39,15.63,24.77,15.4,4.46,32.52-5.08,39.53-22.04,11.9-28.79-2.88-64.85-31.88-76.51-31.52-12.67-62.22-8.98-89.48,10.25-43.28,30.51-60.9,74.88-63.18,126.33.5,8.43.53,16.75,1.95,24.96h.03ZM304.14,3.9c-12.92.68-20.41,8.4-20.74,21.23-.09,3.51-.24,7.03,0,10.53,1.15,16.44,2.63,32.87,3.62,49.31,1.92,31.96-3.06,63-12.87,93.37-4.66,14.42-8.59,29.01-9.88,44.26-1.53,18.11,5.83,32.2,22.52,39.17,15.86,6.64,32.05,5.69,47.73-1.25,9.64-4.27,15.14-12.34,18.19-22.06,2.7-8.62,2.57-17.62,1.04-26.35-4.77-27.27-11.37-54.25-12.9-82.03-1.12-20.43-.5-40.85,1.22-61.22,1.28-15.17,3.96-30.22,3.36-45.54-.37-9.67-4.5-15.22-13.65-18.22-5.59-1.84-11.41-1.29-17.14-1.25-3.51,0-7.02-.16-10.52.02v.02ZM1.75,54.22c4.58,13.52,20.62,23.92,39.65,19.94,17.28-3.62,30.11-18.37,28.61-34.58-1.59-17.05-15.5-28.91-33.89-28.86-24.85.06-41.77,21.59-34.37,43.51h0Zm59.3,63.55c.06-11.48-9.12-20.43-20.85-20.31-12.71.11-22.56,10.01-22.51,22.58.05,11.73,9.04,19.91,21.78,19.82,11.92-.09,21.52-9.91,21.58-22.09ZM1607.28,16.73c-12.3-.06-21.32,8.99-21.32,21.42s8.63,20.77,20.4,20.77,20.5-9.19,20.54-21.47c.04-11.94-8.21-20.66-19.62-20.72ZM565.01,110.56c.05-12.92-8.9-22.29-21.06-22.06-12.88.23-23.85,11.04-23.69,23.34.18,13.15,9.12,21.93,22.27,21.89,14.13-.05,22.43-8.61,22.48-23.16Zm1020.5,17.91c10.26.12,17.49-7.01,17.55-17.26.05-9.93-7.08-17.35-16.8-17.46-10.12-.11-17.28,6.71-17.39,16.57-.11,10.33,6.96,18.04,16.64,18.16h0Zm-279,134.8c18.46,0,36.93.22,55.39-.07,14.51-.22,25.2-8.57,27.47-20.78,2.1-11.2,2.19-22.55,1.23-33.82-1.68-20.03-11.68-28.02-31.32-25.57-11.65,1.46-23.25,3.44-34.89,4.88-3.27.4-7.29.98-9.1-2.99-1.61-3.5.47-6.65,2.25-9.49,4.74-7.6,11.47-13.42,17.99-19.42,18.47-17.01,36.15-34.6,47.16-57.76,18.53-38.96-.18-81.49-41.44-93.58-19.43-5.69-39-5.84-58.87-1.77-18.89,3.86-35.04,12.15-47.47,26.99-11.6,13.86-16.82,29.6-12.41,47.69,3,12.37,14.99,23.5,26.29,24.61,15.53,1.52,24.27-3.71,31.33-18.52,2.31-4.83,4.63-9.71,7.61-14.13,5.68-8.39,19.01-11.32,27.65-6.53,7.66,4.23,10.52,14.79,6.7,24.59-3.83,9.8-10.49,17.57-17.72,24.95-15,15.28-32.22,28.2-46.7,44.01-16.36,17.87-30.98,36.85-34.5,61.76-3.09,21.81,2.6,47.34,36.11,45.27,15.7-.98,31.49-.16,47.25-.16v-.15h0ZM1497.53,5.41c-15.25,0-30.52.04-45.77,0-11.88-.04-22.6,1.77-27.21,15.05-1.54,4.45-2.34,8.9-2.73,13.57-1.24,14.94-.9,29.94-2.57,44.9-1.6,14.35-4.27,28.64-3.25,43.24,1.02,14.72,13.76,24.21,26.74,20.47,8.87-2.56,18.22-4.01,27.45-4.51,11.42-.62,23.68-1.54,32.19,8.48,8.26,9.74,8.22,21.05,3.3,32.35-4.69,10.76-12.98,15.61-25.26,15.03-11.38-.53-19.39-5.79-23.37-16.88-2.62-7.3-6.67-13.48-14.76-16.02-14.23-4.45-28.7,3.78-33.61,19.35-6.84,21.74,3.41,53.06,22.21,68.28,13.21,10.69,28.52,15.71,45.18,17.13,29.99,2.57,55.73-6.62,76.01-29,23.94-26.41,30.95-57.52,23.5-92.09-6.96-32.31-36.95-58.2-72.23-51.88-6.25,1.12-12.68,1.82-19.04,1.82-10.17,0-15.19-4.88-15.16-13.69.03-10.15,5.47-15.55,17.01-15.68,19.2-.22,38.41,0,57.61.16,5.81.06,11.2-.95,15.95-4.43,9.92-7.3,14.59-24.28,10.33-37.41-4.69-14.47-10.77-18.73-27.5-18.86-15-.12-30.02-.03-45.02-.03v.65h.01Zm-288.73,101.1c-10.1,2.77-17.2,9.06-19.93,19.22-2.68,10.01-.24,18.98,7.74,25.98,9.65,8.46,27.02,7.83,37.61-1.24,7.01-6.01,11.26-13.42,9.93-22.83-1.92-13.53-12.66-22.16-27.23-22.12-2.44-.38-5.33.23-8.1.99h0Z"
    style="fill:#fff; stroke-width:0px;"
  />
</svg>