<?xml version="1.0" encoding="UTF-8"?>
<svg id="a" xmlns="http://www.w3.org/2000/svg" width="100%" height="100%" xmlns:xlink="http://www.w3.org/1999/xlink" viewBox="0 0 619.26 984.17">
  <path d="m156.01,315.2c.22,12.26,3.28,25.58,4.47,39.13,2.2,25.03-10.66,32.11-28.78,34.45-7.65.99-15.54.94-23.17-1.71-14.9-5.16-22.08-15.56-21.54-31.28.39-11.26,3.42-21.87,7.95-31.99,13.91-31.08,21.8-63.81,27.44-97.22,1.72-10.18,2.35-20.6,7.64-30.02,7.15-12.74,21.26-19.4,38.72-17.52,12.21,1.32,21.95,10.04,25.41,23.87,4.04,16.16,7.37,32.5,11.11,48.74,1.08,4.67,2.67,9.2,5.31,13.26,1.32,2.04,3,3.65,5.72,3.19,2.46-.42,3.39-2.22,4.17-4.42.64-1.79.73-3.54.79-5.36.36-11.51-1.27-22.9-2.42-34.29-.98-9.73-.32-19.28,1.62-28.7,1.99-9.68,11.39-16.72,21.72-17.29.33-.02.67,0,1-.01,17.84-.42,23.13,5.19,21.21,22.98-1.82,16.81-4.35,33.56-5.76,50.4-1.53,18.23-2,36.5.26,54.79,1.91,15.46,3.19,31.02,4.29,46.57,1.42,19.96-10.16,31.02-26.35,33.63-14.54,2.35-28.39,1.22-40.77-7.7-7.76-5.59-10.94-13.83-12.79-22.74-2.98-14.38-2.26-29.11-3.99-43.62-1.04-8.7-1.78-17.44-4.96-25.72-.23-.61-.4-1.25-.67-1.84-1.54-3.41-3.35-6.79-7.67-6.69-4.41.1-6.06,3.82-7.27,7.2-2.76,7.75-2.88,15.93-3.07,24.05-.04,1.49.18,2.99.38,5.86Zm230.76,100.67c-2.71,6.89-2.04,14.12-1.15,21.17,2.19,17.22,7.15,33.96,8.91,51.3,1.9,18.66,1.52,37.12-1.78,55.56-2.13,11.86-6.5,23.18-8.08,35.19-1.44,10.89,2.72,18.22,13.01,22.15,6.99,2.67,14.29,3.5,21.53,2.56,24.52-3.18,40.08-21.07,27.71-47.54-5.26-11.24-9.1-22.99-11.27-35.23-1.25-7.06-2.01-14.2-1.33-21.34.32-3.38.92-7.48,4.81-8.56,4.03-1.12,5.68,2.67,7.41,5.39,3.89,6.11,6.84,12.72,9.78,19.34,8.21,18.53,13.72,38.1,21.88,56.65,2.59,5.89,5.43,11.64,9.09,16.96,8.49,12.34,20.7,16.16,34.78,14.34,16.08-2.08,27.71-13.35,30.3-27.26,1.44-7.75.78-15.26-.61-22.73-3.5-18.83-7.73-37.53-11.1-56.38-2.65-14.79-2.77-29.67.23-44.56,1.73-8.57,4.62-16.86,5.76-25.58,1.62-12.33-4.11-22.04-15.91-25.78-9.37-2.97-18.98-3.31-28.54-1.18-10.12,2.26-13.34,6.81-13.09,17.28.1,4.03.95,7.9,2.49,11.57,4.79,11.44,8.59,23.22,11.13,35.33,1.5,7.14,3.89,14.3.71,21.91-3.57,8.54-9.48,10.36-15.64,3.66-9.76-10.61-15.58-23.67-21.53-36.56-5.18-11.23-9.49-22.85-16.6-33.13-8.83-12.78-20.8-19.51-41.67-19.65-8.31-.12-17.21,4.85-21.25,15.12Zm-162.86,111.11c.84,4.86,1.32,9.8,2.25,14.68,6.36,33.21,29.46,60.55,65.79,64.53,17.37,1.9,33.87-.49,48.49-10.11,26.3-17.31,36.57-43.67,39.78-73.67,1.43-13.34.2-26.54-1.96-39.7-3.15-19.24-8.67-37.58-20.15-53.69-16.8-23.56-39.87-31.76-67.81-27.09-18.86,3.15-32.13,15.04-42.89,29.88-17.42,24.04-23.84,51.52-24.28,80.31.51,5.23-.05,10.01.78,14.85Zm60.81-75.72c8.16-15.21,26.67-12.29,34.97-1.91,6.52,8.16,9.18,17.96,10.04,28.06,1.12,13.05,1.56,26.14-3.46,38.77-6.9,17.38-24.85,19.09-35.13,12.57-8.2-5.21-11.12-13.74-12.8-22.67-1.16-6.2-1.52-12.54-1.12-18.25-.28-13.19,1.4-25.23,7.49-36.58Zm130.17-65.25c8.02-2.67,13.22-7.66,14.76-16.34,1.22-6.91-.22-13.59-.93-20.32-.88-8.38-2.56-16.68-3.42-25.06-.45-4.34-.05-9.35,5.47-10.23,5.64-.9,6.18,4.31,7.47,8.08,3.27,9.57,4.38,19.66,7.02,29.38,2.89,10.65,6.77,20.99,15.67,28.06,14.68,11.66,31.12,10.84,47.43,4.34,29.01-11.57,29.38-47.29,7.25-62.49-9.38-6.45-19.48-11.12-29.88-15.34-8.18-3.32-16.03-7.29-22.61-13.11-8.7-7.69-14.7-18.24-8-31.8,2.49-5.04,5.27-9.86,8.69-14.31,8.97-11.68,18.05-23.28,21.93-37.91,2.84-10.72-.49-21.98-8.85-27.56-8.75-5.83-18.47-6.23-28.12-2.83-7.17,2.53-11.81,7.8-12.8,15.71-.58,4.6-1.19,9.19-1.74,13.8-.67,5.58-1.22,11.18-3.81,16.33-1.17,2.34-2.57,4.54-5.37,4.51-2.59-.03-3.25-2.57-3.98-4.51-2.39-6.29-4.64-12.64-6.92-18.97-7.07-19.69-19.4-30.5-40.16-29.48-13.48.66-22.01,11.55-19.21,24.78,2.15,10.17,7.24,18.74,13.46,26.75,6.51,8.4,13.37,16.53,19.84,24.95,10.09,13.14,12.25,27.04,3.66,41.93-2.82,4.89-5.96,9.52-9.35,14.02-9.35,12.43-19.26,24.62-21.73,40.68-2.44,15.92,2.75,32.56,21.73,37.63,5.03,1.34,10.16,1.51,15.31,1.34,5.84.27,11.59-.17,17.19-2.04Zm-343.6,145.19c3.62,20.84,10.96,39.72,27.43,54.13,26.28,22.98,68.57,26.2,97.48,6.67,17.87-12.08,27.56-31.14,18.11-52.81-9.52-21.82-27.12-26.47-45.18-11.61-15.19,12.5-34.85,3.57-38.71-11.51-5.9-23.07-1.31-44.36,13.58-63.02,4.22-5.29,10.1-8.87,17.38-7.88,7.22.98,10.93,8.21,9.39,17.5-1.55,9.36,3.08,16.7,12.2,19.34,12.02,3.48,25.39-3.97,30.86-17.21,9.29-22.48-2.25-50.63-24.89-59.73-24.61-9.89-48.58-7.01-69.86,8-33.79,23.82-47.55,58.46-49.33,98.63.39,6.58.41,13.08,1.52,19.49Zm78.74,291.52c-32.77,4.16-46.87,33.64-41.76,59.34,3.98,20.02,24.72,34.03,44.66,30.35,10.63-1.96,19.81-7.24,29.36-11.68,13.22-6.15,26.81-9.57,41.31-5.8,11.48,2.99,20.28,10.14,27.84,19.03,8.28,9.75,14.79,20.84,23.2,30.51,15.87,18.24,34.06,32.91,58.41,38.03,13.46,2.83,26.68,2.44,39.13-4.29,17.98-9.71,19.08-30.2,2.29-41.89-9.76-6.79-20.99-9.41-32.41-11.42-17.83-3.14-34.35-9.1-48.59-20.78-8.9-7.3-17.47-14.91-25.5-23.13-13.5-13.82-27.62-26.91-43.75-37.67-19.04-12.7-39.46-21.35-62.79-21.48-3.83.14-7.59.38-11.41.86Zm30.27-78.86c3.05,16.95,9.43,32.17,22.49,44.16,25.46,23.38,67.45,19.17,87.87-8.59,11.02-14.98,16.83-31.59,18.73-49.85,3.38-32.61-3.93-62.37-25.16-87.67-23.13-27.56-67.96-31.18-89.5,6.6-12.3,21.57-16.41,45.1-16.59,72.75-.38,5.51.64,14.09,2.17,22.6Zm45.93-69.66c3.56-7.02,8.56-12.09,17.05-12.31,9.05-.24,15.16,4.49,18.91,12.12,6.41,13.05,6.97,27.04,5.53,41.22-.6,5.91-1.8,11.7-4.53,17.06-4.13,8.13-10.71,12.63-19.88,12.4-9.38-.23-15.79-4.97-19.11-13.89-3.11-8.35-4.28-16.96-4.02-24.01-.05-12.47,1.14-22.9,6.05-32.59Zm-76.82,126.69c13.48-.23,20.06-5.45,23.47-18.36,1.94-7.34,2.04-14.91,1.09-22.31-1.65-12.96-7.16-16.6-20.44-15.54-6.98.56-13.59,2.81-20.52,3.51-2.93.3-5.9,1.07-7.65-1.77-1.81-2.93.51-5.37,2.17-7.54,4.86-6.39,11.03-11.54,16.64-17.23,12.84-13.01,24.29-26.9,26.62-45.92,2.23-18.21-2.95-33.48-18.82-44.01-21.34-14.17-52.58-13.49-72.68,2.41-14.12,11.17-22.88,25.35-19.01,44.49,1.96,9.69,10.05,16.87,19.13,17.31,10.56.51,17.79-4.53,21.32-14.79,1.39-4.04,2.27-8.26,4.67-11.93,4.15-6.32,11.94-8.39,18.75-4.88,5.14,2.65,6.86,9.26,4.27,16.12-4.38,11.56-13.8,18.98-22.56,26.76-12.97,11.53-25.64,23.28-34.67,38.29-7.09,11.78-11.11,24.36-7.95,38.33,2.02,8.95,8.23,14.62,17.28,16.16,12.42,2.11,24.94.44,32.9.93,14.99,0,25.49.14,35.99-.04Zm220.69-1.97c12.49,0,24.99.15,37.48-.05,9.82-.15,17.05-5.8,18.59-14.06,1.42-7.58,1.48-15.26.83-22.88-1.14-13.55-7.9-18.96-21.19-17.3-7.88.99-15.73,2.33-23.61,3.3-2.21.27-4.93.66-6.16-2.02-1.09-2.37.32-4.5,1.52-6.42,3.21-5.14,7.76-9.08,12.17-13.14,12.5-11.51,24.46-23.41,31.91-39.08,12.54-26.36-.12-55.14-28.04-63.32-13.15-3.85-26.39-3.95-39.83-1.2-12.78,2.61-23.71,8.22-32.12,18.26-7.85,9.38-11.38,20.03-8.4,32.27,2.03,8.37,10.14,15.9,17.79,16.65,10.51,1.03,16.42-2.51,21.2-12.53,1.56-3.27,3.13-6.57,5.15-9.56,3.84-5.68,12.86-7.66,18.71-4.42,5.18,2.86,7.12,10.01,4.53,16.64-2.59,6.63-7.1,11.89-11.99,16.88-10.15,10.34-21.8,19.08-31.6,29.78-11.07,12.09-20.96,24.93-23.34,41.79-2.09,14.76,1.76,32.03,24.43,30.63,10.62-.66,21.31-.11,31.97-.11,0-.03,0-.07,0-.1Zm129.25-174.47c-10.32,0-20.65.03-30.97,0-8.04-.03-15.29,1.2-18.41,10.18-1.04,3.01-1.58,6.02-1.85,9.18-.84,10.11-.61,20.26-1.74,30.38-1.08,9.71-2.89,19.38-2.2,29.26.69,9.96,9.31,16.38,18.09,13.85,6-1.73,12.33-2.71,18.57-3.05,7.73-.42,16.02-1.04,21.78,5.74,5.59,6.59,5.56,14.24,2.23,21.89-3.17,7.28-8.78,10.56-17.09,10.17-7.7-.36-13.12-3.92-15.81-11.42-1.77-4.94-4.51-9.12-9.99-10.84-9.63-3.01-19.42,2.56-22.74,13.09-4.63,14.71,2.31,35.9,15.03,46.2,8.94,7.23,19.3,10.63,30.57,11.59,20.29,1.74,37.71-4.48,51.43-19.62,16.2-17.87,20.94-38.92,15.9-62.31-4.71-21.86-25-39.38-48.87-35.1-4.23.76-8.58,1.23-12.88,1.23-6.88,0-10.28-3.3-10.26-9.26.02-6.87,3.7-10.52,11.51-10.61,12.99-.15,25.99,0,38.98.11,3.93.04,7.58-.64,10.79-3,6.71-4.94,9.87-16.43,6.99-25.31-3.17-9.79-7.29-12.67-18.61-12.76-10.15-.08-20.31-.02-30.46-.02,0,.15,0,.29,0,.44Zm-195.43-445.41c-10.42.55-16.46,6.77-16.72,17.12-.07,2.83-.19,5.67,0,8.49.93,13.26,2.12,26.5,2.92,39.76,1.55,25.77-2.47,50.8-10.38,75.29-3.76,11.63-6.93,23.39-7.97,35.69-1.23,14.6,4.7,25.96,18.16,31.58,12.79,5.35,25.84,4.59,38.49-1.01,7.77-3.44,12.21-9.95,14.67-17.79,2.18-6.95,2.07-14.21.84-21.25-3.85-21.99-9.17-43.74-10.4-66.14-.9-16.47-.4-32.94.98-49.36,1.03-12.23,3.19-24.37,2.71-36.72-.3-7.8-3.63-12.27-11.01-14.69-4.51-1.48-9.2-1.04-13.82-1.01-2.83,0-5.66-.13-8.48.02Zm89.69,734.82c2.14-.15,4.27-.56,6.39-.88,22.13-3.36,41.39-12.5,56.61-29.12,8.59-9.39,13.68-20.39,11.04-33.53-3.41-16.92-15.26-25.71-30.8-30.29-14.67-4.33-29.64-3.24-44.43-.74-14.03,2.37-27.54,6.34-39.71,14.3-25.31,16.53-26.44,52.21-1.99,69.77,10.88,7.81,23.14,10.88,36.39,10.53,2.17,0,4.34.12,6.49-.03Zm-43.76-747.84c9.3-1.36,18.57-2.73,26.81-7.88,10.67-6.67,12.67-20.63,4.48-32.77-5.87-8.69-17.55-9.92-27.13-2.62-3.83,2.91-7.04,6.66-10.93,9.46-22.11,15.86-45.59,13.21-68.98,3.87-12.4-4.95-20.42-15.72-28.73-25.68-7.68-9.2-16.9-15.43-28.92-17.78-23.01-4.49-45.9,10.63-49.87,33.76-1.8,10.49,1.39,19.3,10.59,25.48,10.76,7.23,23.21,7.08,35.34,8.12,15.23,1.3,30.53,1.84,45.75,3.3,20.7,1.98,41.37,4.1,62.2,3.82,9.81-.11,19.64.35,29.39-1.07Zm-20.97-118.03c3.56,15.81,13.96,25.92,27.05,33.91,10.75,6.56,22.96,9.92,34.29,15.24,14,6.57,22.62,16.62,23.12,32.9.37,12.16,7.71,19.4,19.4,20.6,9.94,1.02,19.19-4.36,21.05-12.77,1.74-7.87-1.86-14.18-7.05-19.72-11.47-12.25-19.34-26.51-24.79-42.36-4.57-13.31-6.56-27.25-10.79-40.6C403.95,12.39,388.2.04,366.8.05c-23.08-1.24-44.17,20.17-37.91,47.93ZM54.95,620.75c14.31-6.16,20.73-22.37,6.73-33.91-9.4-7.75-10.15-17.92-6.73-28.93,1.81-5.81,3.52-11.67,4.88-17.6,2.63-11.43-2.94-21.33-12.92-23.23-8.68-1.66-16.56-.12-23.83,5.34-20.37,15.3-29.34,52.51-18.34,76.88,6.9,15.29,18.7,23.43,35.28,24.76,5.33.24,10.24-1.29,14.93-3.31Zm557.62-37.19c-7.06-11.33-20.77-14.98-32.51-8.71-15.53,8.3-17.42,21.74-15.44,37,1.41,10.85,6.06,20.84,9.89,30.97,4.2,11.12,2.8,20.96-4.32,30.24-1.91,2.49-3.4,5.18-4.3,8.26-2.6,8.88,2.97,16.66,12.18,16.55,8.71-.1,14.44-5.63,19.07-11.95,15.61-21.31,21.02-45.89,22.12-67.49-.16-18.84-2.01-27.36-6.7-34.87ZM287.19,25.36c-5.83-17.11-23.04-26.42-43.18-23.37-20.94,3.17-35.47,24.64-30.48,45.05,3.89,15.92,18.09,26.05,36.53,26.04,27.56-.02,45.52-23.09,37.13-47.71Zm182.11,881.66c-11.55,3.17-19.67,10.36-22.79,21.98-3.07,11.44-.27,21.7,8.85,29.71,11.03,9.67,30.89,8.95,43-1.42,8.02-6.87,12.87-15.34,11.35-26.1-2.19-15.47-14.48-25.34-31.14-25.29-2.79-.44-6.09.26-9.26,1.13Zm-403.1,49.96c3.69,10.9,16.63,19.29,31.97,16.08,13.93-2.92,24.28-14.81,23.07-27.88-1.28-13.75-12.5-23.31-27.33-23.27-20.04.05-33.68,17.41-27.71,35.08Zm146.89-32.58c-13.09.2-22.91,10.33-22.87,23.6.03,11.67,9.42,21.27,20.92,21.39,13.57.15,24.24-9.92,24.19-22.82-.05-12.86-9.58-22.37-22.24-22.18ZM81.24,427.31c.05-9.26-7.35-16.47-16.81-16.38-10.25.09-18.19,8.07-18.15,18.21.04,9.46,7.29,16.05,17.56,15.98,9.61-.07,17.35-7.99,17.4-17.81Zm-54.79,230.61c-9.92-.05-17.19,7.25-17.19,17.27,0,9.67,6.96,16.75,16.45,16.75,9.45,0,16.53-7.41,16.56-17.31.03-9.63-6.62-16.66-15.82-16.71ZM300.94,116.94c7.92-.13,15.01-7.08,15.16-14.87.16-8.58-6.66-15.87-14.98-15.99-8.59-.13-14.93,6.22-14.96,14.99-.04,8.97,6.51,16.01,14.78,15.88Zm-18.62,738c9.07.02,14.98-6.22,15.03-15.88.04-8.19-5.46-13.87-13.46-13.9-8.62-.03-14.65,6.22-14.67,15.21-.02,8.98,4.98,14.55,13.09,14.57Zm236.29-19.06c.13-8.8-5.44-14.92-13.61-14.97-8.31-.05-14.88,6.52-14.75,14.74.13,8.26,6,14.37,13.82,14.39,8.5.02,14.41-5.74,14.54-14.16Zm-8.35-564.12c.03-8.02-5.52-13.83-13.07-13.69-7.99.14-14.8,6.85-14.7,14.48.11,8.16,5.66,13.61,13.82,13.58,8.77-.03,13.92-5.34,13.95-14.37Zm69.28,255.23c8.27.1,14.1-5.65,14.15-13.92.04-8.01-5.71-13.99-13.55-14.08-8.16-.09-13.93,5.41-14.02,13.36-.09,8.33,5.61,14.55,13.42,14.64Z" style="fill:white; stroke-width:0px;"/>
</svg>