<svg xmlns="http://www.w3.org/2000/svg" width="326" height="50" fill="none"><path fill="#fff" fill-rule="evenodd" d="M68.262 0h1.95c.664 0 1.2.54 1.2 1.21v36.112c0 .67-.536 1.21-1.2 1.21h-1.95c-.663 0-1.198-.54-1.198-1.21V1.21c0-.67.535-1.21 1.198-1.21zm62.049 27.411c-.544 0-1.023.371-1.159.911-1.071 4.105-4.324 6.807-8.553 6.807-4.38 0-7.585-2.637-8.624-6.79a1.207 1.207 0 0 0-1.167-.92h-2.094c-.775 0-1.343.726-1.167 1.484 1.399 6.177 6.338 10.266 12.94 10.266 6.339 0 11.55-4.266 13.069-10.25a1.205 1.205 0 0 0-1.159-1.508h-2.086zm-9.656-12.105c4.324 0 7.474 2.621 8.505 6.79.136.54.615.92 1.167.92h2.086c.775 0 1.343-.734 1.167-1.492-1.431-6.161-6.395-10.266-12.925-10.266-6.77 0-11.749 4.04-13.124 10.274-.168.758.4 1.484 1.167 1.484h2.118c.552 0 1.023-.38 1.159-.92 1.063-4.16 4.268-6.79 8.68-6.79zm18.04 9.557c.144-8.08 5.603-13.596 13.508-13.596 7.793 0 13.349 5.83 13.341 14.04 0 7.798-5.955 13.863-13.516 13.863-3.589 0-6.69-1.21-8.992-3.307v12.928c0 .67-.536 1.21-1.199 1.21h-1.951c-.663 0-1.198-.54-1.198-1.21V25.194c0-.105 0-.21.007-.314v-.017zm4.461.388c0 5.895 3.612 9.878 8.991 9.878 5.212 0 8.937-4.104 8.937-9.878 0-5.952-3.557-9.936-8.881-9.936-5.443 0-9.047 3.984-9.047 9.936zm89.511.064v.258a.176.176 0 0 0 .008.056v.008c.144 8.088 5.603 13.596 13.508 13.596 7.785 0 13.34-5.838 13.34-14.04-.007-7.798-5.962-13.863-13.515-13.863-3.589 0-6.69 1.21-8.992 3.307V1.709c0-.67-.536-1.21-1.199-1.21h-1.951c-.663 0-1.199.54-1.199 1.21v23.605zm4.461-.057c0 5.951 3.612 9.935 9.047 9.935 5.332 0 8.88-3.992 8.88-9.935 0-5.775-3.724-9.88-8.936-9.88-5.387 0-8.991 3.984-8.991 9.88zm-37.223-13.991h-.743c-1.887 0-3.725.58-5.036 1.62-1.031.807-1.607 1.622-2.406 3.525v-3.298c0-.67-.535-1.21-1.199-1.21h-1.95c-.663 0-1.199.54-1.199 1.21V37.33c0 .67.536 1.21 1.199 1.21h1.95c.664 0 1.199-.54 1.199-1.21V25.017c0-3.065.4-4.621 1.543-6.299 1.319-1.967 3.381-3.064 5.731-3.064.223 0 .543 0 .895.024.168.016.304-.121.304-.29v-3.839a.286.286 0 0 0-.288-.282zm23.611 17.056c.136-.54.615-.911 1.159-.911v.008h2.086c.783 0 1.351.742 1.159 1.508-1.519 5.984-6.73 10.25-13.068 10.25-6.602 0-11.542-4.089-12.941-10.274a1.205 1.205 0 0 1 1.167-1.484h2.094c.552 0 1.031.379 1.167.92 1.039 4.152 4.245 6.79 8.625 6.79 4.228 0 7.481-2.702 8.552-6.807zm-21.621-6.782c1.375-6.234 6.355-10.274 13.125-10.274 6.53 0 11.493 4.105 12.916 10.258.176.758-.392 1.492-1.167 1.492h-2.086a1.207 1.207 0 0 1-1.167-.92c-1.031-4.169-4.18-6.79-8.504-6.79-4.412 0-7.618 2.63-8.673 6.798-.136.54-.607.92-1.159.92h-2.118c-.767 0-1.335-.726-1.167-1.484zm75.021-10.274c-6.77 0-11.749 4.04-13.124 10.274-.168.758.399 1.484 1.167 1.484h2.118c.551 0 1.031-.38 1.167-.92 1.055-4.169 4.26-6.798 8.672-6.798 4.324 0 7.473 2.621 8.504 6.79.136.54.616.92 1.167.92h2.087c.775 0 1.342-.734 1.167-1.492-1.431-6.153-6.395-10.258-12.925-10.258zm9.655 16.145c-.543 0-1.023.37-1.158.911-1.072 4.105-4.325 6.806-8.553 6.806-4.38 0-7.585-2.636-8.624-6.79a1.208 1.208 0 0 0-1.167-.92h-2.094c-.776 0-1.343.727-1.167 1.485 1.399 6.185 6.338 10.274 12.94 10.274 6.339 0 11.55-4.266 13.069-10.25.191-.766-.376-1.508-1.159-1.508h-2.087v-.008zm17.545-11.929c0 .162-.128.29-.288.29h-3.724v17.331c0 1.275.455 1.621 2.006 1.621h.807c.664 0 1.199.54 1.199 1.21v1.395c0 .67-.535 1.21-1.199 1.21h-2.869c-3.029 0-4.292-1.218-4.292-4.161V15.774h-3.381a.288.288 0 0 1-.288-.29v-3.29c0-.162.128-.291.288-.291h3.381v-7.17c0-.669.535-1.21 1.199-1.21h1.95c.663 0 1.199.541 1.199 1.21v7.17h3.724c.16 0 .288.129.288.29v3.29zm19.75 10.743c-1.263-1.274-3.037-2.137-6.41-3.065-4.756-1.33-5.899-2.193-5.899-4.508 0-2.306 1.83-3.814 4.756-3.814 1.518 0 2.781.387 3.66 1.088a3.592 3.592 0 0 1 1.327 2.25c.096.573.6.992 1.183.992h2.926a.294.294 0 0 0 .287-.314c-.351-4.83-3.708-7.605-9.199-7.605-5.556 0-9.28 3.121-9.28 7.742 0 4.04 2.573 6.468 8.304 8.032 4.524 1.153 6.011 2.315 6.011 4.621 0 2.371-1.95 3.927-4.924 3.927-3.229 0-5.155-1.451-5.523-4.29-.016-.145-.112-.33-.431-.33h-3.437c-.4 0-.448.233-.424.403.568 5.161 3.925 7.798 9.815 7.798 5.611 0 9.392-3.12 9.392-7.742-.008-1.943-.815-3.855-2.134-5.185zm-224.95 2.096c.135-.54.615-.911 1.158-.911v.008h2.086c.784 0 1.351.742 1.159 1.508-1.518 5.984-6.73 10.25-13.068 10.25-6.602 0-11.542-4.089-12.94-10.274a1.205 1.205 0 0 1 1.166-1.484h2.095c.551 0 1.03.38 1.167.92 1.039 4.153 4.244 6.79 8.624 6.79 4.228 0 7.481-2.702 8.552-6.807zm.015-6.225c-1.03-4.17-4.188-6.79-8.504-6.79-4.42 0-7.625 2.628-8.672 6.79-.136.54-.616.919-1.167.919H78.47c-.768 0-1.335-.726-1.168-1.484 1.375-6.234 6.355-10.274 13.125-10.274 6.53 0 11.494 4.105 12.924 10.266.176.758-.391 1.492-1.167 1.492h-2.086a1.21 1.21 0 0 1-1.167-.92zm-71.839-.144c-1.29-5.239-5.24-8.533-10.638-8.533-5.53 0-9.538 3.304-10.848 8.533a1.511 1.511 0 0 1-1.46 1.156h-2.65c-.96 0-1.669-.912-1.459-1.865C1.757 13.41 7.985 8.333 16.454 8.333c8.168 0 14.377 5.158 16.167 12.901.22.953-.49 1.875-1.46 1.875h-2.61c-.69 0-1.29-.477-1.46-1.156zm17.09 5.238a1.5 1.5 0 0 0-1.45 1.145c-1.34 5.159-5.41 8.554-10.698 8.554-5.479 0-9.488-3.314-10.788-8.533a1.511 1.511 0 0 0-1.46-1.156h-2.62c-.969 0-1.679.912-1.459 1.865 1.75 7.773 7.929 12.911 16.187 12.911 7.928 0 14.447-5.36 16.347-12.88.24-.963-.47-1.896-1.45-1.896h-2.61v-.01z" clip-rule="evenodd"/><path fill="url(#a)" fill-rule="evenodd" d="M27.092 21.953c-1.29-5.239-5.24-8.533-10.638-8.533-5.53 0-9.538 3.304-10.848 8.533a1.511 1.511 0 0 1-1.46 1.156h-2.65c-.96 0-1.669-.912-1.459-1.865C1.757 13.41 7.985 8.333 16.454 8.333c8.168 0 14.377 5.158 16.167 12.901.22.953-.49 1.875-1.46 1.875h-2.61c-.69 0-1.29-.477-1.46-1.156zm17.09 5.238a1.5 1.5 0 0 0-1.45 1.145c-1.34 5.159-5.41 8.554-10.698 8.554-5.479 0-9.488-3.314-10.788-8.533a1.511 1.511 0 0 0-1.46-1.156h-2.62c-.969 0-1.679.912-1.459 1.865 1.75 7.773 7.929 12.911 16.187 12.911 7.928 0 14.447-5.36 16.347-12.88.24-.963-.47-1.896-1.45-1.896h-2.61v-.01z" clip-rule="evenodd"/><path fill="#fff" fill-rule="evenodd" d="M27.092 21.953c-1.29-5.239-5.24-8.533-10.638-8.533-5.53 0-9.538 3.304-10.848 8.533a1.511 1.511 0 0 1-1.46 1.156h-2.65c-.96 0-1.669-.912-1.459-1.865C1.757 13.41 7.985 8.333 16.454 8.333c8.168 0 14.377 5.158 16.167 12.901.22.953-.49 1.875-1.46 1.875h-2.61c-.69 0-1.29-.477-1.46-1.156zm17.09 5.238a1.5 1.5 0 0 0-1.45 1.145c-1.34 5.159-5.41 8.554-10.698 8.554-5.479 0-9.488-3.314-10.788-8.533a1.511 1.511 0 0 0-1.46-1.156h-2.62c-.969 0-1.679.912-1.459 1.865 1.75 7.773 7.929 12.911 16.187 12.911 7.928 0 14.447-5.36 16.347-12.88.24-.963-.47-1.896-1.45-1.896h-2.61v-.01z" clip-rule="evenodd"/><defs><linearGradient id="a" x1="14.101" x2="47.723" y1="27.755" y2="37.13" gradientUnits="userSpaceOnUse"><stop stop-color="#1260F5"/><stop offset="1" stop-color="#98F8F8"/></linearGradient></defs></svg>
