<?xml version="1.0" encoding="UTF-8" standalone="no"?>
<svg xmlns="http://www.w3.org/2000/svg" xmlns:svg="http://www.w3.org/2000/svg" width="2106.385" height="410.71899" viewBox="0 0 1579.7888 308.03926" version="1.1" id="svg308">
  <defs id="defs274">
    <clipPath id="clip-0">
      <path clip-rule="nonzero" d="M 375,634 H 570 V 913 H 375 Z m 0,0" id="path2"/>
    </clipPath>
    <clipPath id="clip-1">
      <path clip-rule="nonzero" d="m 375.10547,634.48047 v 278.03906 l 31.94531,-15.97266 V 686.16406 l 162.46484,81.23828 v -35.71093 z m 0,0" id="path5"/>
    </clipPath>
    <linearGradient id="linear-pattern-0" gradientUnits="userSpaceOnUse" x1="0.107781" y1="0" x2="1.002941" y2="0" gradientTransform="matrix(-255.47531,-275.02701,275.02701,-255.47531,589.95404,948.75287)">
      <stop offset="0" stop-color="rgb(0%, 81.568909%, 69.020081%)" stop-opacity="1" id="stop8"/>
      <stop offset="0.015625" stop-color="rgb(0%, 81.96106%, 69.020081%)" stop-opacity="1" id="stop10"/>
      <stop offset="0.03125" stop-color="rgb(0%, 81.96106%, 68.62793%)" stop-opacity="1" id="stop12"/>
      <stop offset="0.046875" stop-color="rgb(0%, 82.35321%, 68.62793%)" stop-opacity="1" id="stop14"/>
      <stop offset="0.0625" stop-color="rgb(0%, 82.35321%, 68.235779%)" stop-opacity="1" id="stop16"/>
      <stop offset="0.078125" stop-color="rgb(0%, 82.745361%, 68.235779%)" stop-opacity="1" id="stop18"/>
      <stop offset="0.09375" stop-color="rgb(0%, 82.745361%, 68.235779%)" stop-opacity="1" id="stop20"/>
      <stop offset="0.109375" stop-color="rgb(0%, 83.137512%, 67.843628%)" stop-opacity="1" id="stop22"/>
      <stop offset="0.125" stop-color="rgb(0%, 83.529663%, 67.843628%)" stop-opacity="1" id="stop24"/>
      <stop offset="0.140625" stop-color="rgb(0%, 83.529663%, 67.451477%)" stop-opacity="1" id="stop26"/>
      <stop offset="0.15625" stop-color="rgb(0%, 83.921814%, 67.451477%)" stop-opacity="1" id="stop28"/>
      <stop offset="0.171875" stop-color="rgb(0%, 83.921814%, 67.451477%)" stop-opacity="1" id="stop30"/>
      <stop offset="0.1875" stop-color="rgb(0%, 84.313965%, 67.059326%)" stop-opacity="1" id="stop32"/>
      <stop offset="0.203125" stop-color="rgb(0%, 84.313965%, 67.059326%)" stop-opacity="1" id="stop34"/>
      <stop offset="0.21875" stop-color="rgb(0%, 84.706116%, 66.667175%)" stop-opacity="1" id="stop36"/>
      <stop offset="0.234375" stop-color="rgb(0%, 84.706116%, 66.667175%)" stop-opacity="1" id="stop38"/>
      <stop offset="0.25" stop-color="rgb(0%, 85.098267%, 66.667175%)" stop-opacity="1" id="stop40"/>
      <stop offset="0.265625" stop-color="rgb(0%, 85.490417%, 66.275024%)" stop-opacity="1" id="stop42"/>
      <stop offset="0.28125" stop-color="rgb(0%, 85.490417%, 66.275024%)" stop-opacity="1" id="stop44"/>
      <stop offset="0.296875" stop-color="rgb(0%, 85.882568%, 65.882874%)" stop-opacity="1" id="stop46"/>
      <stop offset="0.3125" stop-color="rgb(0%, 85.882568%, 65.882874%)" stop-opacity="1" id="stop48"/>
      <stop offset="0.328125" stop-color="rgb(0%, 86.274719%, 65.882874%)" stop-opacity="1" id="stop50"/>
      <stop offset="0.34375" stop-color="rgb(0%, 86.274719%, 65.490723%)" stop-opacity="1" id="stop52"/>
      <stop offset="0.359375" stop-color="rgb(0%, 86.66687%, 65.490723%)" stop-opacity="1" id="stop54"/>
      <stop offset="0.375" stop-color="rgb(0%, 86.66687%, 65.098572%)" stop-opacity="1" id="stop56"/>
      <stop offset="0.390625" stop-color="rgb(0%, 87.059021%, 65.098572%)" stop-opacity="1" id="stop58"/>
      <stop offset="0.40625" stop-color="rgb(0%, 87.451172%, 65.098572%)" stop-opacity="1" id="stop60"/>
      <stop offset="0.421875" stop-color="rgb(0%, 87.451172%, 64.706421%)" stop-opacity="1" id="stop62"/>
      <stop offset="0.4375" stop-color="rgb(0%, 87.843323%, 64.706421%)" stop-opacity="1" id="stop64"/>
      <stop offset="0.453125" stop-color="rgb(0%, 87.843323%, 64.31427%)" stop-opacity="1" id="stop66"/>
      <stop offset="0.46875" stop-color="rgb(0%, 88.235474%, 64.31427%)" stop-opacity="1" id="stop68"/>
      <stop offset="0.484375" stop-color="rgb(0%, 88.235474%, 63.922119%)" stop-opacity="1" id="stop70"/>
      <stop offset="0.5" stop-color="rgb(0%, 88.627625%, 63.922119%)" stop-opacity="1" id="stop72"/>
      <stop offset="0.515625" stop-color="rgb(0%, 88.627625%, 63.922119%)" stop-opacity="1" id="stop74"/>
      <stop offset="0.53125" stop-color="rgb(0%, 89.019775%, 63.529968%)" stop-opacity="1" id="stop76"/>
      <stop offset="0.546875" stop-color="rgb(0%, 89.411926%, 63.529968%)" stop-opacity="1" id="stop78"/>
      <stop offset="0.5625" stop-color="rgb(0%, 89.411926%, 63.137817%)" stop-opacity="1" id="stop80"/>
      <stop offset="0.578125" stop-color="rgb(0%, 89.804077%, 63.137817%)" stop-opacity="1" id="stop82"/>
      <stop offset="0.59375" stop-color="rgb(0%, 89.804077%, 63.137817%)" stop-opacity="1" id="stop84"/>
      <stop offset="0.609375" stop-color="rgb(0%, 90.196228%, 62.745667%)" stop-opacity="1" id="stop86"/>
      <stop offset="0.625" stop-color="rgb(0%, 90.196228%, 62.745667%)" stop-opacity="1" id="stop88"/>
      <stop offset="0.640625" stop-color="rgb(0%, 90.588379%, 62.353516%)" stop-opacity="1" id="stop90"/>
      <stop offset="0.65625" stop-color="rgb(0%, 90.98053%, 62.353516%)" stop-opacity="1" id="stop92"/>
      <stop offset="0.671875" stop-color="rgb(0%, 90.98053%, 62.353516%)" stop-opacity="1" id="stop94"/>
      <stop offset="0.6875" stop-color="rgb(0%, 91.372681%, 61.961365%)" stop-opacity="1" id="stop96"/>
      <stop offset="0.703125" stop-color="rgb(0%, 91.372681%, 61.961365%)" stop-opacity="1" id="stop98"/>
      <stop offset="0.71875" stop-color="rgb(0%, 91.764832%, 61.569214%)" stop-opacity="1" id="stop100"/>
      <stop offset="0.734375" stop-color="rgb(0%, 91.764832%, 61.569214%)" stop-opacity="1" id="stop102"/>
      <stop offset="0.75" stop-color="rgb(0%, 92.156982%, 61.569214%)" stop-opacity="1" id="stop104"/>
      <stop offset="0.765625" stop-color="rgb(0%, 92.156982%, 61.177063%)" stop-opacity="1" id="stop106"/>
      <stop offset="0.78125" stop-color="rgb(0%, 92.549133%, 61.177063%)" stop-opacity="1" id="stop108"/>
      <stop offset="0.796875" stop-color="rgb(0%, 92.941284%, 60.784912%)" stop-opacity="1" id="stop110"/>
      <stop offset="0.8125" stop-color="rgb(0%, 92.941284%, 60.784912%)" stop-opacity="1" id="stop112"/>
      <stop offset="0.828125" stop-color="rgb(0%, 93.333435%, 60.784912%)" stop-opacity="1" id="stop114"/>
      <stop offset="0.84375" stop-color="rgb(0%, 93.333435%, 60.392761%)" stop-opacity="1" id="stop116"/>
      <stop offset="0.859375" stop-color="rgb(0%, 93.725586%, 60.392761%)" stop-opacity="1" id="stop118"/>
      <stop offset="0.875" stop-color="rgb(0%, 93.725586%, 60.00061%)" stop-opacity="1" id="stop120"/>
      <stop offset="0.890625" stop-color="rgb(0%, 94.117737%, 60.00061%)" stop-opacity="1" id="stop122"/>
      <stop offset="0.90625" stop-color="rgb(0%, 94.117737%, 60.00061%)" stop-opacity="1" id="stop124"/>
      <stop offset="0.921875" stop-color="rgb(0%, 94.509888%, 59.608459%)" stop-opacity="1" id="stop126"/>
      <stop offset="0.9375" stop-color="rgb(0%, 94.902039%, 59.608459%)" stop-opacity="1" id="stop128"/>
      <stop offset="0.953125" stop-color="rgb(0%, 94.902039%, 59.216309%)" stop-opacity="1" id="stop130"/>
      <stop offset="0.96875" stop-color="rgb(0%, 95.294189%, 59.216309%)" stop-opacity="1" id="stop132"/>
      <stop offset="0.984375" stop-color="rgb(0%, 95.294189%, 59.216309%)" stop-opacity="1" id="stop134"/>
      <stop offset="1" stop-color="rgb(0%, 95.68634%, 58.824158%)" stop-opacity="1" id="stop136"/>
    </linearGradient>
    <clipPath id="clip-2">
      <path clip-rule="nonzero" d="M 438,634 H 634 V 913 H 438 Z m 0,0" id="path139"/>
    </clipPath>
    <clipPath id="clip-3">
      <path clip-rule="nonzero" d="M 601.46094,650.45312 V 860.83594 L 438.99219,779.60937 v 35.71094 l 194.41015,97.19922 V 634.48047 Z m 0,0" id="path142"/>
    </clipPath>
    <linearGradient id="linear-pattern-1" gradientUnits="userSpaceOnUse" x1="-0.0080538597" y1="0" x2="0.887106" y2="0" gradientTransform="matrix(-255.47531,-275.02701,275.02701,-255.47531,672.7204,871.87036)">
      <stop offset="0" stop-color="rgb(0%, 80.000305%, 70.196533%)" stop-opacity="1" id="stop145"/>
      <stop offset="0.03125" stop-color="rgb(0%, 80.000305%, 70.196533%)" stop-opacity="1" id="stop147"/>
      <stop offset="0.046875" stop-color="rgb(0%, 80.392456%, 69.804382%)" stop-opacity="1" id="stop149"/>
      <stop offset="0.0625" stop-color="rgb(0%, 80.784607%, 69.804382%)" stop-opacity="1" id="stop151"/>
      <stop offset="0.078125" stop-color="rgb(0%, 80.784607%, 69.412231%)" stop-opacity="1" id="stop153"/>
      <stop offset="0.09375" stop-color="rgb(0%, 81.176758%, 69.412231%)" stop-opacity="1" id="stop155"/>
      <stop offset="0.109375" stop-color="rgb(0%, 81.176758%, 69.412231%)" stop-opacity="1" id="stop157"/>
      <stop offset="0.125" stop-color="rgb(0%, 81.568909%, 69.020081%)" stop-opacity="1" id="stop159"/>
      <stop offset="0.140625" stop-color="rgb(0%, 81.568909%, 69.020081%)" stop-opacity="1" id="stop161"/>
      <stop offset="0.15625" stop-color="rgb(0%, 81.96106%, 68.62793%)" stop-opacity="1" id="stop163"/>
      <stop offset="0.171875" stop-color="rgb(0%, 82.35321%, 68.62793%)" stop-opacity="1" id="stop165"/>
      <stop offset="0.1875" stop-color="rgb(0%, 82.35321%, 68.62793%)" stop-opacity="1" id="stop167"/>
      <stop offset="0.203125" stop-color="rgb(0%, 82.745361%, 68.235779%)" stop-opacity="1" id="stop169"/>
      <stop offset="0.21875" stop-color="rgb(0%, 82.745361%, 68.235779%)" stop-opacity="1" id="stop171"/>
      <stop offset="0.234375" stop-color="rgb(0%, 83.137512%, 67.843628%)" stop-opacity="1" id="stop173"/>
      <stop offset="0.25" stop-color="rgb(0%, 83.137512%, 67.843628%)" stop-opacity="1" id="stop175"/>
      <stop offset="0.265625" stop-color="rgb(0%, 83.529663%, 67.843628%)" stop-opacity="1" id="stop177"/>
      <stop offset="0.28125" stop-color="rgb(0%, 83.529663%, 67.451477%)" stop-opacity="1" id="stop179"/>
      <stop offset="0.296875" stop-color="rgb(0%, 83.921814%, 67.451477%)" stop-opacity="1" id="stop181"/>
      <stop offset="0.3125" stop-color="rgb(0%, 84.313965%, 67.059326%)" stop-opacity="1" id="stop183"/>
      <stop offset="0.328125" stop-color="rgb(0%, 84.313965%, 67.059326%)" stop-opacity="1" id="stop185"/>
      <stop offset="0.34375" stop-color="rgb(0%, 84.706116%, 67.059326%)" stop-opacity="1" id="stop187"/>
      <stop offset="0.359375" stop-color="rgb(0%, 84.706116%, 66.667175%)" stop-opacity="1" id="stop189"/>
      <stop offset="0.375" stop-color="rgb(0%, 85.098267%, 66.667175%)" stop-opacity="1" id="stop191"/>
      <stop offset="0.390625" stop-color="rgb(0%, 85.098267%, 66.275024%)" stop-opacity="1" id="stop193"/>
      <stop offset="0.40625" stop-color="rgb(0%, 85.490417%, 66.275024%)" stop-opacity="1" id="stop195"/>
      <stop offset="0.421875" stop-color="rgb(0%, 85.882568%, 65.882874%)" stop-opacity="1" id="stop197"/>
      <stop offset="0.4375" stop-color="rgb(0%, 85.882568%, 65.882874%)" stop-opacity="1" id="stop199"/>
      <stop offset="0.453125" stop-color="rgb(0%, 86.274719%, 65.882874%)" stop-opacity="1" id="stop201"/>
      <stop offset="0.46875" stop-color="rgb(0%, 86.274719%, 65.490723%)" stop-opacity="1" id="stop203"/>
      <stop offset="0.484375" stop-color="rgb(0%, 86.66687%, 65.490723%)" stop-opacity="1" id="stop205"/>
      <stop offset="0.5" stop-color="rgb(0%, 86.66687%, 65.098572%)" stop-opacity="1" id="stop207"/>
      <stop offset="0.515625" stop-color="rgb(0%, 87.059021%, 65.098572%)" stop-opacity="1" id="stop209"/>
      <stop offset="0.53125" stop-color="rgb(0%, 87.059021%, 65.098572%)" stop-opacity="1" id="stop211"/>
      <stop offset="0.546875" stop-color="rgb(0%, 87.451172%, 64.706421%)" stop-opacity="1" id="stop213"/>
      <stop offset="0.5625" stop-color="rgb(0%, 87.843323%, 64.706421%)" stop-opacity="1" id="stop215"/>
      <stop offset="0.578125" stop-color="rgb(0%, 87.843323%, 64.31427%)" stop-opacity="1" id="stop217"/>
      <stop offset="0.59375" stop-color="rgb(0%, 88.235474%, 64.31427%)" stop-opacity="1" id="stop219"/>
      <stop offset="0.609375" stop-color="rgb(0%, 88.235474%, 64.31427%)" stop-opacity="1" id="stop221"/>
      <stop offset="0.625" stop-color="rgb(0%, 88.627625%, 63.922119%)" stop-opacity="1" id="stop223"/>
      <stop offset="0.640625" stop-color="rgb(0%, 88.627625%, 63.922119%)" stop-opacity="1" id="stop225"/>
      <stop offset="0.65625" stop-color="rgb(0%, 89.019775%, 63.529968%)" stop-opacity="1" id="stop227"/>
      <stop offset="0.671875" stop-color="rgb(0%, 89.019775%, 63.529968%)" stop-opacity="1" id="stop229"/>
      <stop offset="0.6875" stop-color="rgb(0%, 89.411926%, 63.529968%)" stop-opacity="1" id="stop231"/>
      <stop offset="0.703125" stop-color="rgb(0%, 89.804077%, 63.137817%)" stop-opacity="1" id="stop233"/>
      <stop offset="0.71875" stop-color="rgb(0%, 89.804077%, 63.137817%)" stop-opacity="1" id="stop235"/>
      <stop offset="0.734375" stop-color="rgb(0%, 90.196228%, 62.745667%)" stop-opacity="1" id="stop237"/>
      <stop offset="0.75" stop-color="rgb(0%, 90.196228%, 62.745667%)" stop-opacity="1" id="stop239"/>
      <stop offset="0.765625" stop-color="rgb(0%, 90.588379%, 62.745667%)" stop-opacity="1" id="stop241"/>
      <stop offset="0.78125" stop-color="rgb(0%, 90.588379%, 62.353516%)" stop-opacity="1" id="stop243"/>
      <stop offset="0.796875" stop-color="rgb(0%, 90.98053%, 62.353516%)" stop-opacity="1" id="stop245"/>
      <stop offset="0.8125" stop-color="rgb(0%, 90.98053%, 61.961365%)" stop-opacity="1" id="stop247"/>
      <stop offset="0.828125" stop-color="rgb(0%, 91.372681%, 61.961365%)" stop-opacity="1" id="stop249"/>
      <stop offset="0.84375" stop-color="rgb(0%, 91.764832%, 61.961365%)" stop-opacity="1" id="stop251"/>
      <stop offset="0.859375" stop-color="rgb(0%, 91.764832%, 61.569214%)" stop-opacity="1" id="stop253"/>
      <stop offset="0.875" stop-color="rgb(0%, 92.156982%, 61.569214%)" stop-opacity="1" id="stop255"/>
      <stop offset="0.890625" stop-color="rgb(0%, 92.156982%, 61.177063%)" stop-opacity="1" id="stop257"/>
      <stop offset="0.90625" stop-color="rgb(0%, 92.549133%, 61.177063%)" stop-opacity="1" id="stop259"/>
      <stop offset="0.921875" stop-color="rgb(0%, 92.549133%, 61.177063%)" stop-opacity="1" id="stop261"/>
      <stop offset="0.9375" stop-color="rgb(0%, 92.941284%, 60.784912%)" stop-opacity="1" id="stop263"/>
      <stop offset="0.953125" stop-color="rgb(0%, 93.333435%, 60.784912%)" stop-opacity="1" id="stop265"/>
      <stop offset="0.96875" stop-color="rgb(0%, 93.333435%, 60.392761%)" stop-opacity="1" id="stop267"/>
      <stop offset="0.984375" stop-color="rgb(0%, 93.725586%, 60.392761%)" stop-opacity="1" id="stop269"/>
      <stop offset="1" stop-color="rgb(0%, 93.725586%, 60.00061%)" stop-opacity="1" id="stop271"/>
    </linearGradient>
  </defs>
  <g clip-path="url(#clip-0)" id="g280" transform="translate(-360.106,-619.48133)">
    <g clip-path="url(#clip-1)" id="g278">
      <path fill-rule="nonzero" fill="white" d="M 465.15234,1009.4609 708.15625,783.73437 479.46484,537.53906 l -243,225.72656 z m 0,0" id="path276" style=""/>
    </g>
  </g>
  <g clip-path="url(#clip-2)" id="g286" transform="translate(-360.106,-619.48133)">
    <g clip-path="url(#clip-3)" id="g284">
      <path fill-rule="nonzero" fill="white" d="m 529.04297,1009.4609 243,-225.72653 -228.6875,-246.19531 -243.00391,225.72656 z m 0,0" id="path282" style=""/>
    </g>
  </g>
  <path fill-rule="nonzero" fill="white" fill-opacity="1" d="M 511.42236,82.730565 V 225.30887 h -18.33205 l -67.21883,-96.75012 v 96.75012 H 402.44566 V 82.730565 h 18.33207 l 67.21881,96.750125 V 82.730565 Z m 0,0" id="path288"/>
  <path fill-rule="nonzero" fill="white" fill-opacity="1" d="m 614.27406,174.38694 c 0,-18.53127 -13.85159,-32.18364 -31.77348,-32.18364 -17.9258,0 -31.77738,13.65237 -31.77738,32.18364 0,18.53517 13.85158,32.18363 31.77738,32.18363 17.92189,0 31.77348,-13.64846 31.77348,-32.18363 m -85.547,0 c 0,-30.3477 24.0352,-53.56649 53.77352,-53.56649 29.94145,0 53.77349,23.21879 53.77349,53.56649 0,30.14847 -23.83204,53.57039 -53.77349,53.57039 -29.73832,0 -53.77352,-23.42192 -53.77352,-53.57039" id="path290"/>
  <path fill-rule="nonzero" fill="white" fill-opacity="1" d="m 741.16874,123.46889 -39.7188,101.83998 h -25.46098 l -39.7188,-101.83998 h 24.03519 l 28.51566,77.39856 28.31253,-77.39856 z m 0,0" id="path292"/>
  <path fill-rule="nonzero" fill="white" fill-opacity="1" d="m 827.52821,174.38694 c 0,-18.94143 -13.85158,-32.58989 -32.18365,-32.58989 -18.33204,0 -32.18362,13.64846 -32.18362,32.58989 0,18.94533 13.85158,32.58988 32.18362,32.58988 18.33207,0 32.18365,-13.64455 32.18365,-32.58988 m 21.99611,-50.92196 v 101.84389 h -21.99611 v -14.66408 c -7.7422,10.79689 -19.75785,17.31254 -35.64458,17.31254 -27.70316,0 -50.7188,-23.42192 -50.7188,-53.57039 0,-30.3477 23.01564,-53.56649 50.7188,-53.56649 15.88673,0 27.90238,6.51565 35.64458,17.1094 v -14.46487 z m 0,0" id="path294"/>
  <path fill-rule="nonzero" fill="white" fill-opacity="1" d="m 866.82902,154.01972 c 0,-41.34771 31.1641,-73.937599 74.55087,-73.937599 26.07035,0 49.29304,13.2383 61.30871,34.015669 l -20.36725,11.81252 c -7.53906,-14.0547 -23.01564,-23.01566 -40.94146,-23.01566 -30.75785,0 -51.12505,21.79299 -51.12505,51.12507 0,29.33208 20.3672,51.12507 51.12505,51.12507 17.92582,0 33.60552,-8.96096 40.94146,-23.01567 l 20.36725,11.6094 c -11.81254,20.77738 -35.03524,34.21881 -61.30871,34.21881 -43.38677,0 -74.55087,-32.5899 -74.55087,-73.93761" id="path296"/>
  <path fill-rule="nonzero" fill="white" fill-opacity="1" d="M 1112.6732,123.46889 V 225.30887 H 1090.673 V 212.2737 c -6.7227,10.58986 -17.7188,15.68363 -31.5703,15.68363 -22.8125,0 -39.1094,-15.48051 -39.1094,-41.961 v -62.52744 h 22 v 60.28916 c 0,15.48049 8.9609,23.62893 22.8125,23.62893 14.4648,0 25.8672,-8.55469 25.8672,-29.33207 v -54.58602 z m 0,0" id="path298"/>
  <path fill-rule="nonzero" fill="white" fill-opacity="1" d="m 1211.2473,196.59008 c 0,20.36723 -17.7188,31.36725 -39.7188,31.36725 -20.3671,0 -35.0312,-9.16408 -41.5507,-23.83207 l 18.9453,-11.00002 c 3.2578,9.16799 11.4023,14.66799 22.6054,14.66799 9.7774,0 17.3164,-3.25782 17.3164,-11.40627 0,-18.12893 -54.7929,-7.94141 -54.7929,-44.40241 0,-19.14845 16.5,-31.1641 37.2734,-31.1641 16.7031,0 30.5547,7.7383 37.6836,21.17973 l -18.5351,10.39062 c -3.668,-7.94531 -10.7969,-11.60937 -19.1485,-11.60937 -7.9414,0 -14.8672,3.46094 -14.8672,10.79297 0,18.53519 54.7891,7.33205 54.7891,45.01568" id="path300"/>
  <path fill-rule="nonzero" fill="white" fill-opacity="1" d="m 1256.3254,144.64862 v 48.88677 c 0,13.03518 8.5549,12.83206 25.258,12.01956 v 19.75392 c -33.8127,4.07424 -47.2541,-5.29297 -47.2541,-31.77348 v -48.88677 h -18.7422 v -21.17973 h 18.7422 v -22.00002 l 21.9961,-6.519537 v 28.519557 h 25.258 v 21.17973 z m 0,0" id="path302"/>
  <path fill-rule="nonzero" fill="white" fill-opacity="1" d="m 1375.7787,174.38694 c 0,-18.53127 -13.8515,-32.18364 -31.7734,-32.18364 -17.9258,0 -31.7773,13.65237 -31.7773,32.18364 0,18.53517 13.8515,32.18363 31.7773,32.18363 17.9219,0 31.7734,-13.64846 31.7734,-32.18363 m -85.5507,0 c 0,-30.3477 24.0351,-53.56649 53.7773,-53.56649 29.9375,0 53.7695,23.21879 53.7695,53.56649 0,30.14847 -23.832,53.57039 -53.7695,53.57039 -29.7422,0 -53.7773,-23.42192 -53.7773,-53.57039" id="path304"/>
  <path fill-rule="nonzero" fill="white" fill-opacity="1" d="m 1564.791,162.16817 v 63.1407 h -21.9964 v -61.71492 c 0,-14.25783 -7.7422,-22.20315 -19.7618,-22.20315 -13.0351,0 -22.1992,8.35157 -22.1992,26.88674 v 57.03133 h -22 v -61.71492 c 0,-14.25783 -7.1289,-22.20315 -19.1445,-22.20315 -12.4258,0 -22.6094,8.35157 -22.6094,26.88674 v 57.03133 h -22 V 123.46889 h 22 v 12.21877 c 6.5196,-9.98047 16.5,-14.86721 29.125,-14.86721 13.2422,0 23.0196,5.90627 28.9258,16.08986 6.7227,-10.58984 17.5156,-16.08986 31.1641,-16.08986 23.0156,0 38.4964,15.88674 38.4964,41.34772" id="path306"/>
</svg>