<svg width="1119" height="249" viewBox="0 0 1119 249" fill="none" xmlns="http://www.w3.org/2000/svg">
<g clip-path="url(#clip0_2103_240)">
<path d="M350.529 194.776C349.676 193.988 349.107 192.937 349.107 191.886V53.2025C349.107 52.1519 349.676 51.1013 350.529 50.3133C351.382 49.5253 352.519 49 353.656 49H376.398C377.819 49 378.957 49.2627 379.525 49.788C380.378 50.3133 380.946 51.3639 381.515 52.4146L418.755 139.355C419.324 140.143 419.892 140.668 420.461 140.668C421.029 140.668 421.314 140.405 421.598 140.143C421.882 139.88 422.167 139.355 422.167 138.829V53.2025C422.167 52.1519 422.735 51.1013 423.588 50.3133C424.441 49.5253 425.578 49 426.715 49H445.193C446.33 49 447.467 49.5253 448.32 50.3133C449.173 51.1013 449.741 52.1519 449.741 53.2025V191.886C449.741 192.937 449.173 193.988 448.32 194.776C447.467 195.564 446.33 196.089 445.193 196.089H422.451C421.029 196.089 419.892 195.826 419.324 195.301C418.471 194.776 417.902 193.725 417.334 192.674L380.094 105.472C379.809 104.684 379.241 104.158 378.388 104.158C378.104 104.158 377.819 104.421 377.251 104.684C376.967 104.946 376.682 105.472 376.682 105.997V191.886C376.682 192.937 376.114 193.988 375.261 194.776C374.408 195.564 373.271 196.089 372.134 196.089H353.656C352.519 196.089 351.666 195.564 350.529 194.776Z" fill="white"/>
<path d="M481.58 188.207C474.757 181.378 471.346 172.185 471.346 160.365V95.226C471.346 94.1753 471.914 93.1247 472.767 92.3367C473.62 91.5488 474.757 91.0234 475.894 91.0234H492.666C493.804 91.0234 494.941 91.5488 495.794 92.3367C496.646 93.1247 497.215 94.1753 497.215 95.226V156.688C497.215 162.467 498.921 166.932 502.332 170.084C505.743 173.236 510.576 174.812 516.261 174.812C521.947 174.812 526.495 173.236 529.907 170.084C533.318 166.932 535.024 162.467 535.024 156.688V95.226C535.024 94.1753 535.592 93.1247 536.445 92.3367C537.298 91.5488 538.435 91.0234 539.572 91.0234H556.629C557.766 91.0234 558.903 91.5488 559.756 92.3367C560.609 93.1247 561.177 94.1753 561.177 95.226V191.884C561.177 192.935 560.609 193.986 559.756 194.774C558.903 195.562 557.766 196.087 556.629 196.087H544.689C543.268 196.087 542.415 195.824 541.562 195.299C540.994 194.774 540.141 193.986 539.288 192.935C538.719 191.884 538.151 191.359 537.582 190.834C537.014 190.308 536.161 190.308 535.024 190.308C533.887 190.308 531.897 191.096 529.338 192.672C526.211 194.511 523.368 196.087 520.241 197.138C517.114 198.188 513.134 198.713 508.017 198.713C497.499 198.451 488.402 195.036 481.58 188.207Z" fill="white"/>
<path d="M582.783 194.779C581.93 193.991 581.361 192.94 581.361 191.89V95.2315C581.361 94.1808 581.93 93.1302 582.783 92.3422C583.636 91.5542 584.773 91.0289 585.91 91.0289H598.418C599.839 91.0289 600.692 91.2916 601.545 91.8169C602.114 92.3422 602.966 93.1302 603.819 94.1808C604.388 95.2315 604.956 96.0194 605.525 96.2821C606.093 96.8074 606.946 97.0701 607.799 97.0701C609.22 97.0701 610.926 96.2821 613.2 94.4435C615.759 92.6049 618.317 91.0289 621.16 89.9783C623.719 88.9277 627.414 88.4023 632.247 88.4023C637.648 88.4023 641.912 89.1903 645.039 90.7663C648.166 92.3422 651.293 94.4435 654.136 96.8074C655.273 97.5954 656.41 98.3834 657.548 99.1713C658.685 99.9593 659.537 100.222 660.39 100.222C661.243 100.222 662.38 99.9593 663.233 99.1713C664.37 98.646 665.223 97.8581 666.36 96.8074C670.056 94.1808 673.467 92.0796 676.878 90.5036C680.29 88.9277 685.122 88.4023 691.092 88.4023C702.179 88.4023 711.276 91.8169 718.099 98.3834C724.921 104.95 728.332 114.406 728.332 126.225V191.89C728.332 192.94 727.764 193.991 726.911 194.779C726.058 195.567 724.921 196.092 723.784 196.092H707.012C705.875 196.092 704.737 195.567 703.885 194.779C703.032 193.991 702.463 192.94 702.463 191.89V128.326C702.463 123.336 700.758 119.396 697.631 116.507C694.504 113.618 690.239 112.304 685.122 112.304C680.005 112.304 675.741 113.618 672.614 116.507C669.487 119.396 667.782 123.336 667.782 128.326V191.89C667.782 192.94 667.213 193.991 666.36 194.779C665.507 195.567 664.37 196.092 663.233 196.092H646.461C645.324 196.092 644.187 195.567 643.334 194.779C642.481 193.991 641.912 192.94 641.912 191.89V128.326C641.912 123.336 640.207 119.396 637.08 116.507C633.953 113.618 629.688 112.304 624.571 112.304C619.454 112.304 615.19 113.618 612.063 116.507C608.936 119.396 607.231 123.336 607.231 128.326V191.89C607.231 192.94 606.662 193.991 605.809 194.779C604.956 195.567 603.819 196.092 602.682 196.092H585.91C584.773 196.092 583.636 195.567 582.783 194.779Z" fill="white"/>
<path d="M775.809 186.896C769.555 180.855 766.428 172.45 766.428 162.206V113.877C766.428 112.563 765.575 111.775 764.154 111.775H741.412C740.275 111.775 739.137 111.25 738.285 110.462C737.432 109.674 736.863 108.624 736.863 107.573V93.1267C736.863 92.076 737.432 91.0254 738.285 90.2374C739.137 89.4494 740.275 88.9241 741.412 88.9241H764.154C765.575 88.9241 766.428 88.1361 766.428 86.8229V53.2025C766.428 52.1519 766.997 51.1013 767.849 50.3133C768.702 49.5253 769.839 49 770.976 49H787.749C788.886 49 790.023 49.5253 790.876 50.3133C791.729 51.1013 792.297 52.1519 792.297 53.2025V86.8229C792.297 88.1361 793.15 88.9241 794.571 88.9241H825.842C826.979 88.9241 828.116 89.4494 828.969 90.2374C829.822 91.0254 830.39 92.076 830.39 93.1267V107.573C830.39 108.624 829.822 109.674 828.969 110.462C828.116 111.25 826.979 111.775 825.842 111.775H794.571C793.15 111.775 792.297 112.563 792.297 113.877V158.791C792.297 163.257 793.719 166.408 796.277 168.772C798.836 171.136 802.531 172.187 807.08 172.187H826.126C827.263 172.187 828.4 172.712 829.253 173.5C830.106 174.288 830.675 175.339 830.675 176.389V191.886C830.675 192.937 830.106 193.988 829.253 194.776C828.4 195.564 827.263 196.089 826.126 196.089H803.1C791.16 196.089 782.348 192.937 775.809 186.896Z" fill="white"/>
<path d="M845.453 194.776C844.601 193.988 844.316 192.937 844.316 191.887V98.9057C844.316 97.855 844.601 96.8044 845.453 96.0164C846.306 95.2284 847.443 94.7031 848.865 94.7031H865.637C867.059 94.7031 868.196 94.9658 869.049 95.7538C869.901 96.5417 870.186 97.3297 870.186 98.643V191.887C870.186 193.2 869.901 193.988 869.049 194.776C868.196 195.564 867.059 195.827 865.637 195.827H848.865C847.443 196.089 846.306 195.564 845.453 194.776Z" fill="white"/>
<path d="M913.681 195.826C907.143 193.462 901.741 189.785 897.193 185.057C892.076 180.067 888.096 173.763 885.253 166.671C882.411 159.317 881.273 151.437 881.273 142.507C881.273 133.576 882.695 125.696 885.253 118.342C888.096 110.987 891.792 104.946 897.193 99.9558C901.741 95.2279 907.143 91.8134 913.681 89.1868C920.219 86.5602 927.326 85.5096 935.286 85.5096C941.256 85.5096 945.804 86.0349 949.5 87.0855C953.195 88.1362 956.607 89.4494 960.587 91.2881C960.871 91.5507 961.724 91.8134 963.145 92.6014C964.567 93.3893 965.704 93.652 967.125 93.652C969.968 93.652 971.105 92.076 971.105 89.1868V53.2025C971.105 52.1519 971.673 51.1013 972.526 50.3133C973.379 49.5253 974.516 49 975.938 49H992.71C993.847 49 994.984 49.5253 995.837 50.3133C996.69 51.1013 997.258 52.1519 997.258 53.2025V191.886C997.258 192.937 996.69 193.988 995.837 194.776C994.984 195.564 993.847 196.089 992.71 196.089H980.77C978.78 196.089 976.79 195.038 975.369 192.674C974.516 191.624 973.663 190.836 972.811 190.048C971.958 189.522 970.821 189.26 969.399 189.26C967.694 189.26 965.135 190.31 962.008 192.149C958.312 194.513 954.333 196.089 950.637 197.402C946.941 198.715 941.824 199.503 935.286 199.503C927.326 199.503 920.219 198.453 913.681 195.826ZM915.671 165.883C918.514 169.035 921.925 171.399 925.905 173.238C929.885 175.076 934.718 175.864 940.119 175.864C950.353 175.864 958.597 172.45 964.567 165.883C969.684 159.842 972.242 151.962 972.242 142.244C972.242 132.525 969.684 124.908 964.567 118.867C958.881 112.038 950.637 108.886 940.119 108.886C934.718 108.886 930.169 109.674 925.905 111.513C921.925 113.351 918.514 115.715 915.671 118.867C910.27 124.646 907.711 132.263 907.711 142.244C907.711 152.225 910.27 159.842 915.671 165.883Z" fill="white"/>
<path d="M1022.56 184.009C1012.61 173.765 1007.78 159.844 1007.78 142.509C1007.78 131.214 1010.05 121.233 1014.31 112.566C1018.58 103.898 1025.12 97.3314 1033.64 92.6035C1042.17 87.8756 1052.12 85.5117 1063.78 85.5117C1080.83 85.5117 1094.48 90.2396 1104.43 99.4326C1114.38 108.626 1119.21 121.496 1119.21 137.781V145.398C1119.21 147.237 1118.64 148.55 1117.51 149.6C1116.37 150.651 1114.95 151.176 1113.24 151.176H1037.91C1036.49 151.176 1035.63 151.964 1035.63 153.54C1035.92 161.683 1038.76 167.987 1044.16 172.714C1049.56 177.442 1056.39 179.806 1064.35 179.806C1075.43 179.806 1083.68 175.866 1088.51 167.987C1090.22 165.36 1092.21 164.309 1094.2 164.309H1111.82C1113.24 164.309 1114.38 164.835 1115.23 165.623C1116.08 166.411 1116.37 167.724 1115.8 169.3C1112.96 178.493 1106.99 186.11 1098.18 191.626C1089.36 197.404 1077.99 200.031 1064.63 200.031C1046.44 199.506 1032.51 194.515 1022.56 184.009ZM1037.91 131.477H1090.78C1092.21 131.477 1092.77 130.689 1092.77 129.376C1092.77 122.547 1090.22 116.768 1084.81 112.04C1079.7 107.312 1072.59 104.948 1063.78 104.948C1055.53 104.948 1049 107.312 1043.59 112.04C1038.48 116.768 1035.63 122.547 1035.35 129.376C1035.35 130.952 1036.2 131.477 1037.91 131.477Z" fill="white"/>
<path d="M865.572 138.807H848.231C845.957 138.807 843.967 136.969 843.967 134.868V113.592C843.967 111.491 845.957 109.652 848.231 109.652H865.572C867.846 109.652 869.836 111.491 869.836 113.592V134.868C869.836 136.969 867.846 138.807 865.572 138.807Z" fill="white"/>
<path d="M838.191 51.7245C837.506 51.0397 837.125 50.1646 837.011 49.0994C836.935 48.0341 837.24 47.159 838.001 46.3981L854.398 30.0005C855.159 29.2396 856.034 28.9352 857.1 29.0113C858.165 29.0874 859.04 29.5059 859.725 30.1907L875.742 46.2079C876.541 47.0069 876.959 47.9199 876.997 48.9091C877.035 49.8983 876.655 50.7734 875.932 51.5343L859.534 67.9319C858.774 68.6928 857.898 69.0352 856.909 68.9972C855.92 68.9591 855.007 68.5406 854.208 67.7417L838.191 51.7245Z" fill="white"/>
<path d="M170.036 248.515L78.0434 169.995V249H48.0441C21.508 249 0 227.521 0 201.02V1.47821L160.465 138.439C165.923 143.065 174.103 142.405 178.736 136.955C183.369 131.505 182.708 123.335 177.25 118.708L39.0782 0.660118C38.8127 0.434437 38.9709 0 39.3211 0H60.0325L76.0322 0.0225681H77.1113C77.874 0.0225681 78.6084 0.293386 79.1903 0.784243L170.951 78.6274V0H200.95C227.486 0 248.994 21.4792 248.994 47.9799V248.882L89.094 116.581C83.6422 111.955 75.0435 112.305 69.9871 117.354C65.3545 122.805 66.0155 130.974 71.473 135.601L207.673 248.295C207.961 248.532 207.792 248.994 207.419 248.994H171.284C170.838 248.994 170.409 248.836 170.075 248.543L170.03 248.504L170.036 248.515Z" fill="white"/>
</g>
<defs>
<clipPath id="clip0_2103_240">
<rect width="1119" height="249" fill="white"/>
</clipPath>
</defs>
</svg>
