<svg width="30" height="30" fill="none" xmlns="http://www.w3.org/2000/svg" aria-hidden="true"><path d="M15.91 8.577a.323.323 0 0 1-.264.098 16.671 16.671 0 0 0-3.397.043c-5.179.6-8.922 3.503-11.15 5.832-.177.186-.353.377-.525.569a.33.33 0 0 1-.37.085.321.321 0 0 1-.204-.306A14.959 14.959 0 0 1 2.79 6.29a5.352 5.352 0 0 1 5.733-2.06c2.896.77 5.376 2.073 7.373 3.873a.32.32 0 0 1 .108.23.338.338 0 0 1-.092.243h-.001Z" fill="#FF4724"/><path d="M7.817 27.882a.325.325 0 0 1-.405.056 14.955 14.955 0 0 1-6.059-6.719 5.322 5.322 0 0 1 1.006-5.916c.025-.026.05-.053.076-.078 2.114-2.123 4.483-3.62 7.041-4.449a.324.324 0 0 1 .365.117.323.323 0 0 1 .005.384 16.773 16.773 0 0 0-1.662 2.963C5.99 19.314 6.813 24.28 7.89 27.55c.04.118.01.241-.074.33l.001.002Z" fill="#FF4724"/><path d="M22.492 27.983a.342.342 0 0 1-.078.06 14.959 14.959 0 0 1-8.848 1.888 5.374 5.374 0 0 1-4.65-3.934c-.782-2.893-.894-5.693-.332-8.322a.33.33 0 0 1 .083-.16.335.335 0 0 1 .294-.096.321.321 0 0 1 .242.186 16.75 16.75 0 0 0 1.735 2.92c3.297 4.437 8.008 6.207 11.38 6.91a.325.325 0 0 1 .248.224.326.326 0 0 1-.074.324Z" fill="#FF4724"/><path d="M26.723 24.3a5.353 5.353 0 0 1-5.244 1.468c-2.896-.769-5.377-2.072-7.374-3.872a.328.328 0 0 1 .25-.572c1.136.1 2.278.086 3.396-.043 5.18-.6 8.923-3.502 11.15-5.832.177-.185.354-.376.525-.568a.33.33 0 0 1 .37-.086c.128.052.206.17.205.307a14.955 14.955 0 0 1-2.79 8.607 5.453 5.453 0 0 1-.489.59h.001Z" fill="#FF4724"/><path d="M27.57 14.773c-2.114 2.123-4.483 3.62-7.04 4.449a.323.323 0 0 1-.365-.118.325.325 0 0 1-.005-.384 16.772 16.772 0 0 0 1.661-2.963c2.195-5.075 1.372-10.04.294-13.31a.325.325 0 0 1 .075-.331.325.325 0 0 1 .405-.057 14.955 14.955 0 0 1 6.059 6.72c.913 2 .517 4.322-1.006 5.917l-.076.078-.002-.001Z" fill="#FF4724"/><path d="M21.338 12.484a.334.334 0 0 1-.295.097.322.322 0 0 1-.241-.186 16.661 16.661 0 0 0-1.735-2.92c-3.297-4.438-8.008-6.207-11.38-6.911a.329.329 0 0 1-.096-.608A14.96 14.96 0 0 1 16.438.069a5.374 5.374 0 0 1 4.65 3.935c.782 2.892.894 5.691.333 8.322a.33.33 0 0 1-.083.158ZM11.738 19a15.559 15.559 0 0 1-1.622-2.715 3.025 3.025 0 0 1 0-2.576c.443-.94.99-1.851 1.626-2.705l.074-.1L14.181 15l-2.37 4.098-.074-.099.001.001Zm3.683-4.714-2.366-4.096.123-.014a15.397 15.397 0 0 1 3.16-.048 3.022 3.022 0 0 1 2.231 1.287 15.83 15.83 0 0 1 1.529 2.76l.048.114-4.725-.002Zm-.38 5.646a16.09 16.09 0 0 1-1.867-.11l-.123-.015 2.368-4.095 4.727.002-.049.113c-.412.96-.93 1.89-1.539 2.761a3.02 3.02 0 0 1-2.23 1.29c-.425.035-.858.053-1.287.053Z" fill="#FF4724"/></svg>
