<?xml version="1.0" encoding="UTF-8" standalone="no"?>
<svg xmlns:inkscape="http://www.inkscape.org/namespaces/inkscape" xmlns:sodipodi="http://sodipodi.sourceforge.net/DTD/sodipodi-0.dtd" xmlns="http://www.w3.org/2000/svg" xmlns:svg="http://www.w3.org/2000/svg" id="Layer_1" data-name="Layer 1" viewBox="0 0 1414 310" version="1.1" sodipodi:docname="OT_Logo_CMYK_CONNECTED_light.svg" inkscape:version="1.4.2 (ebf0e940d0, 2025-05-08)">
  <defs id="defs1">
    <style id="style1">
      .cls-1 {
        fill: #ff4724;
      }

      .cls-2 {
        fill: #faf9f7;
      }
    </style>
  </defs>
  <path class="cls-2" d="M1093.07,77.82h-98.78v18.96h38.81v135.39h21.17V96.78h38.8v-18.96ZM1404.05,133.8c-6.39-8.6-17.2-13.89-31.97-13.89s-27.78,7.72-35.94,20.73v-73.2h-20.07v165.38h20.07v-73.21c7.93-12.35,20.06-21.17,32.85-21.17,9.7,0,15.65,3.53,19.18,8.82,5.29,7.94,5.73,19.62,5.73,30.43v55.12h20.07v-57.33c0-16.76-2.42-31.54-9.92-41.68ZM1283.58,209.02c-2.55,1.94-5.67,3.72-9.17,5.17-4.39,1.81-9.86,2.75-14.01,2.75-19.18,0-36.38-15.44-36.38-39.25,0-21.83,16.32-39.25,36.16-39.25,6.38,0,10.97,1.18,15.28,3.21,2.78,1.31,5.62,3.33,7.09,4.82.54.56.68.74.68.74l14.06-13.75s-2.62-2.36-5.14-4.06c-8.82-5.94-19.4-9.48-31.09-9.48-32.19,0-57.55,25.58-57.55,57.77,0,34.84,24.92,57.77,56.45,57.77,13.23,0,25.58-4.2,33.74-10.81h0c3.25-2.63,4.17-3.92,4.17-3.92l-13.59-12.32s-.1.15-.7.61ZM853.11,112.2c-10.57.82-21.84,7.31-27.32,17.02l-4.54-15.21h-28.76v118.19h35.72v-78.5c3.82-7.38,12.5-11.91,20.44-11.91,3.97,0,7.3.7,10.88,2.21l8.72-29.2c-4.05-1.86-9.2-3.05-15.14-2.59ZM936.28,111.34c-17.91-1.63-33.84,1.71-49.65,9.34l6.55,25.36c12.75-6.35,25.52-10.32,35.94-9.68,18.51,1.14,21.74,10.69,21.74,24.36v.88c-6.62-1.55-14.58-2.63-21.2-2.63-24.04,0-51.16,9.04-51.16,37.71,0,24.04,20.73,38.15,42.78,38.15,11.69,0,23.69-2.84,31.64-11.91l2.76,9.26h0s28.26-.01,28.26-.01v-70.78c0-30.87-18.44-47.39-47.66-50.05ZM950.88,202.42c-7.08,5.51-14.41,8.6-24.37,8.6s-19.13-5.51-19.13-14.33c0-12.57,13.88-17.2,26.73-17.2,5.5,0,10.74.88,16.77,1.98h.01v20.95ZM461.18,75.2c-46.08,0-81.36,35.72-81.36,79.82s35.28,79.82,81.36,79.82,81.36-35.72,81.36-79.82-35.28-79.82-81.36-79.82ZM461.18,203.96c-25.51,0-46.19-21.92-46.19-48.95s20.68-48.95,46.19-48.95,46.2,21.92,46.2,48.95-20.68,48.95-46.2,48.95ZM706.21,111.35c-36.6,0-62.4,26.9-62.4,61.74s25.8,61.74,62.4,61.74,62.4-26.9,62.4-61.74-25.8-61.74-62.4-61.74ZM706.21,204.84h0c-16.77,0-30.37-14.21-30.37-31.75s13.6-31.75,30.37-31.75h0c16.77,0,30.37,14.22,30.37,31.75s-13.6,31.75-30.37,31.75ZM625.11,112.2c-10.57.82-21.84,7.31-27.32,17.02l-4.54-15.21h-28.76v118.19h35.72v-78.5c3.82-7.38,12.5-11.91,20.44-11.91,3.97,0,7.3.7,10.88,2.21l8.72-29.2c-4.05-1.86-9.2-3.05-15.14-2.59ZM1134.6,119.92c-30.65,0-54.68,25.58-54.68,57.77s19.62,57.77,54.68,57.77c21.17,0,37.46-8.96,47.52-22.45l-12.59-11.41c-8.21,9.98-19.52,16.67-34.04,16.67-21.17,0-34.18-16.53-35.5-35.49h84.4c.29-2.93.48-7.72.48-11.47,0-29.55-19.62-51.38-50.27-51.38ZM1101.54,166.67h-.01c3.97-16.54,15.44-29.55,33.3-29.55,16.54,0,28.45,13.89,29.33,29.55h-62.62Z" id="path1"></path>
  <g id="g11" style="fill:#faf9f7;fill-opacity:1">
    <path class="cls-1" d="M168.68,204.93c8.53-.77,16.27-5.26,21.22-12.25,6.82-9.64,12.49-19.86,16.96-30.52h-48.68l-24.31,42.1c11.66,1.47,23.28,1.71,34.81.66Z" id="path2" style="fill:#faf9f7;fill-opacity:1"></path>
    <path class="cls-1" d="M209.63,189.1c-1.66,2.75,1.16,6,4.13,4.78,6.61-2.72,13.08-5.88,19.36-9.52,21.28-12.32,37.76-28.05,49.88-42.42,14.28-16.94,16.74-40.8,6.14-60.25-15.17-27.83-38.87-50.88-67.44-64.75-2.92-1.42-6.06,1.52-4.78,4.5,19.88,46.45,26.21,112.2-7.29,167.66Z" id="path3" style="fill:#faf9f7;fill-opacity:1"></path>
    <path class="cls-1" d="M126.24,106.86l.09-.05s-.04,0-.06,0c-.01.01-.02.03-.04.04Z" id="path4" style="fill:#faf9f7;fill-opacity:1"></path>
    <path class="cls-1" d="M103.48,167.19c4.94,10.75,10.97,20.78,17.99,30l24.34-42.16-24.33-42.14c-7.13,9.39-13.17,19.37-18,29.83-3.59,7.77-3.57,16.7,0,24.47Z" id="path5" style="fill:#faf9f7;fill-opacity:1"></path>
    <path class="cls-1" d="M206.84,147.88c-4.58-10.89-10.2-21.12-16.85-30.54-4.93-6.99-12.68-11.44-21.2-12.23-11.78-1.09-23.48-.89-34.96.58l24.36,42.19h48.65Z" id="path6" style="fill:#faf9f7;fill-opacity:1"></path>
    <path class="cls-1" d="M238.29,276.22c-50.17-6.01-110.27-33.4-141.55-90.14-1.55-2.81-5.78-1.99-6.2,1.19-.95,7.09-1.44,14.27-1.43,21.53.03,24.59,5.41,46.73,11.8,64.41,7.53,20.83,26.96,34.9,49.11,35.44,31.68.78,63.5-8.22,89.79-26.03,2.68-1.82,1.71-6.01-1.51-6.39Z" id="path7" style="fill:#faf9f7;fill-opacity:1"></path>
    <path class="cls-1" d="M307.45,144.55c-.23-3.23-4.35-4.48-6.29-1.89-30.29,40.44-84.06,78.8-148.84,77.52-3.21-.06-4.62,4.01-2.07,5.97,5.66,4.36,11.63,8.38,17.93,12,21.31,12.27,43.17,18.68,61.68,21.98,21.81,3.9,43.7-5.9,55.25-24.81,16.52-27.05,24.63-59.1,22.35-90.77Z" id="path8" style="fill:#faf9f7;fill-opacity:1"></path>
    <path class="cls-1" d="M155.8,89.82c3.21.06,4.62-4.01,2.07-5.97-5.66-4.36-11.63-8.38-17.93-12-21.31-12.27-43.17-18.68-61.68-21.98-21.81-3.9-43.7,5.9-55.25,24.81C6.5,101.73-1.61,133.78.66,165.45c.23,3.23,4.35,4.48,6.29,1.89,30.29-40.44,84.06-78.8,148.84-77.52Z" id="path9" style="fill:#faf9f7;fill-opacity:1"></path>
    <path class="cls-1" d="M98.48,120.9c1.66-2.75-1.16-6-4.13-4.78-6.61,2.72-13.08,5.88-19.36,9.52-21.28,12.32-37.76,28.05-49.88,42.42-14.28,16.94-16.74,40.8-6.14,60.25,15.17,27.83,38.87,50.88,67.44,64.75,2.92,1.42,6.06-1.52,4.78-4.5-19.88-46.45-26.21-112.2,7.29-167.66Z" id="path10" style="fill:#faf9f7;fill-opacity:1"></path>
    <path class="cls-1" d="M69.82,33.78c50.17,6.01,110.27,33.4,141.55,90.14,1.55,2.81,5.78,1.99,6.2-1.19.95-7.09,1.44-14.27,1.43-21.53-.03-24.59-5.41-46.73-11.8-64.41C199.68,15.96,180.24,1.9,158.1,1.36c-31.68-.78-63.5,8.22-89.79,26.03-2.68,1.82-1.71,6.01,1.51,6.39Z" id="path11" style="fill:#faf9f7;fill-opacity:1"></path>
  </g>
</svg>

