<?xml version="1.0" encoding="UTF-8"?>
<svg xmlns="http://www.w3.org/2000/svg" width="397" height="158" viewBox="0 0 397 158" fill="none">
  <path d="M140.29 43.5699V63.6099H133.54V12.4199H152.42C158.02 12.4199 162.41 13.8499 165.59 16.7099C168.77 19.5699 170.35 23.3499 170.35 28.0699C170.35 33.0399 168.8 36.8599 165.69 39.5499C162.58 42.2299 158.14 43.5799 152.35 43.5799H140.29V43.5699ZM140.29 38.0499H152.42C156.03 38.0499 158.8 37.1999 160.72 35.4999C162.64 33.7999 163.6 31.3399 163.6 28.1199C163.6 24.8999 162.64 22.6299 160.72 20.7899C158.8 18.9599 156.16 18.0099 152.81 17.9399H140.29V38.0499Z" fill="white"></path>
  <path d="M202.84 63.6094C202.46 62.8594 202.16 61.5194 201.93 59.5994C198.91 62.7394 195.301 64.3094 191.101 64.3094C187.351 64.3094 184.27 63.2494 181.87 61.1294C179.47 59.0094 178.271 56.3194 178.271 53.0594C178.271 49.0994 179.78 46.0194 182.79 43.8294C185.8 41.6394 190.041 40.5394 195.501 40.5394H201.831V37.5494C201.831 35.2794 201.15 33.4694 199.79 32.1194C198.43 30.7694 196.431 30.0994 193.781 30.0994C191.461 30.0994 189.511 30.6894 187.941 31.8594C186.371 33.0294 185.581 34.4494 185.581 36.1094H179.04C179.04 34.2094 179.711 32.3794 181.061 30.6094C182.411 28.8394 184.24 27.4394 186.54 26.4094C188.85 25.3794 191.39 24.8594 194.15 24.8594C198.53 24.8594 201.971 25.9594 204.451 28.1494C206.931 30.3394 208.221 33.3594 208.321 37.1994V54.7094C208.321 58.1994 208.761 60.9794 209.661 63.0394V63.5994H202.84V63.6094ZM192.051 58.6494C194.091 58.6494 196.021 58.1194 197.851 57.0694C199.681 56.0194 201.001 54.6394 201.821 52.9594V45.1594H196.721C188.751 45.1594 184.771 47.4894 184.771 52.1594C184.771 54.1994 185.451 55.7894 186.811 56.9394C188.171 58.0894 189.921 58.6594 192.051 58.6594V58.6494Z" fill="white"></path>
  <path d="M238.71 31.3994C237.73 31.2394 236.66 31.1494 235.51 31.1494C231.24 31.1494 228.35 32.9694 226.83 36.5994V63.5994H220.33V25.5694H226.66L226.77 29.9594C228.9 26.5594 231.93 24.8594 235.84 24.8594C237.11 24.8594 238.07 25.0194 238.72 25.3494V31.3994H238.71Z" fill="white"></path>
  <path d="M262.27 64.3094C257.11 64.3094 252.92 62.6194 249.68 59.2294C246.45 55.8394 244.83 51.3094 244.83 45.6394V44.4394C244.83 40.6694 245.55 37.2994 246.99 34.3294C248.43 31.3694 250.45 29.0394 253.04 27.3694C255.63 25.6894 258.44 24.8594 261.46 24.8594C266.41 24.8594 270.25 26.4894 272.99 29.7494C275.73 33.0094 277.1 37.6694 277.1 43.7394V46.4494H251.33C251.42 50.1994 252.52 53.2294 254.62 55.5394C256.72 57.8494 259.38 58.9994 262.62 58.9994C264.92 58.9994 266.86 58.5294 268.46 57.5894C270.05 56.6494 271.45 55.4094 272.64 53.8594L276.61 56.9494C273.42 61.8494 268.64 64.2994 262.27 64.2994V64.3094ZM261.46 30.2094C258.84 30.2094 256.63 31.1694 254.85 33.0794C253.07 34.9894 251.97 37.6694 251.55 41.1094H270.6V40.6194C270.41 37.3194 269.52 34.7494 267.93 32.9394C266.34 31.1194 264.18 30.2194 261.46 30.2194V30.2094Z" fill="white"></path>
  <path d="M295.25 16.3596V25.5696H302.35V30.5996H295.25V54.2196C295.25 55.7496 295.57 56.8896 296.2 57.6496C296.83 58.4096 297.91 58.7896 299.43 58.7896C300.18 58.7896 301.21 58.6496 302.52 58.3696V63.6096C300.81 64.0796 299.14 64.3096 297.53 64.3096C294.62 64.3096 292.43 63.4296 290.96 61.6696C289.49 59.9096 288.75 57.4196 288.75 54.1796V30.5896H281.82V25.5596H288.75V16.3496H295.25V16.3596Z" fill="white"></path>
  <path d="M309.32 44.2391C309.32 40.5091 310.05 37.1591 311.52 34.1891C312.98 31.2091 315.02 28.9191 317.64 27.2991C320.25 25.6791 323.23 24.8691 326.59 24.8691C331.77 24.8691 335.96 26.6591 339.16 30.2491C342.36 33.8391 343.96 38.6091 343.96 44.5591V45.0191C343.96 48.7191 343.25 52.0491 341.83 54.9891C340.41 57.9291 338.38 60.2191 335.75 61.8591C333.11 63.4991 330.08 64.3191 326.66 64.3191C321.5 64.3191 317.33 62.5291 314.13 58.9391C310.93 55.3491 309.33 50.6091 309.33 44.6991V44.2391H309.32ZM315.86 45.0091C315.86 49.2291 316.84 52.6191 318.8 55.1691C320.76 57.7191 323.38 58.9991 326.66 58.9991C329.94 58.9991 332.59 57.7091 334.54 55.1191C336.49 52.5291 337.46 48.8991 337.46 44.2391C337.46 40.0691 336.47 36.6891 334.49 34.0991C332.51 31.5091 329.88 30.2191 326.6 30.2191C323.32 30.2191 320.8 31.4991 318.83 34.0491C316.86 36.5991 315.88 40.2591 315.88 45.0191L315.86 45.0091Z" fill="white"></path>
  <path d="M148.62 113.041C142.83 111.381 138.62 109.331 135.98 106.911C133.34 104.491 132.02 101.491 132.02 97.9307C132.02 93.9007 133.63 90.5607 136.85 87.9307C140.07 85.2907 144.26 83.9707 149.42 83.9707C152.94 83.9707 156.07 84.6507 158.82 86.0107C161.57 87.3707 163.71 89.2407 165.22 91.6307C166.73 94.0207 167.49 96.6307 167.49 99.4707H160.7C160.7 96.3707 159.72 93.9307 157.75 92.1507C155.78 90.3707 153 89.4907 149.42 89.4907C146.09 89.4907 143.5 90.2207 141.63 91.6907C139.76 93.1607 138.84 95.1907 138.84 97.8007C138.84 99.8907 139.72 101.661 141.49 103.101C143.26 104.541 146.27 105.861 150.53 107.061C154.78 108.261 158.11 109.581 160.51 111.021C162.91 112.461 164.69 114.141 165.85 116.061C167.01 117.981 167.59 120.241 167.59 122.851C167.59 127.001 165.97 130.321 162.74 132.821C159.51 135.321 155.18 136.561 149.77 136.561C146.25 136.561 142.97 135.891 139.93 134.541C136.88 133.191 134.53 131.351 132.88 129.001C131.23 126.661 130.4 124.001 130.4 121.021H137.19C137.19 124.111 138.33 126.561 140.62 128.351C142.91 130.141 145.96 131.041 149.78 131.041C153.34 131.041 156.07 130.311 157.97 128.861C159.87 127.411 160.82 125.431 160.82 122.921C160.82 120.411 159.94 118.471 158.18 117.101C156.42 115.731 153.23 114.381 148.62 113.041Z" fill="white"></path>
  <path d="M192.821 136.561C187.661 136.561 183.471 134.871 180.231 131.481C177.001 128.091 175.381 123.561 175.381 117.891V116.691C175.381 112.921 176.101 109.551 177.541 106.581C178.981 103.621 181.001 101.291 183.591 99.6213C186.181 97.9413 188.991 97.1113 192.011 97.1113C196.951 97.1113 200.801 98.7413 203.541 102.001C206.281 105.261 207.651 109.921 207.651 115.991V118.701H181.881C181.971 122.451 183.071 125.481 185.171 127.791C187.271 130.101 189.931 131.251 193.171 131.251C195.471 131.251 197.411 130.781 199.011 129.841C200.601 128.901 202.001 127.661 203.191 126.111L207.161 129.201C203.971 134.101 199.191 136.551 192.821 136.551V136.561ZM192.011 102.461C189.391 102.461 187.181 103.421 185.401 105.331C183.621 107.241 182.521 109.921 182.101 113.361H201.151V112.871C200.961 109.571 200.071 107.001 198.481 105.191C196.891 103.371 194.731 102.471 192.011 102.471V102.461Z" fill="white"></path>
  <path d="M232.24 131.251C234.56 131.251 236.59 130.551 238.32 129.141C240.05 127.731 241.02 125.981 241.2 123.871H247.35C247.23 126.051 246.48 128.121 245.1 130.091C243.72 132.061 241.87 133.631 239.56 134.801C237.25 135.971 234.81 136.561 232.23 136.561C227.05 136.561 222.93 134.831 219.87 131.371C216.81 127.911 215.28 123.181 215.28 117.181V116.091C215.28 112.391 215.96 109.091 217.32 106.211C218.68 103.331 220.63 101.091 223.17 99.5013C225.71 97.9113 228.72 97.1113 232.19 97.1113C236.46 97.1113 240 98.3913 242.82 100.941C245.64 103.491 247.15 106.811 247.34 110.891H241.19C241 108.431 240.07 106.411 238.4 104.831C236.73 103.251 234.66 102.461 232.19 102.461C228.89 102.461 226.32 103.651 224.51 106.031C222.69 108.411 221.79 111.851 221.79 116.351V117.581C221.79 121.961 222.69 125.341 224.5 127.701C226.3 130.071 228.88 131.251 232.23 131.251H232.24Z" fill="white"></path>
  <path d="M279.95 132.1C277.42 135.08 273.7 136.56 268.81 136.56C264.76 136.56 261.67 135.38 259.55 133.03C257.43 130.68 256.36 127.19 256.33 122.57V97.8203H262.83V122.39C262.83 128.16 265.17 131.04 269.86 131.04C274.83 131.04 278.13 129.19 279.77 125.49V97.8203H286.27V135.86H280.08L279.94 132.1H279.95Z" fill="white"></path>
  <path d="M316.351 103.661C315.371 103.501 314.301 103.411 313.151 103.411C308.881 103.411 305.991 105.231 304.471 108.861V135.861H297.971V97.8213H304.301L304.411 102.211C306.541 98.8113 309.571 97.1113 313.481 97.1113C314.751 97.1113 315.711 97.2713 316.361 97.6013V103.651L316.351 103.661Z" fill="white"></path>
  <path d="M324.16 87.7307C324.16 86.6807 324.48 85.7807 325.13 85.0607C325.77 84.3307 326.73 83.9707 328 83.9707C329.27 83.9707 330.23 84.3307 330.88 85.0607C331.54 85.7907 331.86 86.6807 331.86 87.7307C331.86 88.7807 331.53 89.6607 330.88 90.3707C330.22 91.0707 329.26 91.4207 328 91.4207C326.74 91.4207 325.78 91.0707 325.13 90.3707C324.48 89.6707 324.16 88.7907 324.16 87.7307ZM331.19 135.861H324.69V97.8207H331.19V135.861Z" fill="white"></path>
  <path d="M352.22 88.6116V97.8216H359.32V102.852H352.22V126.472C352.22 128.002 352.54 129.142 353.17 129.902C353.8 130.662 354.88 131.042 356.4 131.042C357.15 131.042 358.18 130.902 359.49 130.622V135.862C357.78 136.332 356.11 136.562 354.5 136.562C351.59 136.562 349.4 135.682 347.93 133.922C346.46 132.162 345.72 129.672 345.72 126.432V102.842H338.79V97.8116H345.72V88.6016H352.22V88.6116Z" fill="white"></path>
  <path d="M381.161 126.331L390.021 97.8208H396.981L381.691 141.731C379.321 148.061 375.561 151.221 370.401 151.221L369.171 151.111L366.741 150.651V145.381L368.501 145.521C370.701 145.521 372.421 145.071 373.651 144.181C374.881 143.291 375.891 141.661 376.691 139.291L378.131 135.421L364.561 97.8008H371.661L381.151 126.311L381.161 126.331Z" fill="white"></path>
  <path d="M90.51 129.89L75.95 114.53C83.62 111.01 82.3 106.32 81.64 99.4097C80.86 91.2097 86.71 88.2797 85.74 84.1797C84.79 80.1697 81.4 74.4997 74.1 73.9997C75.6 73.0197 77.29 70.9997 77.46 70.2597C77.63 69.4897 77.31 67.6697 75.57 65.0797C73.33 61.7497 71.84 53.1297 71.24 53.1297C70.64 53.1297 70.76 57.2797 71.33 61.3997C71.89 65.4497 74.06 67.8797 73.82 70.0097C73.65 71.5697 71.52 73.4297 70.57 74.4997C63.17 77.0397 53.34 87.6997 41.05 84.9697C27 81.8497 28.19 62.9797 28.19 62.9797C28.19 62.9797 32.47 42.5697 28.59 39.6297C25.92 37.6097 22.31 34.8697 22.31 28.6297C22.31 21.4397 26.39 15.3697 39.36 17.3697C52.33 19.3697 49.94 20.0797 58.93 21.0697C67.91 22.0697 70.31 19.4697 70.31 19.4697L73.3 22.2597L77.89 30.0297L78.61 30.4497C78.61 30.4497 77.31 24.5297 76.79 22.6697C73.09 9.39967 66.94 6.75967 66.94 6.75967V6.78967C66.5 6.47967 66.03 6.16967 65.51 5.87967C55.03 0.0796671 14.25 -8.16033 3.24 18.8597C-1.21 29.7797 1.89 44.1497 4.66 53.0197C3.74 54.7097 3.39 56.5897 3.29 58.2997C3.29 60.4397 3.71 62.4697 4.29 64.3597C5.64 68.0497 7.93 71.3997 10.88 73.7597C12.33 74.9897 14.04 76.0397 16 76.6697C16.88 76.9197 17.86 77.0897 18.82 77.0697C18.9 76.4097 18.89 76.0297 18.82 75.5297C18.21 75.3397 17.61 75.0697 17.07 74.7597C15.63 73.9397 14.39 72.7897 13.28 71.5497C11.03 69.0697 9.27 66.1597 8.2 63.0097C7.96 62.3197 7.75 61.5897 7.58 60.8497C7.4 59.4397 7.05 53.8097 12.42 53.1897C21 52.1897 24.2 62.9697 24.2 62.9697C24.2 62.9697 23.49 88.0897 31.69 99.5997C38.71 109.46 52.44 117.42 64.69 117.2C63.05 121.85 59.27 132.31 56.54 137.91C52.95 145.25 48.85 151.4 48.85 151.4C48.85 151.4 36.38 132.44 29.21 123.22C22.04 114 20.12 105.4 20.12 105.4L19.25 97.7597L0 117.24V131.77L15.54 129.38L13.36 136.89L47.13 157.38L85.04 135.86L79.5 130.22L90.51 129.88V129.89ZM71.6 96.6797C66.45 97.7697 61.03 94.3197 60.87 90.7297C60.71 87.1397 67.43 84.1697 70.86 83.3897C74.29 82.6097 77.21 84.8497 77.11 87.2897C76.95 90.8797 76.75 95.5797 71.6 96.6797Z" fill="white"></path>
  <path d="M64.6597 48.2292C66.4897 48.3492 65.3097 45.9692 64.6197 44.3692C63.8697 42.6292 56.3397 42.6292 52.3097 44.2792C43.3697 47.9292 40.6397 54.1692 41.9397 54.0192C43.2397 53.8692 45.2497 50.4292 51.0597 48.5292C56.3297 46.8092 62.8297 48.1092 64.6597 48.2292Z" fill="white"></path>
  <path d="M57.2199 51.9405C50.7999 53.4405 48.8799 58.3205 48.8799 58.3205C48.8799 58.3205 50.8099 56.7005 54.0899 55.6705C53.9899 56.0805 53.9499 56.5105 53.9999 56.9605C54.2299 59.0305 56.0999 60.5205 58.1699 60.2805C60.2399 60.0505 61.7299 58.1805 61.4899 56.1105C61.4399 55.6805 61.3099 55.2905 61.1299 54.9205C63.8999 55.2005 65.6499 56.0705 65.6499 56.0705C65.6499 56.0705 63.6399 50.4305 57.2199 51.9405Z" fill="white"></path>
  <path d="M86.8798 54.0805C86.8798 54.0805 86.0498 49.7704 81.2198 49.9404C76.3898 50.1104 74.5898 55.7104 74.5898 55.7104C74.5898 55.7104 76.4298 54.5004 78.8098 53.6204C78.7398 53.9504 78.7198 54.2904 78.7698 54.6404C78.9998 56.1504 80.4098 57.1804 81.9198 56.9504C83.4298 56.7204 84.4599 55.3104 84.2299 53.8004C84.1699 53.4204 84.0398 53.0804 83.8498 52.7704C86.0798 52.9704 86.8798 54.0805 86.8798 54.0805Z" fill="white"></path>
  <path d="M73.7997 44.6993C73.3997 46.6193 73.1297 48.1693 74.1297 48.5393C75.0097 48.8693 78.7297 44.9293 83.3497 45.5493C86.3597 45.9493 87.0197 47.7393 87.3197 47.7393C87.6197 47.7393 86.4097 43.1793 83.2497 42.7293C80.0897 42.2793 74.0897 43.3193 73.7997 44.7093V44.6993Z" fill="white"></path>
</svg>

